Kaddare-Regular.ufo
<glyph name="Kaddare-B" format="2">
  <advance width="594"/>
  <unicode hex="E000"/>
  <outline>
    <contour>
      <point x="50" y="710" type="line"/>
      <point x="64.667" y="724.667"/>
      <point x="78.499" y="734.665"/>
      <point x="91.499" y="739.998" type="curve" smooth="yes"/>
      <point x="104.499" y="745.331"/>
      <point x="124" y="748.664"/>
      <point x="150" y="749.997" type="curve" smooth="yes"/>
      <point x="176" y="751.33"/>
      <point x="224.5" y="751.997"/>
      <point x="295.5" y="751.997" type="curve" smooth="yes"/>
      <point x="366.5" y="751.997"/>
      <point x="415" y="751.33"/>
      <point x="441" y="749.997" type="curve" smooth="yes"/>
      <point x="467" y="748.664"/>
      <point x="486.5" y="745.331"/>
      <point x="499.5" y="739.998" type="curve" smooth="yes"/>
      <point x="512.5" y="734.665"/>
      <point x="526.333" y="724.665"/>
      <point x="541" y="709.998" type="curve" smooth="yes"/>
      <point x="552.333" y="698.665"/>
      <point x="562.166" y="686.498"/>
      <point x="570.499" y="673.498" type="curve" smooth="yes"/>
      <point x="578.832" y="660.498"/>
      <point x="583" y="649.998"/>
      <point x="583" y="641.998" type="curve" smooth="yes"/>
      <point x="583" y="629.998"/>
      <point x="578" y="622.165"/>
      <point x="568" y="618.498" type="curve" smooth="yes"/>
      <point x="558" y="614.831"/>
      <point x="546.333" y="615.998"/>
      <point x="533" y="621.998" type="curve" smooth="yes"/>
      <point x="519.667" y="627.998"/>
      <point x="509" y="637.331"/>
      <point x="501" y="649.998" type="curve"/>
      <point x="493.667" y="662.665"/>
      <point x="483.5" y="671.665"/>
      <point x="470.5" y="676.998" type="curve" smooth="yes"/>
      <point x="457.5" y="682.331"/>
      <point x="438.667" y="684.998"/>
      <point x="414" y="684.998" type="curve" smooth="yes"/>
      <point x="346" y="684.998" type="line"/>
      <point x="346" y="379.998" type="line"/>
      <point x="346" y="76.9981" type="line"/>
      <point x="422" y="76.9981" type="line" smooth="yes"/>
      <point x="472.667" y="76.9981"/>
      <point x="501.334" y="85.3311"/>
      <point x="508" y="101.998" type="curve" smooth="yes"/>
      <point x="512.667" y="113.331"/>
      <point x="521.167" y="120.998"/>
      <point x="533.5" y="124.998" type="curve" smooth="yes"/>
      <point x="545.833" y="128.998"/>
      <point x="557.166" y="127.998"/>
      <point x="567.499" y="121.998" type="curve" smooth="yes"/>
      <point x="577.832" y="115.998"/>
      <point x="583" y="106.998"/>
      <point x="583" y="94.9981" type="curve" smooth="yes"/>
      <point x="583" y="71.6651"/>
      <point x="574.5" y="53.9981"/>
      <point x="557.5" y="41.9981" type="curve" smooth="yes"/>
      <point x="540.5" y="29.9981"/>
      <point x="512" y="21.3311"/>
      <point x="472" y="15.9981" type="curve" smooth="yes"/>
      <point x="432" y="10.6651"/>
      <point x="374" y="7.99805"/>
      <point x="298" y="7.99805" type="curve" smooth="yes"/>
      <point x="226.667" y="7.99805"/>
      <point x="177.834" y="8.83105"/>
      <point x="151.501" y="10.4981" type="curve" smooth="yes"/>
      <point x="125.168" y="12.1651"/>
      <point x="105.335" y="15.6651"/>
      <point x="92.002" y="20.9981" type="curve" smooth="yes"/>
      <point x="78.6689" y="26.3311"/>
      <point x="64.6689" y="35.9981"/>
      <point x="50.002" y="49.9981" type="curve" smooth="yes"/>
      <point x="29.335" y="70.6651"/>
      <point x="17.168" y="95.332"/>
      <point x="13.501" y="124" type="curve" smooth="yes"/>
      <point x="9.83398" y="152.667"/>
      <point x="8" y="238.334"/>
      <point x="8" y="381" type="curve" smooth="yes"/>
      <point x="8" y="523.667"/>
      <point x="9.833" y="609"/>
      <point x="13.5" y="637" type="curve" smooth="yes"/>
      <point x="17.167" y="665"/>
      <point x="29.334" y="689.333"/>
      <point x="50" y="710" type="curve"/>
    </contour>
    <contour>
      <point x="278" y="379.998" type="line"/>
      <point x="278.001" y="684.998" type="line"/>
      <point x="198.001" y="684.998" type="line" smooth="yes"/>
      <point x="175.334" y="684.998"/>
      <point x="154.167" y="682.998"/>
      <point x="134.5" y="678.998" type="curve" smooth="yes"/>
      <point x="114.833" y="674.998"/>
      <point x="102" y="670.331"/>
      <point x="96" y="664.998" type="curve"/>
      <point x="81.333" y="650.331"/>
      <point x="74" y="555.498"/>
      <point x="74" y="380.498" type="curve" smooth="yes"/>
      <point x="74" y="205.498"/>
      <point x="81.333" y="110.665"/>
      <point x="96" y="95.998" type="curve"/>
      <point x="102.667" y="90.665"/>
      <point x="115.667" y="86.165"/>
      <point x="135" y="82.498" type="curve" smooth="yes"/>
      <point x="154.333" y="78.8311"/>
      <point x="175.333" y="76.9981"/>
      <point x="198" y="76.9981" type="curve" smooth="yes"/>
      <point x="278" y="76.9981" type="line"/>
    </contour>
  </outline>
</glyph>
<glyph name="Kaddare-T" format="2">
  <advance width="606"/>
  <unicode hex="E001"/>
  <outline>
    <contour>
      <point x="52" y="711" type="line"/>
      <point x="67" y="726"/>
      <point x="80" y="736"/>
      <point x="93" y="741" type="curve" smooth="yes"/>
      <point x="106" y="746"/>
      <point x="126" y="750"/>
      <point x="152" y="751" type="curve" smooth="yes"/>
      <point x="178" y="752"/>
      <point x="226" y="753"/>
      <point x="297" y="753" type="curve" smooth="yes"/>
      <point x="368" y="753"/>
      <point x="417" y="752"/>
      <point x="443" y="751" type="curve" smooth="yes"/>
      <point x="469" y="750"/>
      <point x="488" y="746"/>
      <point x="501" y="741" type="curve" smooth="yes"/>
      <point x="514" y="736"/>
      <point x="528" y="726"/>
      <point x="543" y="711" type="curve" smooth="yes"/>
      <point x="564" y="690"/>
      <point x="576" y="665"/>
      <point x="579" y="636" type="curve" smooth="yes"/>
      <point x="583" y="607"/>
      <point x="585" y="517"/>
      <point x="585" y="366" type="curve" smooth="yes"/>
      <point x="585" y="309" type="line" smooth="yes"/>
      <point x="585" y="262"/>
      <point x="585" y="228"/>
      <point x="586" y="209" type="curve"/>
      <point x="586" y="190"/>
      <point x="584" y="165"/>
      <point x="580" y="136" type="curve" smooth="yes"/>
      <point x="577" y="107"/>
      <point x="574" y="89"/>
      <point x="573" y="80" type="curve" smooth="yes"/>
      <point x="572" y="72"/>
      <point x="566" y="61"/>
      <point x="555" y="47" type="curve" smooth="yes"/>
      <point x="544" y="33"/>
      <point x="535" y="25"/>
      <point x="528" y="23" type="curve" smooth="yes"/>
      <point x="521" y="22"/>
      <point x="507" y="19"/>
      <point x="484" y="14" type="curve" smooth="yes"/>
      <point x="461" y="10"/>
      <point x="441" y="8"/>
      <point x="425" y="8" type="curve"/>
      <point x="409" y="9"/>
      <point x="382" y="9"/>
      <point x="345" y="9" type="curve" smooth="yes"/>
      <point x="300" y="9" type="line" smooth="yes"/>
      <point x="229" y="9"/>
      <point x="180" y="10"/>
      <point x="154" y="11" type="curve" smooth="yes"/>
      <point x="127" y="13"/>
      <point x="107" y="17"/>
      <point x="94" y="22" type="curve" smooth="yes"/>
      <point x="81" y="27"/>
      <point x="67" y="37"/>
      <point x="52" y="51" type="curve" smooth="yes"/>
      <point x="31" y="72"/>
      <point x="19" y="96"/>
      <point x="16" y="125" type="curve" smooth="yes"/>
      <point x="12" y="154"/>
      <point x="10" y="239"/>
      <point x="10" y="382" type="curve" smooth="yes"/>
      <point x="10" y="525"/>
      <point x="12" y="610"/>
      <point x="16" y="638" type="curve" smooth="yes"/>
      <point x="19" y="666"/>
      <point x="31" y="690"/>
      <point x="52" y="711" type="curve"/>
    </contour>
    <contour>
      <point x="498" y="662" type="line"/>
      <point x="485" y="677"/>
      <point x="419" y="686"/>
      <point x="299" y="687" type="curve" smooth="yes"/>
      <point x="180" y="688"/>
      <point x="113" y="681"/>
      <point x="98" y="666" type="curve" smooth="yes"/>
      <point x="89" y="657"/>
      <point x="82" y="606"/>
      <point x="78" y="515" type="curve" smooth="yes"/>
      <point x="74" y="424"/>
      <point x="74" y="334"/>
      <point x="79" y="243" type="curve" smooth="yes"/>
      <point x="84" y="153"/>
      <point x="91" y="104"/>
      <point x="101" y="96" type="curve"/>
      <point x="116" y="83"/>
      <point x="188" y="77"/>
      <point x="316" y="80" type="curve" smooth="yes"/>
      <point x="508" y="86" type="line"/>
      <point x="514" y="363" type="line" smooth="yes"/>
      <point x="517" y="547"/>
      <point x="511" y="647"/>
      <point x="498" y="662" type="curve"/>
    </contour>
  </outline>
</glyph>
<glyph name="Kaddare-J" format="2">
  <advance width="585"/>
  <unicode hex="E002"/>
  <outline>
    <contour>
      <point x="25" y="717" type="line"/>
      <point x="25" y="733"/>
      <point x="38" y="743"/>
      <point x="64" y="746" type="curve" smooth="yes"/>
      <point x="90" y="749"/>
      <point x="168" y="750"/>
      <point x="297" y="750" type="curve" smooth="yes"/>
      <point x="450" y="750"/>
      <point x="534" y="747"/>
      <point x="550" y="742" type="curve" smooth="yes"/>
      <point x="561" y="739"/>
      <point x="565" y="730"/>
      <point x="563" y="717" type="curve"/>
      <point x="563" y="713" type="line"/>
      <point x="560" y="700"/>
      <point x="540" y="677"/>
      <point x="502" y="645" type="curve" smooth="yes"/>
      <point x="464" y="612"/>
      <point x="402" y="566"/>
      <point x="317" y="506" type="curve" smooth="yes"/>
      <point x="76" y="336" type="line"/>
      <point x="76" y="226" type="line" smooth="yes"/>
      <point x="76" y="154"/>
      <point x="80" y="110"/>
      <point x="89" y="94" type="curve"/>
      <point x="98" y="81"/>
      <point x="168" y="75"/>
      <point x="297" y="77" type="curve" smooth="yes"/>
      <point x="490" y="83" type="line"/>
      <point x="495" y="212" type="line" smooth="yes"/>
      <point x="496" y="261"/>
      <point x="496" y="296"/>
      <point x="493" y="317" type="curve" smooth="yes"/>
      <point x="490" y="338"/>
      <point x="484" y="353"/>
      <point x="473" y="362" type="curve" smooth="yes"/>
      <point x="457" y="375"/>
      <point x="449" y="393"/>
      <point x="448" y="414" type="curve"/>
      <point x="448" y="435"/>
      <point x="456" y="446"/>
      <point x="473" y="446" type="curve" smooth="yes"/>
      <point x="480" y="446"/>
      <point x="489" y="443"/>
      <point x="501" y="436" type="curve" smooth="yes"/>
      <point x="513" y="429"/>
      <point x="523" y="421"/>
      <point x="532" y="412" type="curve"/>
      <point x="547" y="397"/>
      <point x="556" y="379"/>
      <point x="560" y="357" type="curve"/>
      <point x="563" y="334"/>
      <point x="565" y="289"/>
      <point x="565" y="222" type="curve" smooth="yes"/>
      <point x="565" y="137"/>
      <point x="561" y="84"/>
      <point x="553" y="63" type="curve"/>
      <point x="542" y="36"/>
      <point x="515" y="19"/>
      <point x="473" y="12" type="curve" smooth="yes"/>
      <point x="446" y="8"/>
      <point x="387" y="6"/>
      <point x="295" y="6" type="curve" smooth="yes"/>
      <point x="288" y="6" type="line"/>
      <point x="215" y="6" type="line" smooth="yes"/>
      <point x="200" y="6"/>
      <point x="181" y="7"/>
      <point x="158" y="9" type="curve" smooth="yes"/>
      <point x="135" y="10"/>
      <point x="119" y="11"/>
      <point x="111" y="12" type="curve"/>
      <point x="103" y="12"/>
      <point x="92" y="15"/>
      <point x="77" y="20" type="curve" smooth="yes"/>
      <point x="62" y="25"/>
      <point x="54" y="29"/>
      <point x="51" y="31" type="curve" smooth="yes"/>
      <point x="48" y="34"/>
      <point x="42" y="40"/>
      <point x="35" y="50" type="curve" smooth="yes"/>
      <point x="27" y="61"/>
      <point x="23" y="69"/>
      <point x="23" y="75" type="curve"/>
      <point x="22" y="81"/>
      <point x="21" y="93"/>
      <point x="18" y="110" type="curve" smooth="yes"/>
      <point x="15" y="128"/>
      <point x="13" y="143"/>
      <point x="13" y="154" type="curve"/>
      <point x="12" y="165"/>
      <point x="12" y="184"/>
      <point x="11" y="209" type="curve"/>
      <point x="11" y="213" type="line"/>
      <point x="10" y="318"/>
      <point x="12" y="377"/>
      <point x="19" y="388" type="curve"/>
      <point x="26" y="397"/>
      <point x="98" y="448"/>
      <point x="237" y="540" type="curve" smooth="yes"/>
      <point x="439" y="675" type="line"/>
      <point x="233" y="680" type="line" smooth="yes"/>
      <point x="180" y="681"/>
      <point x="142" y="681"/>
      <point x="118" y="682" type="curve" smooth="yes"/>
      <point x="93" y="683"/>
      <point x="73" y="685"/>
      <point x="58" y="688" type="curve" smooth="yes"/>
      <point x="42" y="691"/>
      <point x="33" y="695"/>
      <point x="30" y="698" type="curve" smooth="yes"/>
      <point x="27" y="702"/>
      <point x="25" y="708"/>
      <point x="25" y="717" type="curve"/>
    </contour>
  </outline>
</glyph>
<glyph name="Kaddare-X" format="2">
  <advance width="596"/>
  <unicode hex="E003"/>
  <outline>
    <contour>
      <point x="52" y="710" type="line"/>
      <point x="65.333" y="724.667"/>
      <point x="78.832" y="734.662"/>
      <point x="92.499" y="739.995" type="curve" smooth="yes"/>
      <point x="106.166" y="745.328"/>
      <point x="126" y="748.661"/>
      <point x="152" y="749.994" type="curve" smooth="yes"/>
      <point x="178" y="751.327"/>
      <point x="226.167" y="751.994"/>
      <point x="296.5" y="751.994" type="curve" smooth="yes"/>
      <point x="366.833" y="751.994"/>
      <point x="415" y="751.327"/>
      <point x="441" y="749.994" type="curve" smooth="yes"/>
      <point x="467" y="748.661"/>
      <point x="486.833" y="745.328"/>
      <point x="500.5" y="739.995" type="curve" smooth="yes"/>
      <point x="514.167" y="734.662"/>
      <point x="527.667" y="724.662"/>
      <point x="541" y="709.995" type="curve"/>
      <point x="553" y="698.662"/>
      <point x="563.167" y="686.495"/>
      <point x="571.5" y="673.495" type="curve" smooth="yes"/>
      <point x="579.833" y="660.495"/>
      <point x="584" y="649.995"/>
      <point x="584" y="641.995" type="curve" smooth="yes"/>
      <point x="584" y="629.995"/>
      <point x="579" y="622.162"/>
      <point x="569" y="618.495" type="curve" smooth="yes"/>
      <point x="559" y="614.828"/>
      <point x="547.5" y="615.995"/>
      <point x="534.5" y="621.995" type="curve" smooth="yes"/>
      <point x="521.5" y="627.995"/>
      <point x="511" y="637.328"/>
      <point x="503" y="649.995" type="curve" smooth="yes"/>
      <point x="495.667" y="661.995"/>
      <point x="487.334" y="669.828"/>
      <point x="478" y="673.495" type="curve" smooth="yes"/>
      <point x="468.667" y="677.162"/>
      <point x="449.334" y="679.829"/>
      <point x="420" y="681.496" type="curve" smooth="yes"/>
      <point x="390.667" y="683.163"/>
      <point x="348" y="683.33"/>
      <point x="292" y="681.997" type="curve" smooth="yes"/>
      <point x="102" y="676.997" type="line"/>
      <point x="97" y="575.997" type="line" smooth="yes"/>
      <point x="93.667" y="514.664"/>
      <point x="100.5" y="472.331"/>
      <point x="117.5" y="448.998" type="curve" smooth="yes"/>
      <point x="134.5" y="425.665"/>
      <point x="167.333" y="413.998"/>
      <point x="216" y="413.998" type="curve" smooth="yes"/>
      <point x="242.667" y="413.998"/>
      <point x="260" y="411.998"/>
      <point x="268" y="407.998" type="curve" smooth="yes"/>
      <point x="276" y="403.998"/>
      <point x="280" y="394.665"/>
      <point x="280" y="379.998" type="curve" smooth="yes"/>
      <point x="280" y="366.665"/>
      <point x="275.667" y="357.832"/>
      <point x="267" y="353.499" type="curve" smooth="yes"/>
      <point x="258.333" y="349.166"/>
      <point x="241.333" y="347"/>
      <point x="216" y="347" type="curve" smooth="yes"/>
      <point x="163.333" y="347"/>
      <point x="129.5" y="337.333"/>
      <point x="114.5" y="318" type="curve" smooth="yes"/>
      <point x="99.5" y="298.667"/>
      <point x="93.667" y="257.334"/>
      <point x="97" y="194" type="curve" smooth="yes"/>
      <point x="102" y="85" type="line"/>
      <point x="301" y="79" type="line" smooth="yes"/>
      <point x="384.333" y="77.667"/>
      <point x="438.833" y="78.334"/>
      <point x="464.5" y="81.001" type="curve" smooth="yes"/>
      <point x="490.167" y="83.668"/>
      <point x="505.334" y="90.668"/>
      <point x="510" y="102.001" type="curve" smooth="yes"/>
      <point x="514.667" y="113.334"/>
      <point x="523" y="121.001"/>
      <point x="535" y="125.001" type="curve" smooth="yes"/>
      <point x="547" y="129.001"/>
      <point x="558.167" y="128.001"/>
      <point x="568.5" y="122.001" type="curve" smooth="yes"/>
      <point x="578.833" y="116.001"/>
      <point x="584" y="107.001"/>
      <point x="584" y="95.001" type="curve" smooth="yes"/>
      <point x="584" y="71.668"/>
      <point x="575.667" y="54.001"/>
      <point x="559" y="42.001" type="curve" smooth="yes"/>
      <point x="542.333" y="30.001"/>
      <point x="514" y="21.334"/>
      <point x="474" y="16.001" type="curve" smooth="yes"/>
      <point x="434" y="10.668"/>
      <point x="376" y="8.001"/>
      <point x="300" y="8.001" type="curve" smooth="yes"/>
      <point x="228" y="8.001"/>
      <point x="178.833" y="8.834"/>
      <point x="152.5" y="10.501" type="curve" smooth="yes"/>
      <point x="126.167" y="12.168"/>
      <point x="106.167" y="15.668"/>
      <point x="92.5" y="21.001" type="curve" smooth="yes"/>
      <point x="78.833" y="26.334"/>
      <point x="65.333" y="36.001"/>
      <point x="52" y="50.001" type="curve"/>
      <point x="33.333" y="67.334"/>
      <point x="21.666" y="85.167"/>
      <point x="17" y="103.5" type="curve" smooth="yes"/>
      <point x="12.333" y="121.833"/>
      <point x="10" y="155"/>
      <point x="10" y="203" type="curve" smooth="yes"/>
      <point x="10" y="247"/>
      <point x="12.167" y="278.5"/>
      <point x="16.5" y="297.5" type="curve" smooth="yes"/>
      <point x="20.833" y="316.5"/>
      <point x="29.666" y="333"/>
      <point x="43" y="347" type="curve" smooth="yes"/>
      <point x="78" y="382" type="line"/>
      <point x="43" y="426" type="line" smooth="yes"/>
      <point x="16.333" y="459.333"/>
      <point x="4" y="508"/>
      <point x="6" y="572" type="curve" smooth="yes"/>
      <point x="8" y="636"/>
      <point x="23.333" y="682"/>
      <point x="52" y="710" type="curve"/>
    </contour>
  </outline>
</glyph>
<glyph name="Kaddare-KH" format="2">
  <advance width="273"/>
  <unicode hex="E004"/>
  <outline>
    <contour>
      <point x="79" y="864" type="line"/>
      <point x="115.667" y="894.667"/>
      <point x="138" y="911.333"/>
      <point x="146" y="914" type="curve"/>
      <point x="152.667" y="914"/>
      <point x="173.667" y="895"/>
      <point x="209" y="857" type="curve" smooth="yes"/>
      <point x="239.667" y="825.667"/>
      <point x="252" y="803.667"/>
      <point x="246" y="791" type="curve" smooth="yes"/>
      <point x="240.667" y="779"/>
      <point x="224.334" y="784.333"/>
      <point x="197" y="807" type="curve"/>
      <point x="191.667" y="811"/>
      <point x="186" y="815.667"/>
      <point x="180" y="821" type="curve"/>
      <point x="136" y="864" type="line"/>
      <point x="96" y="822" type="line" smooth="yes"/>
      <point x="69.333" y="794.667"/>
      <point x="50.5" y="786.667"/>
      <point x="39.5" y="798" type="curve" smooth="yes"/>
      <point x="28.5" y="809.333"/>
      <point x="41.667" y="831.333"/>
      <point x="79" y="864" type="curve"/>
    </contour>
    <contour>
      <point x="30" y="700" type="line"/>
      <point x="30" y="714.667"/>
      <point x="35.833" y="723.665"/>
      <point x="47.5" y="726.998" type="curve" smooth="yes"/>
      <point x="59.167" y="730.331"/>
      <point x="89" y="731.998"/>
      <point x="137" y="731.998" type="curve" smooth="yes"/>
      <point x="185" y="731.998"/>
      <point x="214.833" y="730.331"/>
      <point x="226.5" y="726.998" type="curve" smooth="yes"/>
      <point x="238.167" y="723.665"/>
      <point x="244" y="714.665"/>
      <point x="244" y="699.998" type="curve" smooth="yes"/>
      <point x="244" y="677.331"/>
      <point x="233" y="665.998"/>
      <point x="211" y="665.998" type="curve" smooth="yes"/>
      <point x="195" y="665.998"/>
      <point x="185.5" y="652.331"/>
      <point x="182.5" y="624.998" type="curve" smooth="yes"/>
      <point x="179.5" y="597.665"/>
      <point x="178" y="512.998"/>
      <point x="178" y="370.998" type="curve" smooth="yes"/>
      <point x="178" y="74.998" type="line"/>
      <point x="220" y="74.998" type="line" smooth="yes"/>
      <point x="234.667" y="74.998"/>
      <point x="245" y="72.498"/>
      <point x="251" y="67.498" type="curve" smooth="yes"/>
      <point x="257" y="62.498"/>
      <point x="260" y="53.998"/>
      <point x="260" y="41.998" type="curve" smooth="yes"/>
      <point x="260" y="26.665"/>
      <point x="253.833" y="17.332"/>
      <point x="241.5" y="14" type="curve" smooth="yes"/>
      <point x="229.167" y="10.667"/>
      <point x="197" y="9"/>
      <point x="145" y="9" type="curve" smooth="yes"/>
      <point x="93" y="9"/>
      <point x="60.833" y="10.833"/>
      <point x="48.5" y="14.5" type="curve" smooth="yes"/>
      <point x="36.167" y="18.167"/>
      <point x="30" y="27.334"/>
      <point x="30" y="42" type="curve" smooth="yes"/>
      <point x="30" y="54"/>
      <point x="33.167" y="62.5"/>
      <point x="39.5" y="67.5" type="curve" smooth="yes"/>
      <point x="45.833" y="72.5"/>
      <point x="56.333" y="75"/>
      <point x="71" y="75" type="curve" smooth="yes"/>
      <point x="112" y="75" type="line"/>
      <point x="112" y="371" type="line"/>
      <point x="112" y="666" type="line"/>
      <point x="71" y="666" type="line" smooth="yes"/>
      <point x="56.333" y="666"/>
      <point x="45.833" y="668.5"/>
      <point x="39.5" y="673.5" type="curve" smooth="yes"/>
      <point x="33.167" y="678.5"/>
      <point x="30" y="687.333"/>
      <point x="30" y="700" type="curve"/>
    </contour>
  </outline>
</glyph>
<glyph name="Kaddare-D" format="2">
  <advance width="594"/>
  <unicode hex="E005"/>
  <outline>
    <contour>
      <point x="48" y="706" type="line"/>
      <point x="62.667" y="720.667"/>
      <point x="76.5" y="730.665"/>
      <point x="89.5" y="735.998" type="curve" smooth="yes"/>
      <point x="102.5" y="741.331"/>
      <point x="122" y="744.664"/>
      <point x="148" y="745.997" type="curve" smooth="yes"/>
      <point x="174" y="747.33"/>
      <point x="222.5" y="747.997"/>
      <point x="293.5" y="747.997" type="curve" smooth="yes"/>
      <point x="364.5" y="747.997"/>
      <point x="413" y="747.33"/>
      <point x="439" y="745.997" type="curve" smooth="yes"/>
      <point x="465" y="744.664"/>
      <point x="484.5" y="741.331"/>
      <point x="497.5" y="735.998" type="curve" smooth="yes"/>
      <point x="510.5" y="730.665"/>
      <point x="524.333" y="720.665"/>
      <point x="539" y="705.998" type="curve" smooth="yes"/>
      <point x="550.333" y="694.665"/>
      <point x="560.166" y="682.498"/>
      <point x="568.499" y="669.498" type="curve" smooth="yes"/>
      <point x="576.832" y="656.498"/>
      <point x="581" y="645.998"/>
      <point x="581" y="637.998" type="curve" smooth="yes"/>
      <point x="581" y="625.998"/>
      <point x="576" y="618.165"/>
      <point x="566" y="614.498" type="curve" smooth="yes"/>
      <point x="556" y="610.831"/>
      <point x="544.333" y="611.998"/>
      <point x="531" y="617.998" type="curve" smooth="yes"/>
      <point x="517.667" y="623.998"/>
      <point x="507" y="633.331"/>
      <point x="499" y="645.998" type="curve"/>
      <point x="490.333" y="661.331"/>
      <point x="475" y="670.998"/>
      <point x="453" y="674.998" type="curve" smooth="yes"/>
      <point x="431" y="678.998"/>
      <point x="378.667" y="680.998"/>
      <point x="296" y="680.998" type="curve" smooth="yes"/>
      <point x="174.667" y="680.998"/>
      <point x="107.334" y="674.331"/>
      <point x="94" y="660.998" type="curve" smooth="yes"/>
      <point x="79.333" y="646.331"/>
      <point x="72" y="551.498"/>
      <point x="72" y="376.498" type="curve" smooth="yes"/>
      <point x="72" y="201.498"/>
      <point x="79.333" y="106.665"/>
      <point x="94" y="91.9981" type="curve" smooth="yes"/>
      <point x="107.333" y="79.3311"/>
      <point x="177.666" y="72.9981"/>
      <point x="305" y="72.9981" type="curve" smooth="yes"/>
      <point x="382.333" y="72.9981"/>
      <point x="434.5" y="74.4981"/>
      <point x="461.5" y="77.4981" type="curve" smooth="yes"/>
      <point x="488.5" y="80.4981"/>
      <point x="503.333" y="87.3311"/>
      <point x="506" y="97.9981" type="curve"/>
      <point x="510.667" y="109.331"/>
      <point x="519.167" y="116.998"/>
      <point x="531.5" y="120.998" type="curve" smooth="yes"/>
      <point x="543.833" y="124.998"/>
      <point x="555.166" y="123.998"/>
      <point x="565.499" y="117.998" type="curve" smooth="yes"/>
      <point x="575.832" y="111.998"/>
      <point x="581" y="102.998"/>
      <point x="581" y="90.9981" type="curve" smooth="yes"/>
      <point x="581" y="67.665"/>
      <point x="572.5" y="49.9981"/>
      <point x="555.5" y="37.9981" type="curve" smooth="yes"/>
      <point x="538.5" y="25.9981"/>
      <point x="510" y="17.3311"/>
      <point x="470" y="11.9981" type="curve" smooth="yes"/>
      <point x="430" y="6.66505"/>
      <point x="372" y="3.99805"/>
      <point x="296" y="3.99805" type="curve" smooth="yes"/>
      <point x="224.667" y="3.99805"/>
      <point x="175.834" y="4.83105"/>
      <point x="149.501" y="6.49805" type="curve" smooth="yes"/>
      <point x="123.168" y="8.16505"/>
      <point x="103.335" y="11.665"/>
      <point x="90.002" y="16.9981" type="curve" smooth="yes"/>
      <point x="76.6689" y="22.3311"/>
      <point x="62.6689" y="31.9981"/>
      <point x="48.002" y="45.9981" type="curve" smooth="yes"/>
      <point x="27.335" y="66.665"/>
      <point x="15.168" y="91.332"/>
      <point x="11.501" y="120" type="curve" smooth="yes"/>
      <point x="7.83398" y="148.667"/>
      <point x="6" y="234.334"/>
      <point x="6" y="377" type="curve" smooth="yes"/>
      <point x="6" y="519.667"/>
      <point x="7.833" y="605"/>
      <point x="11.5" y="633" type="curve" smooth="yes"/>
      <point x="15.167" y="661"/>
      <point x="27.334" y="685.333"/>
      <point x="48" y="706" type="curve"/>
    </contour>
  </outline>
</glyph>
<glyph name="Kaddare-R" format="2">
  <advance width="605"/>
  <unicode hex="E006"/>
  <outline>
    <contour>
      <point x="47" y="733" type="line"/>
      <point x="61.667" y="747.667"/>
      <point x="142.327" y="755"/>
      <point x="288.994" y="755" type="curve" smooth="yes"/>
      <point x="435.661" y="755"/>
      <point x="516.328" y="747.667"/>
      <point x="530.995" y="733" type="curve" smooth="yes"/>
      <point x="536.328" y="727.667"/>
      <point x="540.995" y="715"/>
      <point x="544.995" y="695" type="curve" smooth="yes"/>
      <point x="548.995" y="675"/>
      <point x="550.995" y="653.667"/>
      <point x="550.995" y="631" type="curve" smooth="yes"/>
      <point x="550.995" y="596.333"/>
      <point x="548.995" y="574.333"/>
      <point x="544.995" y="565" type="curve" smooth="yes"/>
      <point x="540.995" y="555.667"/>
      <point x="531.828" y="551"/>
      <point x="517.495" y="551" type="curve" smooth="yes"/>
      <point x="503.162" y="551"/>
      <point x="493.829" y="555.167"/>
      <point x="489.496" y="563.5" type="curve" smooth="yes"/>
      <point x="485.163" y="571.833"/>
      <point x="482.996" y="590"/>
      <point x="482.996" y="618" type="curve" smooth="yes"/>
      <point x="482.996" y="686" type="line"/>
      <point x="406.996" y="686" type="line"/>
      <point x="331.996" y="686" type="line"/>
      <point x="331.996" y="567" type="line"/>
      <point x="331.996" y="449" type="line"/>
      <point x="418.996" y="449" type="line" smooth="yes"/>
      <point x="451.663" y="449"/>
      <point x="477.33" y="446.333"/>
      <point x="495.997" y="441" type="curve" smooth="yes"/>
      <point x="514.664" y="435.667"/>
      <point x="530.997" y="425.667"/>
      <point x="544.997" y="411" type="curve"/>
      <point x="563.664" y="395"/>
      <point x="574.997" y="376.833"/>
      <point x="578.997" y="356.5" type="curve" smooth="yes"/>
      <point x="582.997" y="336.167"/>
      <point x="584.997" y="290.334"/>
      <point x="584.997" y="219" type="curve" smooth="yes"/>
      <point x="584.997" y="130.5" type="line" smooth="yes"/>
      <point x="584.997" y="112.833"/>
      <point x="580.83" y="93.833"/>
      <point x="572.497" y="73.5" type="curve" smooth="yes"/>
      <point x="564.164" y="53.167"/>
      <point x="556.664" y="40.667"/>
      <point x="549.997" y="36" type="curve" smooth="yes"/>
      <point x="543.33" y="31.333"/>
      <point x="525.997" y="25.666"/>
      <point x="497.997" y="19" type="curve" smooth="yes"/>
      <point x="469.997" y="12.333"/>
      <point x="444.33" y="9"/>
      <point x="420.997" y="9" type="curve" smooth="yes"/>
      <point x="299.997" y="9" type="line" smooth="yes"/>
      <point x="228.664" y="9"/>
      <point x="179.831" y="9.833"/>
      <point x="153.498" y="11.5" type="curve" smooth="yes"/>
      <point x="127.165" y="13.167"/>
      <point x="107.332" y="16.667"/>
      <point x="94" y="22" type="curve" smooth="yes"/>
      <point x="80.667" y="27.333"/>
      <point x="66.667" y="37"/>
      <point x="52" y="51" type="curve" smooth="yes"/>
      <point x="33.333" y="69.667"/>
      <point x="21.666" y="88.834"/>
      <point x="17" y="108.501" type="curve" smooth="yes"/>
      <point x="12.333" y="128.168"/>
      <point x="10" y="167"/>
      <point x="10" y="225" type="curve" smooth="yes"/>
      <point x="10" y="280.333"/>
      <point x="12.333" y="319.5"/>
      <point x="17" y="342.5" type="curve" smooth="yes"/>
      <point x="21.667" y="365.5"/>
      <point x="31.334" y="386.333"/>
      <point x="46" y="405" type="curve" smooth="yes"/>
      <point x="61.333" y="423.667"/>
      <point x="76.333" y="435.667"/>
      <point x="91" y="441" type="curve" smooth="yes"/>
      <point x="105.667" y="446.333"/>
      <point x="132.667" y="449"/>
      <point x="172" y="449" type="curve" smooth="yes"/>
      <point x="263" y="449" type="line"/>
      <point x="263" y="567" type="line"/>
      <point x="263" y="686" type="line"/>
      <point x="188" y="686" type="line"/>
      <point x="112" y="686" type="line"/>
      <point x="112" y="618" type="line" smooth="yes"/>
      <point x="112" y="587.333"/>
      <point x="109.667" y="568.5"/>
      <point x="105" y="561.5" type="curve" smooth="yes"/>
      <point x="100.333" y="554.5"/>
      <point x="88.333" y="551"/>
      <point x="69" y="551" type="curve" smooth="yes"/>
      <point x="49.667" y="551"/>
      <point x="37.834" y="555"/>
      <point x="33.501" y="563" type="curve" smooth="yes"/>
      <point x="29.168" y="571"/>
      <point x="27" y="593.667"/>
      <point x="27" y="631" type="curve" smooth="yes"/>
      <point x="27" y="653.667"/>
      <point x="29" y="675"/>
      <point x="33" y="695" type="curve" smooth="yes"/>
      <point x="37" y="715"/>
      <point x="41.667" y="727.667"/>
      <point x="47" y="733" type="curve"/>
    </contour>
    <contour>
      <point x="497.993" y="357" type="line"/>
      <point x="485.326" y="372.333"/>
      <point x="419.16" y="380.669"/>
      <point x="299.493" y="382.002" type="curve" smooth="yes"/>
      <point x="179.826" y="383.335"/>
      <point x="112.659" y="376.335"/>
      <point x="97.9922" y="361.002" type="curve" smooth="yes"/>
      <point x="83.3252" y="346.335"/>
      <point x="76.3252" y="301.668"/>
      <point x="76.9922" y="227" type="curve" smooth="yes"/>
      <point x="77.6592" y="152.333"/>
      <point x="85.6592" y="108.666"/>
      <point x="100.992" y="96" type="curve" smooth="yes"/>
      <point x="116.325" y="82.667"/>
      <point x="187.992" y="77.334"/>
      <point x="315.992" y="80" type="curve" smooth="yes"/>
      <point x="507.992" y="86" type="line"/>
      <point x="513.992" y="209" type="line" smooth="yes"/>
      <point x="516.659" y="290.333"/>
      <point x="511.326" y="339.666"/>
      <point x="497.993" y="357" type="curve"/>
    </contour>
  </outline>
</glyph>
<glyph name="Kaddare-S" format="2">
  <advance width="588"/>
  <unicode hex="E007"/>
  <outline>
    <contour>
      <point x="125" y="717" type="line"/>
      <point x="125" y="733"/>
      <point x="133.498" y="742.498"/>
      <point x="150.498" y="745.498" type="curve" smooth="yes"/>
      <point x="167.498" y="748.498"/>
      <point x="217.831" y="749.998"/>
      <point x="301.498" y="749.998" type="curve" smooth="yes"/>
      <point x="385.165" y="749.998"/>
      <point x="435.665" y="748.498"/>
      <point x="452.998" y="745.498" type="curve" smooth="yes"/>
      <point x="470.331" y="742.498"/>
      <point x="478.998" y="732.998"/>
      <point x="478.998" y="716.998" type="curve" smooth="yes"/>
      <point x="478.998" y="702.331"/>
      <point x="474.331" y="692.998"/>
      <point x="464.998" y="688.998" type="curve" smooth="yes"/>
      <point x="455.665" y="684.998"/>
      <point x="434.998" y="682.998"/>
      <point x="402.998" y="682.998" type="curve" smooth="yes"/>
      <point x="327.998" y="682.998" type="line"/>
      <point x="327.998" y="563.998" type="line"/>
      <point x="327.998" y="445.998" type="line"/>
      <point x="418.998" y="445.998" type="line" smooth="yes"/>
      <point x="458.331" y="445.998"/>
      <point x="485.331" y="443.331"/>
      <point x="499.998" y="437.998" type="curve" smooth="yes"/>
      <point x="514.665" y="432.665"/>
      <point x="529.665" y="420.665"/>
      <point x="544.998" y="401.998" type="curve"/>
      <point x="559.665" y="382.665"/>
      <point x="569.332" y="361.332"/>
      <point x="574" y="338" type="curve" smooth="yes"/>
      <point x="578.667" y="314.667"/>
      <point x="581" y="274"/>
      <point x="581" y="216" type="curve" smooth="yes"/>
      <point x="581" y="156"/>
      <point x="579" y="115.333"/>
      <point x="575" y="94" type="curve" smooth="yes"/>
      <point x="571" y="72.667"/>
      <point x="561.667" y="54.667"/>
      <point x="547" y="40" type="curve" smooth="yes"/>
      <point x="525.667" y="19.333"/>
      <point x="487.834" y="8"/>
      <point x="433.501" y="6" type="curve" smooth="yes"/>
      <point x="379.168" y="4"/>
      <point x="344" y="12.667"/>
      <point x="328" y="32" type="curve" smooth="yes"/>
      <point x="318.667" y="43.333"/>
      <point x="310.667" y="48.833"/>
      <point x="304" y="48.5" type="curve" smooth="yes"/>
      <point x="297.333" y="48.167"/>
      <point x="286.333" y="42.667"/>
      <point x="271" y="32" type="curve" smooth="yes"/>
      <point x="241.667" y="12"/>
      <point x="203.167" y="3.66699"/>
      <point x="155.5" y="7" type="curve" smooth="yes"/>
      <point x="107.833" y="10.333"/>
      <point x="72" y="24"/>
      <point x="48" y="48" type="curve" smooth="yes"/>
      <point x="29.333" y="66.667"/>
      <point x="17.666" y="85.834"/>
      <point x="13" y="105.501" type="curve" smooth="yes"/>
      <point x="8.33301" y="125.168"/>
      <point x="6" y="164"/>
      <point x="6" y="222" type="curve" smooth="yes"/>
      <point x="6" y="277.333"/>
      <point x="8.333" y="316.5"/>
      <point x="13" y="339.5" type="curve" smooth="yes"/>
      <point x="17.667" y="362.5"/>
      <point x="27.334" y="383.333"/>
      <point x="42" y="402" type="curve" smooth="yes"/>
      <point x="57.333" y="420.667"/>
      <point x="72.333" y="432.667"/>
      <point x="87" y="438" type="curve" smooth="yes"/>
      <point x="101.667" y="443.333"/>
      <point x="128.667" y="446"/>
      <point x="168" y="446" type="curve" smooth="yes"/>
      <point x="259" y="446" type="line"/>
      <point x="259" y="564" type="line"/>
      <point x="259" y="683" type="line"/>
      <point x="192" y="683" type="line" smooth="yes"/>
      <point x="164" y="683"/>
      <point x="145.833" y="685"/>
      <point x="137.5" y="689" type="curve" smooth="yes"/>
      <point x="129.167" y="693"/>
      <point x="125" y="702.333"/>
      <point x="125" y="717" type="curve"/>
    </contour>
    <contour>
      <point x="258.998" y="245.998" type="line"/>
      <point x="258.997" y="377.998" type="line"/>
      <point x="186.997" y="377.998" type="line" smooth="yes"/>
      <point x="138.33" y="377.998"/>
      <point x="107.163" y="371.331"/>
      <point x="93.4961" y="357.998" type="curve" smooth="yes"/>
      <point x="79.8291" y="344.665"/>
      <point x="72.9961" y="300.665"/>
      <point x="72.9961" y="225.998" type="curve" smooth="yes"/>
      <point x="72.9961" y="151.331"/>
      <point x="79.8291" y="107.498"/>
      <point x="93.4961" y="94.498" type="curve" smooth="yes"/>
      <point x="107.163" y="81.498"/>
      <point x="131.33" y="74.998"/>
      <point x="165.997" y="74.998" type="curve" smooth="yes"/>
      <point x="200.664" y="74.998"/>
      <point x="224.831" y="81.498"/>
      <point x="238.498" y="94.498" type="curve" smooth="yes"/>
      <point x="252.165" y="107.498"/>
      <point x="258.998" y="157.998"/>
      <point x="258.998" y="245.998" type="curve"/>
    </contour>
    <contour>
      <point x="493.997" y="353.998" type="line"/>
      <point x="488.664" y="361.331"/>
      <point x="477.163" y="367.166"/>
      <point x="459.496" y="371.499" type="curve" smooth="yes"/>
      <point x="441.829" y="375.832"/>
      <point x="422.662" y="378"/>
      <point x="401.995" y="378" type="curve" smooth="yes"/>
      <point x="327.995" y="378" type="line"/>
      <point x="327.995" y="245" type="line" smooth="yes"/>
      <point x="327.995" y="204.333"/>
      <point x="328.995" y="173.333"/>
      <point x="330.995" y="152" type="curve" smooth="yes"/>
      <point x="332.995" y="130.667"/>
      <point x="338.328" y="113.667"/>
      <point x="346.995" y="101" type="curve" smooth="yes"/>
      <point x="355.662" y="88.333"/>
      <point x="366.829" y="80.833"/>
      <point x="380.496" y="78.5" type="curve" smooth="yes"/>
      <point x="394.163" y="76.167"/>
      <point x="413.996" y="75.667"/>
      <point x="439.996" y="77" type="curve"/>
      <point x="503.996" y="83" type="line"/>
      <point x="509.996" y="206" type="line" smooth="yes"/>
      <point x="512.663" y="287.333"/>
      <point x="507.33" y="336.666"/>
      <point x="493.997" y="354" type="curve"/>
    </contour>
  </outline>
</glyph>
<glyph name="Kaddare-SH" format="2">
  <advance width="600"/>
  <unicode hex="E008"/>
  <outline>
    <contour>
      <point x="52" y="708" type="line"/>
      <point x="63.333" y="719.333"/>
      <point x="75.4971" y="729.165"/>
      <point x="88.4971" y="737.498" type="curve" smooth="yes"/>
      <point x="101.497" y="745.831"/>
      <point x="111.997" y="749.998"/>
      <point x="119.997" y="749.998" type="curve" smooth="yes"/>
      <point x="131.33" y="749.998"/>
      <point x="138.997" y="744.998"/>
      <point x="142.997" y="734.998" type="curve" smooth="yes"/>
      <point x="146.997" y="724.998"/>
      <point x="145.997" y="713.498"/>
      <point x="139.997" y="700.498" type="curve" smooth="yes"/>
      <point x="133.997" y="687.498"/>
      <point x="124.664" y="676.998"/>
      <point x="111.997" y="668.998" type="curve"/>
      <point x="95.9971" y="660.331"/>
      <point x="86.1641" y="641.331"/>
      <point x="82.4971" y="611.998" type="curve" smooth="yes"/>
      <point x="78.8301" y="582.665"/>
      <point x="76.9971" y="504.332"/>
      <point x="76.9971" y="377" type="curve" smooth="yes"/>
      <point x="76.9971" y="105" type="line"/>
      <point x="182.997" y="200" type="line" smooth="yes"/>
      <point x="251.664" y="263.333"/>
      <point x="290.664" y="294.666"/>
      <point x="299.997" y="294" type="curve"/>
      <point x="304.664" y="294"/>
      <point x="318.664" y="284.5"/>
      <point x="341.997" y="265.5" type="curve" smooth="yes"/>
      <point x="365.33" y="246.5"/>
      <point x="390.33" y="223.667"/>
      <point x="416.997" y="197" type="curve"/>
      <point x="517.997" y="102" type="line"/>
      <point x="517.997" y="375" type="line" smooth="yes"/>
      <point x="517.997" y="503.667"/>
      <point x="516.164" y="582.667"/>
      <point x="512.497" y="612" type="curve" smooth="yes"/>
      <point x="508.83" y="641.333"/>
      <point x="498.997" y="660.333"/>
      <point x="482.997" y="669" type="curve"/>
      <point x="470.33" y="677"/>
      <point x="460.997" y="687.5"/>
      <point x="454.997" y="700.5" type="curve" smooth="yes"/>
      <point x="448.997" y="713.5"/>
      <point x="447.664" y="725"/>
      <point x="450.997" y="735" type="curve" smooth="yes"/>
      <point x="454.33" y="745"/>
      <point x="461.997" y="750"/>
      <point x="473.997" y="750" type="curve" smooth="yes"/>
      <point x="481.997" y="750"/>
      <point x="492.664" y="745.833"/>
      <point x="505.997" y="737.5" type="curve" smooth="yes"/>
      <point x="519.33" y="729.167"/>
      <point x="531.663" y="719.334"/>
      <point x="542.996" y="708" type="curve" smooth="yes"/>
      <point x="563.663" y="687.333"/>
      <point x="575.83" y="661.5"/>
      <point x="579.497" y="630.5" type="curve" smooth="yes"/>
      <point x="583.164" y="599.5"/>
      <point x="584.997" y="501.333"/>
      <point x="584.997" y="336" type="curve" smooth="yes"/>
      <point x="584.997" y="168.667"/>
      <point x="580.997" y="70"/>
      <point x="572.997" y="40" type="curve"/>
      <point x="565.664" y="8.66699"/>
      <point x="549.997" y="-1.33301"/>
      <point x="525.997" y="10" type="curve" smooth="yes"/>
      <point x="508.664" y="18.667"/>
      <point x="469.331" y="51.334"/>
      <point x="407.998" y="108" type="curve" smooth="yes"/>
      <point x="298.998" y="212" type="line"/>
      <point x="191.998" y="110" type="line" smooth="yes"/>
      <point x="159.998" y="78.667"/>
      <point x="130.831" y="53.5"/>
      <point x="104.498" y="34.5" type="curve" smooth="yes"/>
      <point x="78.1651" y="15.5"/>
      <point x="59.332" y="6"/>
      <point x="48" y="6" type="curve" smooth="yes"/>
      <point x="10" y="6" type="line"/>
      <point x="10" y="336" type="line" smooth="yes"/>
      <point x="10" y="500.667"/>
      <point x="11.833" y="598.667"/>
      <point x="15.5" y="630" type="curve" smooth="yes"/>
      <point x="19.167" y="661.333"/>
      <point x="31.334" y="687.333"/>
      <point x="52" y="708" type="curve"/>
    </contour>
  </outline>
</glyph>
<glyph name="Kaddare-DH" format="2">
  <advance width="612"/>
  <unicode hex="E009"/>
  <outline>
    <contour>
      <point x="60" y="711" type="line"/>
      <point x="74.667" y="725.667"/>
      <point x="88.668" y="735.666"/>
      <point x="102" y="741" type="curve" smooth="yes"/>
      <point x="115.333" y="746.333"/>
      <point x="135.333" y="749.666"/>
      <point x="162" y="751" type="curve" smooth="yes"/>
      <point x="188.667" y="752.333"/>
      <point x="238.667" y="753"/>
      <point x="312" y="753" type="curve" smooth="yes"/>
      <point x="333" y="753" type="line" smooth="yes"/>
      <point x="373.667" y="753"/>
      <point x="402.5" y="753.333"/>
      <point x="419.5" y="754" type="curve" smooth="yes"/>
      <point x="436.5" y="754.667"/>
      <point x="457.333" y="752.334"/>
      <point x="482" y="747" type="curve" smooth="yes"/>
      <point x="506.667" y="741.667"/>
      <point x="522.667" y="738"/>
      <point x="530" y="736" type="curve" smooth="yes"/>
      <point x="537.333" y="734"/>
      <point x="547" y="725"/>
      <point x="559" y="709" type="curve" smooth="yes"/>
      <point x="571" y="693"/>
      <point x="577.833" y="680.167"/>
      <point x="579.5" y="670.5" type="curve" smooth="yes"/>
      <point x="581.167" y="660.833"/>
      <point x="583.667" y="639.833"/>
      <point x="587" y="607.5" type="curve" smooth="yes"/>
      <point x="590.333" y="575.167"/>
      <point x="592" y="547.667"/>
      <point x="592" y="525" type="curve" smooth="yes"/>
      <point x="592" y="410" type="line"/>
      <point x="592" y="378" type="line" smooth="yes"/>
      <point x="592" y="237.333"/>
      <point x="590.333" y="153"/>
      <point x="587" y="125" type="curve" smooth="yes"/>
      <point x="583.667" y="97"/>
      <point x="571" y="72.333"/>
      <point x="549" y="51" type="curve"/>
      <point x="535.667" y="36.333"/>
      <point x="522.167" y="26.5"/>
      <point x="508.5" y="21.5" type="curve" smooth="yes"/>
      <point x="494.833" y="16.5"/>
      <point x="474.333" y="13.167"/>
      <point x="447" y="11.5" type="curve" smooth="yes"/>
      <point x="419.667" y="9.83299"/>
      <point x="369.334" y="9"/>
      <point x="296" y="9" type="curve" smooth="yes"/>
      <point x="201.333" y="9"/>
      <point x="140.666" y="10.833"/>
      <point x="114" y="14.5" type="curve" smooth="yes"/>
      <point x="87.333" y="18.167"/>
      <point x="66.333" y="27.667"/>
      <point x="51" y="43" type="curve"/>
      <point x="37.667" y="57.667"/>
      <point x="28.334" y="71.334"/>
      <point x="23" y="84" type="curve" smooth="yes"/>
      <point x="17.667" y="96.667"/>
      <point x="17.167" y="107.167"/>
      <point x="21.5" y="115.5" type="curve" smooth="yes"/>
      <point x="25.833" y="123.833"/>
      <point x="35.333" y="128"/>
      <point x="50" y="128" type="curve" smooth="yes"/>
      <point x="58" y="128"/>
      <point x="66" y="125.5"/>
      <point x="74" y="120.5" type="curve" smooth="yes"/>
      <point x="82" y="115.5"/>
      <point x="88" y="109.667"/>
      <point x="92" y="103" type="curve"/>
      <point x="95.333" y="92.333"/>
      <point x="110.166" y="85.5"/>
      <point x="136.499" y="82.5" type="curve" smooth="yes"/>
      <point x="162.832" y="79.5"/>
      <point x="214.665" y="78"/>
      <point x="291.998" y="78" type="curve" smooth="yes"/>
      <point x="419.998" y="78"/>
      <point x="490.665" y="84.5"/>
      <point x="503.998" y="97.5" type="curve" smooth="yes"/>
      <point x="517.331" y="110.5"/>
      <point x="523.998" y="161"/>
      <point x="523.998" y="249" type="curve" smooth="yes"/>
      <point x="523.998" y="381" type="line"/>
      <point x="312.998" y="381" type="line" smooth="yes"/>
      <point x="239.665" y="381"/>
      <point x="189.498" y="381.833"/>
      <point x="162.498" y="383.5" type="curve" smooth="yes"/>
      <point x="135.498" y="385.167"/>
      <point x="115.165" y="388.667"/>
      <point x="101.498" y="394" type="curve" smooth="yes"/>
      <point x="87.8311" y="399.333"/>
      <point x="73.998" y="409"/>
      <point x="59.998" y="423" type="curve" smooth="yes"/>
      <point x="29.3311" y="452.333"/>
      <point x="13.998" y="500.333"/>
      <point x="13.998" y="567" type="curve" smooth="yes"/>
      <point x="13.998" y="633.667"/>
      <point x="29.3311" y="681.667"/>
      <point x="59.998" y="711" type="curve"/>
    </contour>
    <contour>
      <point x="504" y="666" type="line"/>
      <point x="491.333" y="679.333"/>
      <point x="425.167" y="685.998"/>
      <point x="305.5" y="685.998" type="curve" smooth="yes"/>
      <point x="185.833" y="685.998"/>
      <point x="119" y="679.331"/>
      <point x="105" y="665.998" type="curve"/>
      <point x="99.667" y="659.331"/>
      <point x="95" y="646.164"/>
      <point x="91" y="626.497" type="curve" smooth="yes"/>
      <point x="87" y="606.83"/>
      <point x="85" y="585.997"/>
      <point x="85" y="563.997" type="curve" smooth="yes"/>
      <point x="85" y="527.997"/>
      <point x="87.5" y="504.33"/>
      <point x="92.5" y="492.997" type="curve" smooth="yes"/>
      <point x="97.5" y="481.664"/>
      <point x="109.667" y="472.331"/>
      <point x="129" y="464.998" type="curve"/>
      <point x="155.667" y="453.665"/>
      <point x="229" y="448.332"/>
      <point x="349" y="449" type="curve"/>
      <point x="524" y="449" type="line"/>
      <point x="524" y="547" type="line" smooth="yes"/>
      <point x="524" y="574.333"/>
      <point x="522.333" y="599.333"/>
      <point x="519" y="622" type="curve" smooth="yes"/>
      <point x="515.667" y="644.667"/>
      <point x="510.667" y="659.334"/>
      <point x="504" y="666" type="curve"/>
    </contour>
  </outline>
</glyph>
<glyph name="Kaddare-C" format="2">
  <advance width="605"/>
  <unicode hex="E00A"/>
  <outline>
    <contour>
      <point x="27" y="720" type="line"/>
      <point x="27" y="735.333"/>
      <point x="32.499" y="744.666"/>
      <point x="43.499" y="748" type="curve" smooth="yes"/>
      <point x="54.499" y="751.333"/>
      <point x="82.666" y="753"/>
      <point x="128" y="753" type="curve" smooth="yes"/>
      <point x="173.333" y="753"/>
      <point x="201.666" y="751.333"/>
      <point x="213" y="748" type="curve" smooth="yes"/>
      <point x="224.333" y="744.667"/>
      <point x="230" y="735.334"/>
      <point x="230" y="720" type="curve" smooth="yes"/>
      <point x="230" y="697.333"/>
      <point x="218.667" y="686"/>
      <point x="196" y="686" type="curve" smooth="yes"/>
      <point x="180.667" y="686"/>
      <point x="171.167" y="679.667"/>
      <point x="167.5" y="667" type="curve" smooth="yes"/>
      <point x="163.833" y="654.333"/>
      <point x="162" y="621"/>
      <point x="162" y="567" type="curve" smooth="yes"/>
      <point x="162" y="449" type="line"/>
      <point x="305" y="449" type="line"/>
      <point x="449" y="449" type="line"/>
      <point x="449" y="567" type="line" smooth="yes"/>
      <point x="449" y="624.333"/>
      <point x="447" y="658.5"/>
      <point x="443" y="669.5" type="curve" smooth="yes"/>
      <point x="439" y="680.5"/>
      <point x="427" y="686"/>
      <point x="407" y="686" type="curve" smooth="yes"/>
      <point x="391.667" y="686"/>
      <point x="380.834" y="688.5"/>
      <point x="374.501" y="693.5" type="curve" smooth="yes"/>
      <point x="368.168" y="698.5"/>
      <point x="365" y="707.333"/>
      <point x="365" y="720" type="curve" smooth="yes"/>
      <point x="365" y="735.333"/>
      <point x="370.667" y="744.666"/>
      <point x="382" y="748" type="curve" smooth="yes"/>
      <point x="393.333" y="751.333"/>
      <point x="421.5" y="753"/>
      <point x="466.5" y="753" type="curve" smooth="yes"/>
      <point x="511.5" y="753"/>
      <point x="539.667" y="751.333"/>
      <point x="551" y="748" type="curve" smooth="yes"/>
      <point x="562.333" y="744.667"/>
      <point x="568" y="735.334"/>
      <point x="568" y="720" type="curve" smooth="yes"/>
      <point x="568" y="710.667"/>
      <point x="565.333" y="702.667"/>
      <point x="560" y="696" type="curve" smooth="yes"/>
      <point x="554.667" y="689.333"/>
      <point x="549" y="686"/>
      <point x="543" y="686" type="curve" smooth="yes"/>
      <point x="529.667" y="686"/>
      <point x="520.667" y="666.5"/>
      <point x="516" y="627.5" type="curve" smooth="yes"/>
      <point x="511.333" y="588.5"/>
      <point x="512.5" y="546"/>
      <point x="519.5" y="500" type="curve" smooth="yes"/>
      <point x="526.5" y="454"/>
      <point x="537" y="421.667"/>
      <point x="551" y="403" type="curve" smooth="yes"/>
      <point x="564.333" y="385.667"/>
      <point x="573.333" y="365"/>
      <point x="578" y="341" type="curve" smooth="yes"/>
      <point x="582.667" y="317"/>
      <point x="585" y="273.667"/>
      <point x="585" y="211" type="curve" smooth="yes"/>
      <point x="585" y="171.667"/>
      <point x="584.833" y="143.5"/>
      <point x="584.5" y="126.5" type="curve" smooth="yes"/>
      <point x="584.167" y="109.5"/>
      <point x="580" y="91.333"/>
      <point x="572" y="72" type="curve" smooth="yes"/>
      <point x="564" y="52.667"/>
      <point x="556.333" y="40.334"/>
      <point x="549" y="35" type="curve" smooth="yes"/>
      <point x="541.667" y="29.667"/>
      <point x="524.667" y="24.334"/>
      <point x="498" y="19" type="curve" smooth="yes"/>
      <point x="471.333" y="13.667"/>
      <point x="445.5" y="10.667"/>
      <point x="420.5" y="10" type="curve" smooth="yes"/>
      <point x="395.5" y="9.333"/>
      <point x="355.333" y="9"/>
      <point x="300" y="9" type="curve" smooth="yes"/>
      <point x="228.667" y="9"/>
      <point x="179.834" y="9.833"/>
      <point x="153.501" y="11.5" type="curve" smooth="yes"/>
      <point x="127.168" y="13.167"/>
      <point x="107.335" y="16.667"/>
      <point x="94.002" y="22" type="curve" smooth="yes"/>
      <point x="80.6689" y="27.333"/>
      <point x="66.6689" y="37"/>
      <point x="52.002" y="51" type="curve" smooth="yes"/>
      <point x="33.335" y="69.667"/>
      <point x="21.668" y="88.834"/>
      <point x="17" y="108.501" type="curve" smooth="yes"/>
      <point x="12.333" y="128.168"/>
      <point x="10" y="168"/>
      <point x="10" y="228" type="curve" smooth="yes"/>
      <point x="10" y="287.333"/>
      <point x="12.333" y="327.333"/>
      <point x="17" y="348" type="curve" smooth="yes"/>
      <point x="21.667" y="368.667"/>
      <point x="33.334" y="389.667"/>
      <point x="52" y="411" type="curve"/>
      <point x="69.333" y="432.333"/>
      <point x="80.666" y="453.166"/>
      <point x="86" y="473.499" type="curve" smooth="yes"/>
      <point x="91.333" y="493.832"/>
      <point x="94" y="527.665"/>
      <point x="94" y="574.998" type="curve" smooth="yes"/>
      <point x="94" y="624.331"/>
      <point x="92.167" y="655.164"/>
      <point x="88.5" y="667.497" type="curve" smooth="yes"/>
      <point x="84.833" y="679.83"/>
      <point x="75.333" y="685.997"/>
      <point x="60" y="685.997" type="curve" smooth="yes"/>
      <point x="38" y="685.997"/>
      <point x="27" y="697.33"/>
      <point x="27" y="719.997" type="curve"/>
    </contour>
    <contour>
      <point x="498" y="357" type="line"/>
      <point x="485.333" y="372.333"/>
      <point x="419.167" y="380.669"/>
      <point x="299.5" y="382.002" type="curve" smooth="yes"/>
      <point x="179.833" y="383.335"/>
      <point x="112.666" y="376.335"/>
      <point x="98" y="361.002" type="curve" smooth="yes"/>
      <point x="83.333" y="346.335"/>
      <point x="76.333" y="301.668"/>
      <point x="77" y="227" type="curve" smooth="yes"/>
      <point x="77.667" y="152.333"/>
      <point x="85.667" y="108.666"/>
      <point x="101" y="96" type="curve" smooth="yes"/>
      <point x="116.333" y="82.667"/>
      <point x="188" y="77.334"/>
      <point x="316" y="80" type="curve" smooth="yes"/>
      <point x="508" y="86" type="line"/>
      <point x="514" y="209" type="line" smooth="yes"/>
      <point x="516.667" y="290.333"/>
      <point x="511.334" y="339.666"/>
      <point x="498" y="357" type="curve"/>
    </contour>
  </outline>
</glyph>
<glyph name="Kaddare-G" format="2">
  <advance width="596"/>
  <unicode hex="E00B"/>
  <outline>
    <contour>
      <point x="52" y="699" type="line"/>
      <point x="70.667" y="718.333"/>
      <point x="90.333" y="730.171"/>
      <point x="111" y="734.504" type="curve" smooth="yes"/>
      <point x="131.667" y="738.837"/>
      <point x="178.334" y="741.004"/>
      <point x="251" y="741.004" type="curve" smooth="yes"/>
      <point x="410" y="741.004" type="line"/>
      <point x="410" y="610.004" type="line" smooth="yes"/>
      <point x="410" y="571.337"/>
      <point x="411" y="541.67"/>
      <point x="413" y="521.003" type="curve" smooth="yes"/>
      <point x="415" y="500.336"/>
      <point x="419.667" y="483.669"/>
      <point x="427" y="471.002" type="curve" smooth="yes"/>
      <point x="434.333" y="458.335"/>
      <point x="443.666" y="450.168"/>
      <point x="455" y="446.501" type="curve" smooth="yes"/>
      <point x="466.333" y="442.834"/>
      <point x="483" y="441"/>
      <point x="505" y="441" type="curve" smooth="yes"/>
      <point x="527" y="441"/>
      <point x="541.667" y="438.667"/>
      <point x="549" y="434" type="curve" smooth="yes"/>
      <point x="556.333" y="429.333"/>
      <point x="560" y="420.666"/>
      <point x="560" y="408" type="curve" smooth="yes"/>
      <point x="560" y="393.333"/>
      <point x="555.5" y="384"/>
      <point x="546.5" y="380" type="curve" smooth="yes"/>
      <point x="537.5" y="376"/>
      <point x="517.333" y="374"/>
      <point x="486" y="374" type="curve" smooth="yes"/>
      <point x="434" y="374"/>
      <point x="397.333" y="388.667"/>
      <point x="376" y="418" type="curve" smooth="yes"/>
      <point x="354.667" y="447.333"/>
      <point x="344" y="497"/>
      <point x="344" y="567" type="curve" smooth="yes"/>
      <point x="344" y="674" type="line"/>
      <point x="230" y="674" type="line" smooth="yes"/>
      <point x="154.667" y="674"/>
      <point x="110" y="667.333"/>
      <point x="96" y="654" type="curve" smooth="yes"/>
      <point x="82.667" y="640.667"/>
      <point x="76" y="547.5"/>
      <point x="76" y="374.5" type="curve" smooth="yes"/>
      <point x="76" y="201.5"/>
      <point x="82.667" y="108"/>
      <point x="96" y="94" type="curve" smooth="yes"/>
      <point x="109.333" y="80.667"/>
      <point x="179" y="74"/>
      <point x="305" y="74" type="curve" smooth="yes"/>
      <point x="381" y="74"/>
      <point x="432.167" y="75.667"/>
      <point x="458.5" y="79" type="curve" smooth="yes"/>
      <point x="484.833" y="82.333"/>
      <point x="499.666" y="89"/>
      <point x="503" y="99" type="curve"/>
      <point x="507.667" y="110.333"/>
      <point x="516" y="118"/>
      <point x="528" y="122" type="curve" smooth="yes"/>
      <point x="540" y="126"/>
      <point x="551" y="125.167"/>
      <point x="561" y="119.5" type="curve" smooth="yes"/>
      <point x="571" y="113.833"/>
      <point x="576" y="104.666"/>
      <point x="576" y="92" type="curve" smooth="yes"/>
      <point x="576" y="69.333"/>
      <point x="567.833" y="52"/>
      <point x="551.5" y="40" type="curve" smooth="yes"/>
      <point x="535.167" y="28"/>
      <point x="507.5" y="19.5"/>
      <point x="468.5" y="14.5" type="curve" smooth="yes"/>
      <point x="429.5" y="9.5"/>
      <point x="372.333" y="7"/>
      <point x="297" y="7" type="curve" smooth="yes"/>
      <point x="225.667" y="7"/>
      <point x="177" y="8"/>
      <point x="151" y="10" type="curve" smooth="yes"/>
      <point x="125" y="12"/>
      <point x="105.333" y="15.333"/>
      <point x="92" y="20" type="curve" smooth="yes"/>
      <point x="78.667" y="24.667"/>
      <point x="65.334" y="34.334"/>
      <point x="52" y="49" type="curve"/>
      <point x="31.333" y="69"/>
      <point x="19.166" y="93"/>
      <point x="15.499" y="121" type="curve" smooth="yes"/>
      <point x="11.832" y="149"/>
      <point x="10" y="233.333"/>
      <point x="10" y="374" type="curve" smooth="yes"/>
      <point x="10" y="514.667"/>
      <point x="11.833" y="599"/>
      <point x="15.5" y="627" type="curve" smooth="yes"/>
      <point x="19.167" y="655"/>
      <point x="31.334" y="679"/>
      <point x="52" y="699" type="curve"/>
    </contour>
  </outline>
</glyph>
<glyph name="Kaddare-F" format="2">
  <advance width="544"/>
  <unicode hex="E00C"/>
  <outline>
    <contour>
      <point x="4" y="707" type="line"/>
      <point x="4" y="722.333"/>
      <point x="10.334" y="731.667"/>
      <point x="23" y="735" type="curve" smooth="yes"/>
      <point x="35.667" y="738.333"/>
      <point x="68.334" y="740"/>
      <point x="121" y="740" type="curve" smooth="yes"/>
      <point x="173.667" y="740"/>
      <point x="206.167" y="738.167"/>
      <point x="218.5" y="734.5" type="curve" smooth="yes"/>
      <point x="230.833" y="730.833"/>
      <point x="237" y="721.666"/>
      <point x="237" y="707" type="curve" smooth="yes"/>
      <point x="237" y="694.333"/>
      <point x="234" y="685.5"/>
      <point x="228" y="680.5" type="curve" smooth="yes"/>
      <point x="222" y="675.5"/>
      <point x="211.333" y="673"/>
      <point x="196" y="673" type="curve" smooth="yes"/>
      <point x="154" y="673" type="line"/>
      <point x="154" y="399" type="line" smooth="yes"/>
      <point x="154" y="219"/>
      <point x="157.333" y="119"/>
      <point x="164" y="99" type="curve"/>
      <point x="168.667" y="88.333"/>
      <point x="180.167" y="81.333"/>
      <point x="198.5" y="78" type="curve" smooth="yes"/>
      <point x="216.833" y="74.667"/>
      <point x="251.666" y="73"/>
      <point x="303" y="73" type="curve" smooth="yes"/>
      <point x="388.333" y="73"/>
      <point x="437.666" y="79.667"/>
      <point x="451" y="93" type="curve" smooth="yes"/>
      <point x="464.333" y="106.333"/>
      <point x="471" y="151"/>
      <point x="471" y="227" type="curve" smooth="yes"/>
      <point x="471" y="274.333"/>
      <point x="469" y="305.833"/>
      <point x="465" y="321.5" type="curve" smooth="yes"/>
      <point x="461" y="337.167"/>
      <point x="451.667" y="348.667"/>
      <point x="437" y="356" type="curve"/>
      <point x="424.333" y="363.333"/>
      <point x="415" y="373.833"/>
      <point x="409" y="387.5" type="curve" smooth="yes"/>
      <point x="403" y="401.167"/>
      <point x="401.833" y="413.334"/>
      <point x="405.5" y="424" type="curve" smooth="yes"/>
      <point x="409.167" y="434.667"/>
      <point x="417" y="440"/>
      <point x="429" y="440" type="curve" smooth="yes"/>
      <point x="437" y="440"/>
      <point x="447.333" y="435.833"/>
      <point x="460" y="427.5" type="curve" smooth="yes"/>
      <point x="472.667" y="419.167"/>
      <point x="484.667" y="409.334"/>
      <point x="496" y="398" type="curve" smooth="yes"/>
      <point x="515.333" y="379.333"/>
      <point x="527" y="360.666"/>
      <point x="531" y="342" type="curve" smooth="yes"/>
      <point x="535" y="323.333"/>
      <point x="537" y="283.333"/>
      <point x="537" y="222" type="curve" smooth="yes"/>
      <point x="537" y="162"/>
      <point x="535" y="121.5"/>
      <point x="531" y="100.5" type="curve" smooth="yes"/>
      <point x="527" y="79.5"/>
      <point x="517" y="60.667"/>
      <point x="501" y="44" type="curve" smooth="yes"/>
      <point x="485" y="27.333"/>
      <point x="467.167" y="16.833"/>
      <point x="447.5" y="12.5" type="curve" smooth="yes"/>
      <point x="427.833" y="8.16699"/>
      <point x="384.333" y="6"/>
      <point x="317" y="6" type="curve" smooth="yes"/>
      <point x="249" y="6"/>
      <point x="205.167" y="8.167"/>
      <point x="185.5" y="12.5" type="curve" smooth="yes"/>
      <point x="165.833" y="16.833"/>
      <point x="147" y="28.666"/>
      <point x="129" y="48" type="curve"/>
      <point x="108.333" y="68"/>
      <point x="96.166" y="92.333"/>
      <point x="92.499" y="121" type="curve" smooth="yes"/>
      <point x="88.832" y="149.667"/>
      <point x="87" y="236.334"/>
      <point x="87" y="381" type="curve" smooth="yes"/>
      <point x="87" y="673" type="line"/>
      <point x="46" y="673" type="line" smooth="yes"/>
      <point x="30.667" y="673"/>
      <point x="19.834" y="675.5"/>
      <point x="13.501" y="680.5" type="curve" smooth="yes"/>
      <point x="7.16797" y="685.5"/>
      <point x="4" y="694.333"/>
      <point x="4" y="707" type="curve"/>
    </contour>
  </outline>
</glyph>
<glyph name="Kaddare-Q" format="2">
  <advance width="263"/>
  <unicode hex="E00D"/>
  <outline>
    <contour>
      <point x="10" y="708" type="line"/>
      <point x="10" y="723.333"/>
      <point x="16.333" y="732.666"/>
      <point x="29" y="736" type="curve" smooth="yes"/>
      <point x="41.667" y="739.333"/>
      <point x="74.334" y="741"/>
      <point x="127" y="741" type="curve" smooth="yes"/>
      <point x="179.667" y="741"/>
      <point x="212.167" y="739.167"/>
      <point x="224.5" y="735.5" type="curve" smooth="yes"/>
      <point x="236.833" y="731.833"/>
      <point x="243" y="722.666"/>
      <point x="243" y="708" type="curve" smooth="yes"/>
      <point x="243" y="695.333"/>
      <point x="240" y="686.5"/>
      <point x="234" y="681.5" type="curve" smooth="yes"/>
      <point x="228" y="676.5"/>
      <point x="217.333" y="674"/>
      <point x="202" y="674" type="curve" smooth="yes"/>
      <point x="160" y="674" type="line"/>
      <point x="160" y="374" type="line"/>
      <point x="160" y="74" type="line"/>
      <point x="202" y="74" type="line" smooth="yes"/>
      <point x="217.333" y="74"/>
      <point x="228" y="71.667"/>
      <point x="234" y="67" type="curve" smooth="yes"/>
      <point x="240" y="62.333"/>
      <point x="243" y="53.333"/>
      <point x="243" y="40" type="curve" smooth="yes"/>
      <point x="243" y="24.667"/>
      <point x="236.833" y="15.334"/>
      <point x="224.5" y="12" type="curve" smooth="yes"/>
      <point x="212.167" y="8.66699"/>
      <point x="179.667" y="7"/>
      <point x="127" y="7" type="curve" smooth="yes"/>
      <point x="74.333" y="7"/>
      <point x="41.666" y="8.833"/>
      <point x="29" y="12.5" type="curve" smooth="yes"/>
      <point x="16.333" y="16.167"/>
      <point x="10" y="25.334"/>
      <point x="10" y="40" type="curve" smooth="yes"/>
      <point x="10" y="52.667"/>
      <point x="13.167" y="61.5"/>
      <point x="19.5" y="66.5" type="curve" smooth="yes"/>
      <point x="25.833" y="71.5"/>
      <point x="36.666" y="74"/>
      <point x="52" y="74" type="curve" smooth="yes"/>
      <point x="93" y="74" type="line"/>
      <point x="93" y="374" type="line"/>
      <point x="93" y="674" type="line"/>
      <point x="52" y="674" type="line" smooth="yes"/>
      <point x="36.667" y="674"/>
      <point x="25.834" y="676.5"/>
      <point x="19.501" y="681.5" type="curve" smooth="yes"/>
      <point x="13.168" y="686.5"/>
      <point x="10" y="695.333"/>
      <point x="10" y="708" type="curve"/>
    </contour>
  </outline>
</glyph>
<glyph name="Kaddare-K" format="2">
  <advance width="586"/>
  <unicode hex="E00E"/>
  <outline>
    <contour>
      <point x="52" y="700" type="line"/>
      <point x="62.667" y="711.333"/>
      <point x="74.502" y="721.164"/>
      <point x="87.502" y="729.497" type="curve" smooth="yes"/>
      <point x="100.502" y="737.83"/>
      <point x="110.669" y="741.997"/>
      <point x="118.002" y="741.997" type="curve" smooth="yes"/>
      <point x="130.002" y="741.997"/>
      <point x="137.835" y="736.997"/>
      <point x="141.502" y="726.997" type="curve" smooth="yes"/>
      <point x="145.169" y="716.997"/>
      <point x="144.002" y="705.664"/>
      <point x="138.002" y="692.997" type="curve" smooth="yes"/>
      <point x="132.002" y="680.33"/>
      <point x="122.669" y="669.997"/>
      <point x="110.002" y="661.997" type="curve"/>
      <point x="97.335" y="653.33"/>
      <point x="88.668" y="641.33"/>
      <point x="84" y="625.997" type="curve" smooth="yes"/>
      <point x="79.333" y="610.664"/>
      <point x="77" y="582.664"/>
      <point x="77" y="541.997" type="curve" smooth="yes"/>
      <point x="77" y="441.997" type="line"/>
      <point x="273" y="441.997" type="line" smooth="yes"/>
      <point x="404.333" y="441.997"/>
      <point x="476.666" y="448.33"/>
      <point x="490" y="460.997" type="curve" smooth="yes"/>
      <point x="504.667" y="475.664"/>
      <point x="511.334" y="509.164"/>
      <point x="510" y="561.497" type="curve" smooth="yes"/>
      <point x="508.667" y="613.83"/>
      <point x="500.334" y="645.997"/>
      <point x="485" y="657.997" type="curve"/>
      <point x="476.333" y="665.33"/>
      <point x="469.666" y="675.83"/>
      <point x="465" y="689.497" type="curve" smooth="yes"/>
      <point x="460.333" y="703.164"/>
      <point x="459.166" y="715.331"/>
      <point x="461.499" y="725.998" type="curve" smooth="yes"/>
      <point x="463.832" y="736.665"/>
      <point x="468.999" y="741.998"/>
      <point x="476.999" y="741.998" type="curve" smooth="yes"/>
      <point x="481.666" y="741.998"/>
      <point x="489.833" y="737.831"/>
      <point x="501.5" y="729.498" type="curve" smooth="yes"/>
      <point x="513.167" y="721.165"/>
      <point x="524.667" y="711.332"/>
      <point x="536" y="700" type="curve" smooth="yes"/>
      <point x="553.333" y="682.667"/>
      <point x="564.333" y="665.334"/>
      <point x="569" y="648" type="curve" smooth="yes"/>
      <point x="573.667" y="630.667"/>
      <point x="576" y="598"/>
      <point x="576" y="550" type="curve" smooth="yes"/>
      <point x="576" y="526"/>
      <point x="575.833" y="507.5"/>
      <point x="575.5" y="494.5" type="curve" smooth="yes"/>
      <point x="575.167" y="481.5"/>
      <point x="573.167" y="467.667"/>
      <point x="569.5" y="453" type="curve" smooth="yes"/>
      <point x="565.833" y="438.333"/>
      <point x="562.333" y="427.666"/>
      <point x="559" y="421" type="curve" smooth="yes"/>
      <point x="555.667" y="414.333"/>
      <point x="548.167" y="407.333"/>
      <point x="536.5" y="400" type="curve" smooth="yes"/>
      <point x="524.833" y="392.667"/>
      <point x="513.333" y="387.834"/>
      <point x="502" y="385.501" type="curve" smooth="yes"/>
      <point x="490.667" y="383.168"/>
      <point x="473.667" y="381"/>
      <point x="451" y="379" type="curve" smooth="yes"/>
      <point x="428.333" y="377"/>
      <point x="406" y="375.833"/>
      <point x="384" y="375.5" type="curve" smooth="yes"/>
      <point x="362" y="375.167"/>
      <point x="331.667" y="375"/>
      <point x="293" y="375" type="curve" smooth="yes"/>
      <point x="77" y="375" type="line"/>
      <point x="77" y="245" type="line" smooth="yes"/>
      <point x="77" y="157.667"/>
      <point x="83.667" y="107.5"/>
      <point x="97" y="94.5" type="curve" smooth="yes"/>
      <point x="110.333" y="81.5"/>
      <point x="179.666" y="75"/>
      <point x="305" y="75" type="curve" smooth="yes"/>
      <point x="381" y="75"/>
      <point x="432.167" y="76.667"/>
      <point x="458.5" y="80" type="curve" smooth="yes"/>
      <point x="484.833" y="83.333"/>
      <point x="499.666" y="90"/>
      <point x="503" y="100" type="curve"/>
      <point x="507.667" y="111.333"/>
      <point x="516" y="119"/>
      <point x="528" y="123" type="curve" smooth="yes"/>
      <point x="540" y="127"/>
      <point x="551" y="126.167"/>
      <point x="561" y="120.5" type="curve" smooth="yes"/>
      <point x="571" y="114.833"/>
      <point x="576" y="105.666"/>
      <point x="576" y="93" type="curve" smooth="yes"/>
      <point x="576" y="70.333"/>
      <point x="567.833" y="53"/>
      <point x="551.5" y="41" type="curve" smooth="yes"/>
      <point x="535.167" y="29"/>
      <point x="507.5" y="20.5"/>
      <point x="468.5" y="15.5" type="curve" smooth="yes"/>
      <point x="429.5" y="10.5"/>
      <point x="372.333" y="8"/>
      <point x="297" y="8" type="curve" smooth="yes"/>
      <point x="225.667" y="8"/>
      <point x="177" y="9"/>
      <point x="151" y="11" type="curve" smooth="yes"/>
      <point x="125" y="13"/>
      <point x="105.333" y="16.333"/>
      <point x="92" y="21" type="curve" smooth="yes"/>
      <point x="78.667" y="25.667"/>
      <point x="65.334" y="35.334"/>
      <point x="52" y="50" type="curve"/>
      <point x="31.333" y="70"/>
      <point x="19.166" y="94"/>
      <point x="15.499" y="122" type="curve" smooth="yes"/>
      <point x="11.832" y="150"/>
      <point x="10" y="234.333"/>
      <point x="10" y="375" type="curve" smooth="yes"/>
      <point x="10" y="515.667"/>
      <point x="11.833" y="600"/>
      <point x="15.5" y="628" type="curve" smooth="yes"/>
      <point x="19.167" y="656"/>
      <point x="31.334" y="680"/>
      <point x="52" y="700" type="curve"/>
    </contour>
  </outline>
</glyph>
<glyph name="Kaddare-L" format="2">
  <advance width="596"/>
  <unicode hex="E00F"/>
  <outline>
    <contour>
      <point x="52" y="699" type="line"/>
      <point x="65.333" y="713.667"/>
      <point x="78.668" y="723.336"/>
      <point x="92" y="728.003" type="curve" smooth="yes"/>
      <point x="105.333" y="732.67"/>
      <point x="124.833" y="736.003"/>
      <point x="150.5" y="738.003" type="curve" smooth="yes"/>
      <point x="176.167" y="740.003"/>
      <point x="223.834" y="741.003"/>
      <point x="293.501" y="741.003" type="curve" smooth="yes"/>
      <point x="363.168" y="741.003"/>
      <point x="410.668" y="740.003"/>
      <point x="436" y="738.003" type="curve" smooth="yes"/>
      <point x="461.333" y="736.003"/>
      <point x="480.666" y="732.67"/>
      <point x="494" y="728.003" type="curve" smooth="yes"/>
      <point x="507.333" y="723.336"/>
      <point x="521.333" y="713.669"/>
      <point x="536" y="699.002" type="curve" smooth="yes"/>
      <point x="556" y="679.002"/>
      <point x="567.667" y="654.669"/>
      <point x="571" y="626.002" type="curve" smooth="yes"/>
      <point x="574.333" y="597.335"/>
      <point x="576" y="508.668"/>
      <point x="576" y="360" type="curve" smooth="yes"/>
      <point x="576" y="214.667"/>
      <point x="574.5" y="127"/>
      <point x="571.5" y="97" type="curve" smooth="yes"/>
      <point x="568.5" y="67"/>
      <point x="558" y="46"/>
      <point x="540" y="34" type="curve"/>
      <point x="516" y="15.333"/>
      <point x="496.667" y="6.33301"/>
      <point x="482" y="7" type="curve"/>
      <point x="472.667" y="7"/>
      <point x="466.334" y="12.333"/>
      <point x="463" y="23" type="curve" smooth="yes"/>
      <point x="459.667" y="33.667"/>
      <point x="460.167" y="45"/>
      <point x="464.5" y="57" type="curve" smooth="yes"/>
      <point x="468.833" y="69"/>
      <point x="475.666" y="77"/>
      <point x="485" y="81" type="curve"/>
      <point x="494.333" y="84.333"/>
      <point x="500.833" y="104"/>
      <point x="504.5" y="140" type="curve" smooth="yes"/>
      <point x="508.167" y="176"/>
      <point x="510" y="250"/>
      <point x="510" y="362" type="curve" smooth="yes"/>
      <point x="510" y="543.333"/>
      <point x="503.333" y="640.666"/>
      <point x="490" y="654" type="curve" smooth="yes"/>
      <point x="476.667" y="667.333"/>
      <point x="411.167" y="674"/>
      <point x="293.5" y="674" type="curve" smooth="yes"/>
      <point x="175.833" y="674"/>
      <point x="110.333" y="667.333"/>
      <point x="97" y="654" type="curve" smooth="yes"/>
      <point x="83.667" y="640.667"/>
      <point x="77" y="546"/>
      <point x="77" y="370" type="curve" smooth="yes"/>
      <point x="77" y="246.667"/>
      <point x="78.667" y="170.834"/>
      <point x="82" y="142.501" type="curve" smooth="yes"/>
      <point x="85.333" y="114.168"/>
      <point x="94.666" y="95.668"/>
      <point x="110" y="87" type="curve"/>
      <point x="122.667" y="79"/>
      <point x="132" y="68.667"/>
      <point x="138" y="56" type="curve" smooth="yes"/>
      <point x="144" y="43.333"/>
      <point x="145.167" y="32"/>
      <point x="141.5" y="22" type="curve" smooth="yes"/>
      <point x="137.833" y="12"/>
      <point x="130" y="7"/>
      <point x="118" y="7" type="curve" smooth="yes"/>
      <point x="110.667" y="7"/>
      <point x="100.5" y="11.167"/>
      <point x="87.5" y="19.5" type="curve" smooth="yes"/>
      <point x="74.5" y="27.833"/>
      <point x="62.667" y="37.666"/>
      <point x="52" y="49" type="curve"/>
      <point x="31.333" y="69"/>
      <point x="19.166" y="93"/>
      <point x="15.499" y="121" type="curve" smooth="yes"/>
      <point x="11.832" y="149"/>
      <point x="10" y="233.333"/>
      <point x="10" y="374" type="curve" smooth="yes"/>
      <point x="10" y="514.667"/>
      <point x="11.833" y="599"/>
      <point x="15.5" y="627" type="curve" smooth="yes"/>
      <point x="19.167" y="655"/>
      <point x="31.334" y="679"/>
      <point x="52" y="699" type="curve"/>
    </contour>
  </outline>
</glyph>
<glyph name="Kaddare-M" format="2">
  <advance width="582"/>
  <unicode hex="E010"/>
  <outline>
    <contour>
      <point x="50" y="699" type="line"/>
      <point x="60.667" y="710.333"/>
      <point x="72.5" y="720.167"/>
      <point x="85.5" y="728.5" type="curve" smooth="yes"/>
      <point x="98.5" y="736.833"/>
      <point x="108.667" y="741"/>
      <point x="116" y="741" type="curve" smooth="yes"/>
      <point x="128" y="741"/>
      <point x="135.833" y="736"/>
      <point x="139.5" y="726" type="curve" smooth="yes"/>
      <point x="143.167" y="716"/>
      <point x="142" y="704.667"/>
      <point x="136" y="692" type="curve" smooth="yes"/>
      <point x="130" y="679.333"/>
      <point x="120.667" y="669"/>
      <point x="108" y="661" type="curve"/>
      <point x="95.333" y="652.333"/>
      <point x="86.666" y="640.333"/>
      <point x="82" y="625" type="curve" smooth="yes"/>
      <point x="77.333" y="609.667"/>
      <point x="75" y="581.667"/>
      <point x="75" y="541" type="curve" smooth="yes"/>
      <point x="75" y="441" type="line"/>
      <point x="291" y="441" type="line"/>
      <point x="508" y="441" type="line"/>
      <point x="508" y="549" type="line" smooth="yes"/>
      <point x="508" y="589.667"/>
      <point x="506" y="618.667"/>
      <point x="502" y="636" type="curve" smooth="yes"/>
      <point x="498" y="653.333"/>
      <point x="491.667" y="663.666"/>
      <point x="483" y="667" type="curve"/>
      <point x="475.667" y="671"/>
      <point x="469.667" y="677"/>
      <point x="465" y="685" type="curve" smooth="yes"/>
      <point x="460.333" y="693"/>
      <point x="458" y="701"/>
      <point x="458" y="709" type="curve" smooth="yes"/>
      <point x="458" y="722.333"/>
      <point x="462" y="731.5"/>
      <point x="470" y="736.5" type="curve" smooth="yes"/>
      <point x="478" y="741.5"/>
      <point x="488.333" y="741.333"/>
      <point x="501" y="736" type="curve" smooth="yes"/>
      <point x="513.667" y="730.667"/>
      <point x="527" y="721.334"/>
      <point x="541" y="708" type="curve" smooth="yes"/>
      <point x="552.333" y="696.667"/>
      <point x="560" y="682.834"/>
      <point x="564" y="666.501" type="curve" smooth="yes"/>
      <point x="568" y="650.168"/>
      <point x="570.667" y="622.501"/>
      <point x="572" y="583.501" type="curve" smooth="yes"/>
      <point x="573.333" y="544.501"/>
      <point x="574" y="477.334"/>
      <point x="574" y="382" type="curve" smooth="yes"/>
      <point x="574" y="237.333"/>
      <point x="572.333" y="150.666"/>
      <point x="569" y="122" type="curve" smooth="yes"/>
      <point x="565.667" y="93.333"/>
      <point x="554" y="69"/>
      <point x="534" y="49" type="curve" smooth="yes"/>
      <point x="510" y="25"/>
      <point x="473.5" y="11"/>
      <point x="424.5" y="7" type="curve" smooth="yes"/>
      <point x="375.5" y="3"/>
      <point x="342.333" y="11.333"/>
      <point x="325" y="32" type="curve" smooth="yes"/>
      <point x="315.667" y="43.333"/>
      <point x="307.834" y="49"/>
      <point x="301.501" y="49" type="curve" smooth="yes"/>
      <point x="295.168" y="49"/>
      <point x="284.668" y="43.333"/>
      <point x="270" y="32" type="curve"/>
      <point x="259.333" y="25.333"/>
      <point x="242.833" y="19.5"/>
      <point x="220.5" y="14.5" type="curve" smooth="yes"/>
      <point x="198.167" y="9.5"/>
      <point x="177" y="7"/>
      <point x="157" y="7" type="curve" smooth="yes"/>
      <point x="124.333" y="7"/>
      <point x="100.666" y="10"/>
      <point x="86" y="16" type="curve" smooth="yes"/>
      <point x="71.333" y="22"/>
      <point x="57" y="33.667"/>
      <point x="43" y="51" type="curve" smooth="yes"/>
      <point x="27" y="71.667"/>
      <point x="17.167" y="98.834"/>
      <point x="13.5" y="132.501" type="curve" smooth="yes"/>
      <point x="9.83301" y="166.168"/>
      <point x="8" y="248"/>
      <point x="8" y="378" type="curve" smooth="yes"/>
      <point x="8" y="517.333"/>
      <point x="9.833" y="600.666"/>
      <point x="13.5" y="628" type="curve" smooth="yes"/>
      <point x="17.167" y="655.333"/>
      <point x="29.334" y="679"/>
      <point x="50" y="699" type="curve"/>
    </contour>
    <contour>
      <point x="508" y="242" type="line"/>
      <point x="507.999" y="374" type="line"/>
      <point x="290.999" y="374" type="line"/>
      <point x="74.999" y="374" type="line"/>
      <point x="74.999" y="242" type="line" smooth="yes"/>
      <point x="74.999" y="202.667"/>
      <point x="75.999" y="172.667"/>
      <point x="77.999" y="152" type="curve" smooth="yes"/>
      <point x="79.999" y="131.333"/>
      <point x="84.999" y="114.5"/>
      <point x="92.999" y="101.5" type="curve" smooth="yes"/>
      <point x="100.999" y="88.5"/>
      <point x="111.499" y="80.667"/>
      <point x="124.499" y="78" type="curve" smooth="yes"/>
      <point x="137.499" y="75.333"/>
      <point x="155.332" y="75.333"/>
      <point x="177.999" y="78" type="curve" smooth="yes"/>
      <point x="213.999" y="81.333"/>
      <point x="237.666" y="95.666"/>
      <point x="248.999" y="121" type="curve"/>
      <point x="253.666" y="130.333"/>
      <point x="260.333" y="138.666"/>
      <point x="269" y="146" type="curve" smooth="yes"/>
      <point x="277.667" y="153.333"/>
      <point x="285.334" y="157"/>
      <point x="292" y="157" type="curve" smooth="yes"/>
      <point x="298.667" y="157"/>
      <point x="306.167" y="153.333"/>
      <point x="314.5" y="146" type="curve" smooth="yes"/>
      <point x="322.833" y="138.667"/>
      <point x="329" y="130.334"/>
      <point x="333" y="121" type="curve" smooth="yes"/>
      <point x="344.333" y="95.667"/>
      <point x="368.333" y="81.334"/>
      <point x="405" y="78" type="curve" smooth="yes"/>
      <point x="428.333" y="75.333"/>
      <point x="446.166" y="75.333"/>
      <point x="458.499" y="78" type="curve" smooth="yes"/>
      <point x="470.832" y="80.667"/>
      <point x="481" y="88.5"/>
      <point x="489" y="101.5" type="curve" smooth="yes"/>
      <point x="497" y="114.5"/>
      <point x="502.167" y="131.333"/>
      <point x="504.5" y="152" type="curve" smooth="yes"/>
      <point x="506.833" y="172.667"/>
      <point x="508" y="202.667"/>
      <point x="508" y="242" type="curve"/>
    </contour>
  </outline>
</glyph>
<glyph name="Kaddare-N" format="2">
  <advance width="588"/>
  <unicode hex="E011"/>
  <outline>
    <contour>
      <point x="50" y="698" type="line"/>
      <point x="63.333" y="712.667"/>
      <point x="76.666" y="722.334"/>
      <point x="90" y="727" type="curve" smooth="yes"/>
      <point x="103.333" y="731.667"/>
      <point x="122.833" y="735"/>
      <point x="148.5" y="737" type="curve" smooth="yes"/>
      <point x="174.167" y="739"/>
      <point x="221.834" y="740"/>
      <point x="291.501" y="740" type="curve" smooth="yes"/>
      <point x="361.168" y="740"/>
      <point x="408.668" y="739"/>
      <point x="434" y="737" type="curve" smooth="yes"/>
      <point x="459.333" y="735"/>
      <point x="478.666" y="731.667"/>
      <point x="492" y="727" type="curve" smooth="yes"/>
      <point x="505.333" y="722.333"/>
      <point x="519.333" y="712.666"/>
      <point x="534" y="698" type="curve" smooth="yes"/>
      <point x="554" y="678"/>
      <point x="565.667" y="653.667"/>
      <point x="569" y="625" type="curve" smooth="yes"/>
      <point x="572.333" y="596.333"/>
      <point x="574" y="507.666"/>
      <point x="574" y="359" type="curve" smooth="yes"/>
      <point x="574" y="302" type="line" smooth="yes"/>
      <point x="574" y="255.333"/>
      <point x="574.333" y="222.333"/>
      <point x="575" y="203" type="curve" smooth="yes"/>
      <point x="575.667" y="183.667"/>
      <point x="574.334" y="160"/>
      <point x="571" y="132" type="curve" smooth="yes"/>
      <point x="567.667" y="104"/>
      <point x="565.167" y="85.833"/>
      <point x="563.5" y="77.5" type="curve" smooth="yes"/>
      <point x="561.833" y="69.167"/>
      <point x="555.666" y="58"/>
      <point x="545" y="44" type="curve" smooth="yes"/>
      <point x="534.333" y="30"/>
      <point x="525.5" y="22.167"/>
      <point x="518.5" y="20.5" type="curve" smooth="yes"/>
      <point x="511.5" y="18.833"/>
      <point x="496.833" y="15.833"/>
      <point x="474.5" y="11.5" type="curve" smooth="yes"/>
      <point x="452.167" y="7.16698"/>
      <point x="433" y="5.16698"/>
      <point x="417" y="5.49998" type="curve" smooth="yes"/>
      <point x="401" y="5.83298"/>
      <point x="374.667" y="6"/>
      <point x="338" y="6" type="curve" smooth="yes"/>
      <point x="295" y="6" type="line" smooth="yes"/>
      <point x="223.667" y="6"/>
      <point x="175" y="7"/>
      <point x="149" y="9" type="curve" smooth="yes"/>
      <point x="123" y="11"/>
      <point x="103.333" y="14.333"/>
      <point x="90" y="19" type="curve" smooth="yes"/>
      <point x="76.667" y="23.667"/>
      <point x="63.334" y="33.334"/>
      <point x="50" y="48" type="curve"/>
      <point x="29.333" y="68"/>
      <point x="17.166" y="92"/>
      <point x="13.499" y="120" type="curve" smooth="yes"/>
      <point x="9.83203" y="148"/>
      <point x="8" y="232.333"/>
      <point x="8" y="373" type="curve" smooth="yes"/>
      <point x="8" y="513.667"/>
      <point x="9.833" y="598"/>
      <point x="13.5" y="626" type="curve" smooth="yes"/>
      <point x="17.167" y="654"/>
      <point x="29.334" y="678"/>
      <point x="50" y="698" type="curve"/>
    </contour>
    <contour>
      <point x="488" y="653" type="line"/>
      <point x="474.667" y="666.333"/>
      <point x="409.167" y="673"/>
      <point x="291.5" y="673" type="curve" smooth="yes"/>
      <point x="173.833" y="673"/>
      <point x="108" y="666.333"/>
      <point x="94" y="653" type="curve" smooth="yes"/>
      <point x="88.667" y="647.667"/>
      <point x="84.167" y="633.667"/>
      <point x="80.5" y="611" type="curve" smooth="yes"/>
      <point x="76.833" y="588.333"/>
      <point x="75" y="563.333"/>
      <point x="75" y="536" type="curve" smooth="yes"/>
      <point x="75" y="440" type="line"/>
      <point x="291" y="440" type="line"/>
      <point x="508" y="440" type="line"/>
      <point x="508" y="536" type="line" smooth="yes"/>
      <point x="508" y="563.333"/>
      <point x="506" y="588.333"/>
      <point x="502" y="611" type="curve" smooth="yes"/>
      <point x="498" y="633.667"/>
      <point x="493.333" y="647.667"/>
      <point x="488" y="653" type="curve"/>
    </contour>
    <contour>
      <point x="505" y="228" type="line"/>
      <point x="510" y="373" type="line"/>
      <point x="291" y="373" type="line"/>
      <point x="75" y="373" type="line"/>
      <point x="75" y="241" type="line" smooth="yes"/>
      <point x="75" y="153.667"/>
      <point x="82.667" y="103.667"/>
      <point x="98" y="91" type="curve" smooth="yes"/>
      <point x="113.333" y="78.333"/>
      <point x="183.666" y="73.666"/>
      <point x="309" y="77" type="curve" smooth="yes"/>
      <point x="500" y="81" type="line"/>
    </contour>
  </outline>
</glyph>
<glyph name="Kaddare-W" format="2">
  <advance width="596"/>
  <unicode hex="E012"/>
  <outline>
    <contour>
      <point x="52" y="701" type="line"/>
      <point x="65.333" y="715.667"/>
      <point x="78.668" y="725.333"/>
      <point x="92" y="730" type="curve" smooth="yes"/>
      <point x="105.333" y="734.667"/>
      <point x="124.833" y="738"/>
      <point x="150.5" y="740" type="curve" smooth="yes"/>
      <point x="176.167" y="742"/>
      <point x="223.834" y="743"/>
      <point x="293.501" y="743" type="curve" smooth="yes"/>
      <point x="363.168" y="743"/>
      <point x="410.668" y="742"/>
      <point x="436" y="740" type="curve" smooth="yes"/>
      <point x="461.333" y="738"/>
      <point x="480.666" y="734.667"/>
      <point x="494" y="730" type="curve" smooth="yes"/>
      <point x="507.333" y="725.333"/>
      <point x="521.333" y="715.666"/>
      <point x="536" y="701" type="curve" smooth="yes"/>
      <point x="553.333" y="683.667"/>
      <point x="564.333" y="666"/>
      <point x="569" y="648" type="curve" smooth="yes"/>
      <point x="573.667" y="630"/>
      <point x="576" y="595.333"/>
      <point x="576" y="544" type="curve" smooth="yes"/>
      <point x="576" y="493.333"/>
      <point x="574" y="459.833"/>
      <point x="570" y="443.5" type="curve" smooth="yes"/>
      <point x="566" y="427.167"/>
      <point x="556" y="413.334"/>
      <point x="540" y="402" type="curve" smooth="yes"/>
      <point x="516" y="384.667"/>
      <point x="496.667" y="376"/>
      <point x="482" y="376" type="curve" smooth="yes"/>
      <point x="472.667" y="376"/>
      <point x="466.334" y="381.167"/>
      <point x="463" y="391.5" type="curve" smooth="yes"/>
      <point x="459.667" y="401.833"/>
      <point x="460.167" y="413"/>
      <point x="464.5" y="425" type="curve" smooth="yes"/>
      <point x="468.833" y="437"/>
      <point x="475.666" y="445"/>
      <point x="485" y="449" type="curve"/>
      <point x="501" y="454.333"/>
      <point x="509.667" y="486.5"/>
      <point x="511" y="545.5" type="curve" smooth="yes"/>
      <point x="512.333" y="604.5"/>
      <point x="505.333" y="641.333"/>
      <point x="490" y="656" type="curve" smooth="yes"/>
      <point x="476.667" y="669.333"/>
      <point x="411.167" y="676"/>
      <point x="293.5" y="676" type="curve" smooth="yes"/>
      <point x="175.833" y="676"/>
      <point x="110.333" y="669.333"/>
      <point x="97" y="656" type="curve" smooth="yes"/>
      <point x="83.667" y="642.667"/>
      <point x="77" y="548"/>
      <point x="77" y="372" type="curve" smooth="yes"/>
      <point x="77" y="248.667"/>
      <point x="78.667" y="172.834"/>
      <point x="82" y="144.501" type="curve" smooth="yes"/>
      <point x="85.333" y="116.168"/>
      <point x="94.666" y="97.668"/>
      <point x="110" y="89" type="curve"/>
      <point x="122.667" y="81"/>
      <point x="132" y="70.667"/>
      <point x="138" y="58" type="curve" smooth="yes"/>
      <point x="144" y="45.333"/>
      <point x="145.167" y="34"/>
      <point x="141.5" y="24" type="curve" smooth="yes"/>
      <point x="137.833" y="14"/>
      <point x="130" y="9"/>
      <point x="118" y="9" type="curve" smooth="yes"/>
      <point x="110.667" y="9"/>
      <point x="100.5" y="13.167"/>
      <point x="87.5" y="21.5" type="curve" smooth="yes"/>
      <point x="74.5" y="29.833"/>
      <point x="62.667" y="39.666"/>
      <point x="52" y="51" type="curve"/>
      <point x="31.333" y="71"/>
      <point x="19.166" y="95"/>
      <point x="15.499" y="123" type="curve" smooth="yes"/>
      <point x="11.832" y="151"/>
      <point x="10" y="235.333"/>
      <point x="10" y="376" type="curve" smooth="yes"/>
      <point x="10" y="516.667"/>
      <point x="11.833" y="601"/>
      <point x="15.5" y="629" type="curve" smooth="yes"/>
      <point x="19.167" y="657"/>
      <point x="31.334" y="681"/>
      <point x="52" y="701" type="curve"/>
    </contour>
  </outline>
</glyph>
<glyph name="Kaddare-H" format="2">
  <advance width="582"/>
  <unicode hex="E013"/>
  <outline>
    <contour>
      <point x="25" y="709" type="line"/>
      <point x="25" y="722.333"/>
      <point x="29.166" y="731.167"/>
      <point x="37.499" y="735.5" type="curve" smooth="yes"/>
      <point x="45.832" y="739.833"/>
      <point x="63.665" y="742"/>
      <point x="90.998" y="742" type="curve" smooth="yes"/>
      <point x="157.998" y="742" type="line"/>
      <point x="157.998" y="592" type="line"/>
      <point x="157.998" y="442" type="line"/>
      <point x="207.998" y="442" type="line"/>
      <point x="257.998" y="442" type="line"/>
      <point x="257.998" y="592" type="line" smooth="yes"/>
      <point x="257.998" y="661.333"/>
      <point x="259.498" y="703.666"/>
      <point x="262.498" y="719" type="curve" smooth="yes"/>
      <point x="265.498" y="734.333"/>
      <point x="274.998" y="742"/>
      <point x="290.998" y="742" type="curve" smooth="yes"/>
      <point x="306.998" y="742"/>
      <point x="316.665" y="734.5"/>
      <point x="319.998" y="719.5" type="curve" smooth="yes"/>
      <point x="323.331" y="704.5"/>
      <point x="324.998" y="662"/>
      <point x="324.998" y="592" type="curve" smooth="yes"/>
      <point x="324.998" y="442" type="line"/>
      <point x="381.998" y="442" type="line"/>
      <point x="440.998" y="442" type="line"/>
      <point x="440.998" y="592" type="line"/>
      <point x="440.998" y="742" type="line"/>
      <point x="499.998" y="742" type="line" smooth="yes"/>
      <point x="523.331" y="742"/>
      <point x="538.831" y="739.667"/>
      <point x="546.498" y="735" type="curve" smooth="yes"/>
      <point x="554.165" y="730.333"/>
      <point x="557.998" y="721.666"/>
      <point x="557.998" y="709" type="curve" smooth="yes"/>
      <point x="557.998" y="699.667"/>
      <point x="555.498" y="691.667"/>
      <point x="550.498" y="685" type="curve" smooth="yes"/>
      <point x="545.498" y="678.333"/>
      <point x="539.998" y="675"/>
      <point x="533.998" y="675" type="curve" smooth="yes"/>
      <point x="520.665" y="675"/>
      <point x="511.832" y="655.833"/>
      <point x="507.499" y="617.5" type="curve" smooth="yes"/>
      <point x="503.166" y="579.167"/>
      <point x="504.166" y="537.167"/>
      <point x="510.499" y="491.5" type="curve" smooth="yes"/>
      <point x="516.832" y="445.833"/>
      <point x="527" y="414.333"/>
      <point x="541" y="397" type="curve" smooth="yes"/>
      <point x="555.667" y="379.667"/>
      <point x="564.834" y="359"/>
      <point x="568.501" y="335" type="curve" smooth="yes"/>
      <point x="572.168" y="311"/>
      <point x="574" y="268.333"/>
      <point x="574" y="207" type="curve" smooth="yes"/>
      <point x="574" y="123" type="line" smooth="yes"/>
      <point x="574" y="106.333"/>
      <point x="570" y="88.5"/>
      <point x="562" y="69.5" type="curve" smooth="yes"/>
      <point x="554" y="50.5"/>
      <point x="546.5" y="38.5"/>
      <point x="539.5" y="33.5" type="curve" smooth="yes"/>
      <point x="532.5" y="28.5"/>
      <point x="515.5" y="23.167"/>
      <point x="488.5" y="17.5" type="curve" smooth="yes"/>
      <point x="461.5" y="11.833"/>
      <point x="436" y="8.83301"/>
      <point x="412" y="8.50001" type="curve" smooth="yes"/>
      <point x="388" y="8.16701"/>
      <point x="349" y="8"/>
      <point x="295" y="8" type="curve" smooth="yes"/>
      <point x="223.667" y="8"/>
      <point x="175" y="9"/>
      <point x="149" y="11" type="curve" smooth="yes"/>
      <point x="123" y="13"/>
      <point x="103.333" y="16.333"/>
      <point x="90" y="21" type="curve" smooth="yes"/>
      <point x="76.667" y="25.667"/>
      <point x="63.334" y="35.334"/>
      <point x="50" y="50" type="curve"/>
      <point x="31.333" y="67.333"/>
      <point x="19.666" y="85.833"/>
      <point x="15" y="105.5" type="curve" smooth="yes"/>
      <point x="10.333" y="125.167"/>
      <point x="8" y="164.667"/>
      <point x="8" y="224" type="curve" smooth="yes"/>
      <point x="8" y="282.667"/>
      <point x="10.333" y="322.167"/>
      <point x="15" y="342.5" type="curve" smooth="yes"/>
      <point x="19.667" y="362.833"/>
      <point x="31.334" y="383.666"/>
      <point x="50" y="405" type="curve" smooth="yes"/>
      <point x="67.333" y="425.667"/>
      <point x="78.5" y="445.834"/>
      <point x="83.5" y="465.501" type="curve" smooth="yes"/>
      <point x="88.5" y="485.168"/>
      <point x="91" y="518.335"/>
      <point x="91" y="565.002" type="curve" smooth="yes"/>
      <point x="91" y="614.335"/>
      <point x="89.167" y="645.002"/>
      <point x="85.5" y="657.002" type="curve" smooth="yes"/>
      <point x="81.833" y="669.002"/>
      <point x="72.666" y="675.002"/>
      <point x="58" y="675.002" type="curve" smooth="yes"/>
      <point x="36" y="675.002"/>
      <point x="25" y="686.335"/>
      <point x="25" y="709.002" type="curve"/>
    </contour>
    <contour>
      <point x="489" y="352" type="line"/>
      <point x="477" y="366.667"/>
      <point x="412" y="374.5"/>
      <point x="294" y="375.5" type="curve" smooth="yes"/>
      <point x="176" y="376.5"/>
      <point x="109.333" y="369.667"/>
      <point x="94" y="355" type="curve" smooth="yes"/>
      <point x="79.333" y="341.667"/>
      <point x="72.5" y="297.834"/>
      <point x="73.5" y="223.501" type="curve" smooth="yes"/>
      <point x="74.5" y="149.168"/>
      <point x="82.667" y="105.668"/>
      <point x="98" y="93" type="curve" smooth="yes"/>
      <point x="113.333" y="80.333"/>
      <point x="183.666" y="75.666"/>
      <point x="309" y="79" type="curve" smooth="yes"/>
      <point x="500" y="83" type="line"/>
      <point x="505" y="205" type="line" smooth="yes"/>
      <point x="507.667" y="285.667"/>
      <point x="502.334" y="334.667"/>
      <point x="489" y="352" type="curve"/>
    </contour>
  </outline>
</glyph>
<glyph name="Kaddare-Y" format="2">
  <advance width="506"/>
  <unicode hex="E014"/>
  <outline>
    <contour>
      <point x="41" y="735" type="line"/>
      <point x="41" y="742.333"/>
      <point x="53.333" y="744"/>
      <point x="78" y="740" type="curve" smooth="yes"/>
      <point x="86.667" y="738.667"/>
      <point x="93.834" y="735.334"/>
      <point x="99.501" y="730" type="curve" smooth="yes"/>
      <point x="105.168" y="724.667"/>
      <point x="112" y="710.334"/>
      <point x="120" y="687" type="curve" smooth="yes"/>
      <point x="128" y="663.667"/>
      <point x="136.5" y="635"/>
      <point x="145.5" y="601" type="curve" smooth="yes"/>
      <point x="154.5" y="567"/>
      <point x="167.667" y="514.333"/>
      <point x="185" y="443" type="curve" smooth="yes"/>
      <point x="224.333" y="278.333"/>
      <point x="247.666" y="192.333"/>
      <point x="255" y="185" type="curve"/>
      <point x="258.333" y="181"/>
      <point x="262" y="184.333"/>
      <point x="266" y="195" type="curve"/>
      <point x="266.667" y="199.667"/>
      <point x="268.667" y="207.334"/>
      <point x="272" y="218" type="curve"/>
      <point x="284" y="263.333"/>
      <point x="307" y="358.833"/>
      <point x="341" y="504.5" type="curve" smooth="yes"/>
      <point x="375" y="650.167"/>
      <point x="392" y="726"/>
      <point x="392" y="732" type="curve" smooth="yes"/>
      <point x="392" y="734.667"/>
      <point x="396.333" y="737.167"/>
      <point x="405" y="739.5" type="curve" smooth="yes"/>
      <point x="413.667" y="741.833"/>
      <point x="423.667" y="743"/>
      <point x="435" y="743" type="curve" smooth="yes"/>
      <point x="463" y="743"/>
      <point x="474.667" y="736.333"/>
      <point x="470" y="723" type="curve"/>
      <point x="458.667" y="682.333"/>
      <point x="443.667" y="620.666"/>
      <point x="425" y="538" type="curve" smooth="yes"/>
      <point x="387" y="375" type="line"/>
      <point x="440" y="203" type="line" smooth="yes"/>
      <point x="474.667" y="89.667"/>
      <point x="491.834" y="29"/>
      <point x="491.501" y="21" type="curve" smooth="yes"/>
      <point x="491.168" y="13"/>
      <point x="480.668" y="9"/>
      <point x="460" y="9" type="curve" smooth="yes"/>
      <point x="446.667" y="9"/>
      <point x="435.667" y="15.833"/>
      <point x="427" y="29.5" type="curve" smooth="yes"/>
      <point x="418.333" y="43.167"/>
      <point x="408.666" y="68.667"/>
      <point x="398" y="106" type="curve"/>
      <point x="377.333" y="170"/>
      <point x="364" y="206"/>
      <point x="358" y="214" type="curve"/>
      <point x="355.333" y="217.333"/>
      <point x="350.666" y="212"/>
      <point x="344" y="198" type="curve" smooth="yes"/>
      <point x="335.333" y="179.333"/>
      <point x="326" y="152.666"/>
      <point x="316" y="118" type="curve"/>
      <point x="305.333" y="75.333"/>
      <point x="295.833" y="46.5"/>
      <point x="287.5" y="31.5" type="curve" smooth="yes"/>
      <point x="279.167" y="16.5"/>
      <point x="268.667" y="9"/>
      <point x="256" y="9" type="curve" smooth="yes"/>
      <point x="244.667" y="9"/>
      <point x="234.834" y="16"/>
      <point x="226.501" y="30" type="curve" smooth="yes"/>
      <point x="218.168" y="44"/>
      <point x="208.668" y="69.333"/>
      <point x="198" y="106" type="curve" smooth="yes"/>
      <point x="179.333" y="169.333"/>
      <point x="167" y="206"/>
      <point x="161" y="216" type="curve"/>
      <point x="158.333" y="220"/>
      <point x="154" y="215.333"/>
      <point x="148" y="202" type="curve"/>
      <point x="138.667" y="184.667"/>
      <point x="128.334" y="158.667"/>
      <point x="117" y="124" type="curve" smooth="yes"/>
      <point x="102.333" y="81.333"/>
      <point x="90" y="52.5"/>
      <point x="80" y="37.5" type="curve" smooth="yes"/>
      <point x="70" y="22.5"/>
      <point x="57" y="14"/>
      <point x="41" y="12" type="curve"/>
      <point x="28.333" y="9.333"/>
      <point x="19.666" y="9.5"/>
      <point x="15" y="12.5" type="curve" smooth="yes"/>
      <point x="10.333" y="15.5"/>
      <point x="9" y="21"/>
      <point x="11" y="29" type="curve"/>
      <point x="15.667" y="41"/>
      <point x="37" y="102.667"/>
      <point x="75" y="214" type="curve" smooth="yes"/>
      <point x="128" y="377" type="line"/>
      <point x="84" y="551" type="line" smooth="yes"/>
      <point x="55.333" y="670.333"/>
      <point x="41" y="731.666"/>
      <point x="41" y="735" type="curve"/>
    </contour>
  </outline>
</glyph>
<glyph name="Kaddare-A" format="2">
  <advance width="640"/>
  <unicode hex="E015"/>
  <outline>
    <contour>
      <point x="54.6973" y="751.425" type="line"/>
      <point x="64.207" y="760.935"/>
      <point x="72.5254" y="768.062"/>
      <point x="79.6572" y="772.817" type="curve" smooth="yes"/>
      <point x="86.79" y="777.572"/>
      <point x="94.979" y="781.799"/>
      <point x="104.226" y="785.497" type="curve" smooth="yes"/>
      <point x="113.471" y="789.195"/>
      <point x="128.66" y="791.705"/>
      <point x="149.794" y="793.025" type="curve" smooth="yes"/>
      <point x="170.928" y="794.347"/>
      <point x="193.118" y="795.14"/>
      <point x="216.365" y="795.404" type="curve" smooth="yes"/>
      <point x="239.612" y="795.669"/>
      <point x="275.539" y="795.801"/>
      <point x="324.146" y="795.801" type="curve" smooth="yes"/>
      <point x="425.058" y="795.801"/>
      <point x="489.646" y="793.951"/>
      <point x="517.912" y="790.253" type="curve" smooth="yes"/>
      <point x="546.178" y="786.555"/>
      <point x="568.5" y="776.78"/>
      <point x="584.878" y="760.931" type="curve"/>
      <point x="599.672" y="745.609"/>
      <point x="609.843" y="730.948"/>
      <point x="615.391" y="716.947" type="curve" smooth="yes"/>
      <point x="620.938" y="702.946"/>
      <point x="621.203" y="691.72"/>
      <point x="616.185" y="683.267" type="curve" smooth="yes"/>
      <point x="611.165" y="674.813"/>
      <point x="601.259" y="670.587"/>
      <point x="586.466" y="670.587" type="curve" smooth="yes"/>
      <point x="577.484" y="670.587"/>
      <point x="568.635" y="673.228"/>
      <point x="559.917" y="678.512" type="curve" smooth="yes"/>
      <point x="551.199" y="683.795"/>
      <point x="544.991" y="690.135"/>
      <point x="541.293" y="697.531" type="curve"/>
      <point x="538.123" y="709.155"/>
      <point x="522.405" y="716.552"/>
      <point x="494.139" y="719.722" type="curve" smooth="yes"/>
      <point x="465.873" y="722.891"/>
      <point x="410.53" y="724.476"/>
      <point x="328.11" y="724.476" type="curve" smooth="yes"/>
      <point x="192.857" y="724.476"/>
      <point x="118.099" y="717.344"/>
      <point x="103.834" y="703.079" type="curve" smooth="yes"/>
      <point x="94.323" y="693.568"/>
      <point x="87.5869" y="640.867"/>
      <point x="83.625" y="544.976" type="curve" smooth="yes"/>
      <point x="79.6631" y="449.083"/>
      <point x="79.6631" y="353.322"/>
      <point x="83.625" y="257.694" type="curve" smooth="yes"/>
      <point x="87.5869" y="162.065"/>
      <point x="94.323" y="109.496"/>
      <point x="103.834" y="99.9863" type="curve" smooth="yes"/>
      <point x="110.174" y="93.6464"/>
      <point x="126.816" y="88.6269"/>
      <point x="153.762" y="84.9286" type="curve" smooth="yes"/>
      <point x="180.706" y="81.2304"/>
      <point x="211.878" y="79.3818"/>
      <point x="247.276" y="79.3818" type="curve" smooth="yes"/>
      <point x="368.529" y="79.3818" type="line"/>
      <point x="368.529" y="229.164" type="line" smooth="yes"/>
      <point x="368.529" y="295.206"/>
      <point x="373.152" y="345.134"/>
      <point x="382.397" y="378.947" type="curve" smooth="yes"/>
      <point x="391.644" y="412.761"/>
      <point x="407.098" y="437.064"/>
      <point x="428.759" y="451.858" type="curve" smooth="yes"/>
      <point x="450.42" y="466.652"/>
      <point x="482.12" y="474.049"/>
      <point x="523.858" y="474.049" type="curve" smooth="yes"/>
      <point x="556.615" y="474.049"/>
      <point x="578.013" y="471.804"/>
      <point x="588.051" y="467.312" type="curve" smooth="yes"/>
      <point x="598.089" y="462.821"/>
      <point x="603.107" y="452.915"/>
      <point x="603.107" y="437.594" type="curve" smooth="yes"/>
      <point x="603.107" y="422.8"/>
      <point x="598.749" y="413.025"/>
      <point x="590.031" y="408.27" type="curve" smooth="yes"/>
      <point x="581.313" y="403.516"/>
      <point x="564.539" y="401.139"/>
      <point x="539.708" y="401.139" type="curve" smooth="yes"/>
      <point x="521.744" y="401.139"/>
      <point x="507.347" y="399.289"/>
      <point x="496.516" y="395.591" type="curve" smooth="yes"/>
      <point x="485.685" y="391.893"/>
      <point x="476.307" y="385.553"/>
      <point x="468.382" y="376.571" type="curve" smooth="yes"/>
      <point x="460.457" y="367.59"/>
      <point x="454.777" y="353.853"/>
      <point x="451.343" y="335.362" type="curve" smooth="yes"/>
      <point x="447.908" y="316.87"/>
      <point x="445.398" y="295.076"/>
      <point x="443.813" y="269.98" type="curve" smooth="yes"/>
      <point x="442.228" y="244.885"/>
      <point x="441.435" y="211.731"/>
      <point x="441.435" y="170.521" type="curve" smooth="yes"/>
      <point x="441.435" y="6.47456" type="line"/>
      <point x="271.049" y="6.47456" type="line" smooth="yes"/>
      <point x="214.516" y="6.47456"/>
      <point x="174.495" y="7.53116"/>
      <point x="150.984" y="9.64446" type="curve" smooth="yes"/>
      <point x="127.473" y="11.7578"/>
      <point x="109.114" y="15.5878"/>
      <point x="95.906" y="21.1357" type="curve" smooth="yes"/>
      <point x="82.6981" y="26.6835"/>
      <point x="68.9617" y="36.8535"/>
      <point x="54.6971" y="51.6464" type="curve"/>
      <point x="32.5067" y="73.3085"/>
      <point x="19.5623" y="99.1972"/>
      <point x="15.8641" y="129.311" type="curve" smooth="yes"/>
      <point x="12.1658" y="159.427"/>
      <point x="10.3162" y="250.168"/>
      <point x="10.3162" y="401.535" type="curve" smooth="yes"/>
      <point x="10.3162" y="552.903"/>
      <point x="12.1658" y="643.644"/>
      <point x="15.8641" y="673.76" type="curve" smooth="yes"/>
      <point x="19.5623" y="703.874"/>
      <point x="32.5067" y="729.763"/>
      <point x="54.6971" y="751.425" type="curve"/>
    </contour>
  </outline>
</glyph>
<glyph name="Kaddare-E" format="2">
  <advance width="286"/>
  <unicode hex="E016"/>
  <outline>
    <contour>
      <point x="63.335" y="764.038" type="line"/>
      <point x="89.2236" y="787.285"/>
      <point x="128.061" y="798.911"/>
      <point x="179.837" y="798.911" type="curve" smooth="yes"/>
      <point x="212.065" y="798.911"/>
      <point x="233.066" y="796.798"/>
      <point x="242.841" y="792.571" type="curve" smooth="yes"/>
      <point x="252.615" y="788.345"/>
      <point x="257.502" y="778.835"/>
      <point x="257.502" y="764.041" type="curve" smooth="yes"/>
      <point x="257.502" y="749.247"/>
      <point x="253.54" y="739.473"/>
      <point x="245.615" y="734.718" type="curve" smooth="yes"/>
      <point x="237.69" y="729.963"/>
      <point x="221.84" y="727.585"/>
      <point x="198.064" y="727.585" type="curve" smooth="yes"/>
      <point x="157.383" y="727.585"/>
      <point x="130.174" y="718.472"/>
      <point x="116.438" y="700.244" type="curve" smooth="yes"/>
      <point x="102.7" y="682.017"/>
      <point x="95.832" y="645.693"/>
      <point x="95.832" y="591.275" type="curve" smooth="yes"/>
      <point x="95.832" y="552.707"/>
      <point x="98.3418" y="525.365"/>
      <point x="103.361" y="509.251" type="curve" smooth="yes"/>
      <point x="108.38" y="493.137"/>
      <point x="119.078" y="479.797"/>
      <point x="135.456" y="469.23" type="curve"/>
      <point x="145.494" y="461.833"/>
      <point x="158.57" y="455.229"/>
      <point x="174.685" y="449.417" type="curve" smooth="yes"/>
      <point x="190.799" y="443.605"/>
      <point x="204.667" y="440.699"/>
      <point x="216.29" y="440.699" type="curve" smooth="yes"/>
      <point x="230.027" y="440.699"/>
      <point x="240.33" y="437.793"/>
      <point x="247.198" y="431.981" type="curve" smooth="yes"/>
      <point x="254.066" y="426.17"/>
      <point x="257.5" y="416.924"/>
      <point x="257.5" y="404.244" type="curve" smooth="yes"/>
      <point x="257.5" y="391.036"/>
      <point x="253.934" y="381.79"/>
      <point x="246.802" y="376.507" type="curve" smooth="yes"/>
      <point x="239.669" y="371.224"/>
      <point x="226.856" y="368.582"/>
      <point x="208.365" y="368.582" type="curve" smooth="yes"/>
      <point x="169.269" y="368.582"/>
      <point x="140.738" y="356.562"/>
      <point x="122.774" y="332.522" type="curve" smooth="yes"/>
      <point x="104.811" y="308.483"/>
      <point x="95.8291" y="269.783"/>
      <point x="95.8291" y="216.422" type="curve" smooth="yes"/>
      <point x="95.8291" y="162.532"/>
      <point x="102.697" y="126.737"/>
      <point x="116.435" y="109.038" type="curve" smooth="yes"/>
      <point x="130.171" y="91.3388"/>
      <point x="157.38" y="82.4892"/>
      <point x="198.062" y="82.4892" type="curve" smooth="yes"/>
      <point x="221.309" y="82.4892"/>
      <point x="237.026" y="79.8476"/>
      <point x="245.216" y="74.5644" type="curve" smooth="yes"/>
      <point x="253.404" y="69.2802"/>
      <point x="257.499" y="59.7704"/>
      <point x="257.499" y="46.0341" type="curve" smooth="yes"/>
      <point x="257.499" y="28.0702"/>
      <point x="245.876" y="16.1825"/>
      <point x="222.63" y="10.371" type="curve" smooth="yes"/>
      <point x="199.383" y="4.55948"/>
      <point x="172.569" y="5.74798"/>
      <point x="142.189" y="13.9365" type="curve" smooth="yes"/>
      <point x="111.811" y="22.1259"/>
      <point x="87.375" y="35.7304"/>
      <point x="68.8838" y="54.7509" type="curve"/>
      <point x="49.335" y="73.7704"/>
      <point x="37.0508" y="92.79"/>
      <point x="32.0323" y="111.81" type="curve" smooth="yes"/>
      <point x="27.0137" y="130.831"/>
      <point x="24.5039" y="167.55"/>
      <point x="24.5039" y="221.968" type="curve" smooth="yes"/>
      <point x="24.5039" y="271.631"/>
      <point x="26.8809" y="306.501"/>
      <point x="31.6358" y="326.578" type="curve" smooth="yes"/>
      <point x="36.3907" y="346.655"/>
      <point x="45.9004" y="363.826"/>
      <point x="60.1651" y="378.091" type="curve"/>
      <point x="77.0723" y="393.412"/>
      <point x="85.6573" y="404.507"/>
      <point x="85.921" y="411.375" type="curve" smooth="yes"/>
      <point x="86.1856" y="418.243"/>
      <point x="77.6006" y="432.772"/>
      <point x="60.166" y="454.963" type="curve"/>
      <point x="42.2022" y="476.625"/>
      <point x="30.3145" y="508.853"/>
      <point x="24.503" y="551.648" type="curve" smooth="yes"/>
      <point x="18.6914" y="594.443"/>
      <point x="19.4834" y="636.313"/>
      <point x="26.8799" y="677.26" type="curve" smooth="yes"/>
      <point x="34.2764" y="718.205"/>
      <point x="46.4278" y="747.131"/>
      <point x="63.335" y="764.038" type="curve"/>
    </contour>
  </outline>
</glyph>
<glyph name="Kaddare-I" format="2">
  <advance width="241"/>
  <unicode hex="E017"/>
  <outline>
    <contour>
      <point x="10.1309" y="734.307" type="line"/>
      <point x="10.1309" y="749.628"/>
      <point x="21.0947" y="760.062"/>
      <point x="43.0205" y="765.609" type="curve" smooth="yes"/>
      <point x="64.9463" y="771.157"/>
      <point x="89.778" y="770.893"/>
      <point x="117.516" y="764.816" type="curve" smooth="yes"/>
      <point x="145.253" y="758.741"/>
      <point x="167.047" y="747.778"/>
      <point x="182.896" y="731.928" type="curve" smooth="yes"/>
      <point x="197.69" y="717.134"/>
      <point x="208.257" y="688.868"/>
      <point x="214.597" y="647.13" type="curve" smooth="yes"/>
      <point x="220.937" y="605.392"/>
      <point x="221.861" y="562.729"/>
      <point x="217.37" y="519.142" type="curve" smooth="yes"/>
      <point x="212.879" y="475.555"/>
      <point x="203.766" y="444.251"/>
      <point x="190.029" y="425.231" type="curve" smooth="yes"/>
      <point x="177.349" y="406.739"/>
      <point x="171.009" y="393.531"/>
      <point x="171.009" y="385.606" type="curve" smooth="yes"/>
      <point x="171.009" y="377.682"/>
      <point x="177.877" y="366.322"/>
      <point x="191.614" y="351.528" type="curve" smooth="yes"/>
      <point x="203.766" y="338.849"/>
      <point x="211.294" y="321.81"/>
      <point x="214.199" y="300.412" type="curve" smooth="yes"/>
      <point x="217.106" y="279.015"/>
      <point x="217.237" y="241.899"/>
      <point x="214.596" y="189.066" type="curve" smooth="yes"/>
      <point x="212.482" y="153.668"/>
      <point x="208.916" y="121.043"/>
      <point x="203.897" y="91.1924" type="curve" smooth="yes"/>
      <point x="198.878" y="61.3418"/>
      <point x="193.463" y="44.0391"/>
      <point x="187.651" y="39.2842" type="curve"/>
      <point x="182.368" y="34"/>
      <point x="169.952" y="28.4521"/>
      <point x="150.404" y="22.6406" type="curve" smooth="yes"/>
      <point x="130.856" y="16.8291"/>
      <point x="110.779" y="13.1309"/>
      <point x="90.174" y="11.5459" type="curve"/>
      <point x="53.1904" y="7.3193"/>
      <point x="30.6045" y="6.5273"/>
      <point x="22.4151" y="9.1689" type="curve" smooth="yes"/>
      <point x="14.2266" y="11.8105"/>
      <point x="10.1319" y="21.0566"/>
      <point x="10.1319" y="36.9072" type="curve" smooth="yes"/>
      <point x="10.1319" y="51.7011"/>
      <point x="14.3584" y="61.7392"/>
      <point x="22.8115" y="67.0224" type="curve" smooth="yes"/>
      <point x="31.2647" y="72.3056"/>
      <point x="48.9639" y="76.2685"/>
      <point x="75.9092" y="78.9101" type="curve" smooth="yes"/>
      <point x="139.31" y="83.665" type="line"/>
      <point x="144.856" y="186.689" type="line" smooth="yes"/>
      <point x="147.498" y="243.749"/>
      <point x="141.29" y="285.487"/>
      <point x="126.232" y="311.904" type="curve" smooth="yes"/>
      <point x="111.175" y="338.321"/>
      <point x="85.6826" y="351.529"/>
      <point x="49.7559" y="351.529" type="curve" smooth="yes"/>
      <point x="36.0186" y="351.529"/>
      <point x="25.9805" y="354.436"/>
      <point x="19.6406" y="360.247" type="curve" smooth="yes"/>
      <point x="13.3008" y="366.059"/>
      <point x="10.1309" y="375.04"/>
      <point x="10.1309" y="387.191" type="curve" smooth="yes"/>
      <point x="10.1309" y="399.343"/>
      <point x="13.3008" y="408.061"/>
      <point x="19.6406" y="413.344" type="curve" smooth="yes"/>
      <point x="25.9805" y="418.627"/>
      <point x="36.0186" y="421.269"/>
      <point x="49.7559" y="421.269" type="curve" smooth="yes"/>
      <point x="85.1543" y="421.269"/>
      <point x="110.515" y="434.609"/>
      <point x="125.836" y="461.29" type="curve" smooth="yes"/>
      <point x="141.157" y="487.971"/>
      <point x="147.497" y="530.105"/>
      <point x="144.855" y="587.693" type="curve" smooth="yes"/>
      <point x="139.309" y="689.134" type="line"/>
      <point x="75.9082" y="693.889" type="line"/>
      <point x="50.0195" y="696.53"/>
      <point x="32.585" y="700.625"/>
      <point x="23.6035" y="706.173" type="curve" smooth="yes"/>
      <point x="14.6221" y="711.721"/>
      <point x="10.1309" y="721.099"/>
      <point x="10.1309" y="734.307" type="curve"/>
    </contour>
  </outline>
</glyph>
<glyph name="Kaddare-O" format="2">
  <advance width="432"/>
  <unicode hex="E018"/>
  <outline>
    <contour>
      <point x="65.0479" y="745.01" type="line"/>
      <point x="65.0479" y="761.388"/>
      <point x="72.9717" y="771.425"/>
      <point x="88.8213" y="775.123" type="curve" smooth="yes"/>
      <point x="104.672" y="778.821"/>
      <point x="149.58" y="780.671"/>
      <point x="223.547" y="780.671" type="curve" smooth="yes"/>
      <point x="297.513" y="780.671"/>
      <point x="342.421" y="778.821"/>
      <point x="358.271" y="775.123" type="curve" smooth="yes"/>
      <point x="374.122" y="771.425"/>
      <point x="382.047" y="761.387"/>
      <point x="382.047" y="745.009" type="curve" smooth="yes"/>
      <point x="382.047" y="731.271"/>
      <point x="378.084" y="722.025"/>
      <point x="370.159" y="717.271" type="curve" smooth="yes"/>
      <point x="362.234" y="712.516"/>
      <point x="346.913" y="710.139"/>
      <point x="324.195" y="710.139" type="curve" smooth="yes"/>
      <point x="267.928" y="710.139" type="line"/>
      <point x="339.253" y="414.536" type="line" smooth="yes"/>
      <point x="393.143" y="192.636"/>
      <point x="421.408" y="69.0058"/>
      <point x="424.05" y="43.6455" type="curve"/>
      <point x="427.22" y="20.3994"/>
      <point x="424.05" y="7.98335"/>
      <point x="414.54" y="6.39835" type="curve"/>
      <point x="413.483" y="5.87005"/>
      <point x="406.615" y="5.60545"/>
      <point x="393.935" y="5.60545" type="curve" smooth="yes"/>
      <point x="383.368" y="5.60545"/>
      <point x="375.443" y="7.19045"/>
      <point x="370.16" y="10.3614" type="curve" smooth="yes"/>
      <point x="364.877" y="13.5313"/>
      <point x="358.405" y="24.626"/>
      <point x="350.744" y="43.6455" type="curve" smooth="yes"/>
      <point x="343.083" y="62.666"/>
      <point x="335.687" y="85.9131"/>
      <point x="328.554" y="113.387" type="curve" smooth="yes"/>
      <point x="321.422" y="140.86"/>
      <point x="310.987" y="185.24"/>
      <point x="297.25" y="246.527" type="curve" smooth="yes"/>
      <point x="264.493" y="394.46"/>
      <point x="244.416" y="487.183"/>
      <point x="237.019" y="524.694" type="curve"/>
      <point x="235.962" y="531.563"/>
      <point x="232.264" y="527.336"/>
      <point x="225.924" y="512.015" type="curve" smooth="yes"/>
      <point x="213.244" y="480.843"/>
      <point x="195.81" y="423.519"/>
      <point x="173.619" y="340.042" type="curve" smooth="yes"/>
      <point x="127.126" y="160.408"/>
      <point x="97.2755" y="57.6475"/>
      <point x="84.0675" y="31.7598" type="curve"/>
      <point x="71.9161" y="14.8525"/>
      <point x="58.9718" y="6.13477"/>
      <point x="45.2354" y="5.60647" type="curve"/>
      <point x="36.254" y="5.60647"/>
      <point x="28.461" y="7.45607"/>
      <point x="21.8565" y="11.1543" type="curve" smooth="yes"/>
      <point x="15.252" y="14.8526"/>
      <point x="11.9503" y="19.6074"/>
      <point x="11.9503" y="25.419" type="curve" smooth="yes"/>
      <point x="11.9503" y="31.7598"/>
      <point x="36.254" y="129.105"/>
      <point x="84.8604" y="317.456" type="curve" smooth="yes"/>
      <point x="133.467" y="505.807"/>
      <point x="165.695" y="626.398"/>
      <point x="181.546" y="679.231" type="curve"/>
      <point x="184.716" y="691.912"/>
      <point x="182.866" y="700.233"/>
      <point x="175.998" y="704.195" type="curve" smooth="yes"/>
      <point x="169.13" y="708.158"/>
      <point x="153.016" y="710.14"/>
      <point x="127.655" y="710.14" type="curve" smooth="yes"/>
      <point x="102.295" y="710.14"/>
      <point x="85.5206" y="712.517"/>
      <point x="77.3311" y="717.271" type="curve" smooth="yes"/>
      <point x="69.1426" y="722.026"/>
      <point x="65.0479" y="731.272"/>
      <point x="65.0479" y="745.01" type="curve"/>
    </contour>
  </outline>
</glyph>
<glyph name="Kaddare-U" format="2">
  <advance width="594"/>
  <unicode hex="E019"/>
  <outline>
    <contour>
      <point x="56.3252" y="711.265" type="line"/>
      <point x="74.2881" y="729.757"/>
      <point x="92.1191" y="741.38"/>
      <point x="109.818" y="746.135" type="curve" smooth="yes"/>
      <point x="127.518" y="750.89"/>
      <point x="160.538" y="753.268"/>
      <point x="208.881" y="753.268" type="curve" smooth="yes"/>
      <point x="257.224" y="753.268"/>
      <point x="290.377" y="750.89"/>
      <point x="308.341" y="746.135" type="curve" smooth="yes"/>
      <point x="326.305" y="741.38"/>
      <point x="344.004" y="729.757"/>
      <point x="361.438" y="711.265" type="curve"/>
      <point x="379.93" y="693.302"/>
      <point x="391.686" y="675.471"/>
      <point x="396.705" y="657.771" type="curve" smooth="yes"/>
      <point x="401.724" y="640.072"/>
      <point x="404.233" y="606.919"/>
      <point x="404.233" y="558.312" type="curve" smooth="yes"/>
      <point x="404.233" y="438.909"/>
      <point x="370.42" y="379.207"/>
      <point x="302.794" y="379.207" type="curve" smooth="yes"/>
      <point x="288" y="379.207"/>
      <point x="277.565" y="384.49"/>
      <point x="271.489" y="395.058" type="curve" smooth="yes"/>
      <point x="265.414" y="405.624"/>
      <point x="265.414" y="416.851"/>
      <point x="271.489" y="428.738" type="curve" smooth="yes"/>
      <point x="277.565" y="440.626"/>
      <point x="288" y="448.684"/>
      <point x="302.794" y="452.91" type="curve" smooth="yes"/>
      <point x="316.53" y="456.608"/>
      <point x="325.512" y="464.665"/>
      <point x="329.738" y="477.081" type="curve" smooth="yes"/>
      <point x="333.965" y="489.497"/>
      <point x="336.078" y="514.989"/>
      <point x="336.078" y="553.558" type="curve" smooth="yes"/>
      <point x="336.078" y="578.918"/>
      <point x="334.097" y="602.297"/>
      <point x="330.135" y="623.694" type="curve" smooth="yes"/>
      <point x="326.173" y="645.092"/>
      <point x="321.55" y="658.696"/>
      <point x="316.266" y="664.508" type="curve"/>
      <point x="302.529" y="678.244"/>
      <point x="266.734" y="685.244"/>
      <point x="208.882" y="685.509" type="curve" smooth="yes"/>
      <point x="151.029" y="685.773"/>
      <point x="115.499" y="678.773"/>
      <point x="102.291" y="664.509" type="curve"/>
      <point x="92.7813" y="655.527"/>
      <point x="86.1768" y="605.731"/>
      <point x="82.4786" y="515.122" type="curve" smooth="yes"/>
      <point x="78.7803" y="424.513"/>
      <point x="78.7803" y="334.036"/>
      <point x="82.4786" y="243.691" type="curve" smooth="yes"/>
      <point x="86.1768" y="153.347"/>
      <point x="92.7813" y="103.419"/>
      <point x="102.291" y="93.9081" type="curve" smooth="yes"/>
      <point x="115.499" y="80.7001"/>
      <point x="186.031" y="74.0956"/>
      <point x="313.888" y="74.0956" type="curve" smooth="yes"/>
      <point x="392.081" y="74.0956"/>
      <point x="444.519" y="75.8124"/>
      <point x="471.199" y="79.247" type="curve" smooth="yes"/>
      <point x="497.88" y="82.6815"/>
      <point x="513.069" y="89.4179"/>
      <point x="516.768" y="99.456" type="curve" smooth="yes"/>
      <point x="520.994" y="111.607"/>
      <point x="529.315" y="119.664"/>
      <point x="541.732" y="123.626" type="curve" smooth="yes"/>
      <point x="554.148" y="127.589"/>
      <point x="565.374" y="126.532"/>
      <point x="575.412" y="120.456" type="curve" smooth="yes"/>
      <point x="585.45" y="114.381"/>
      <point x="590.47" y="105.268"/>
      <point x="590.47" y="93.1162" type="curve" smooth="yes"/>
      <point x="590.47" y="69.8691"/>
      <point x="582.149" y="52.1699"/>
      <point x="565.506" y="40.0185" type="curve" smooth="yes"/>
      <point x="548.864" y="27.8671"/>
      <point x="520.599" y="19.2822"/>
      <point x="480.709" y="14.2636" type="curve" smooth="yes"/>
      <point x="440.819" y="9.24409"/>
      <point x="382.307" y="6.73429"/>
      <point x="305.17" y="6.73429" type="curve" smooth="yes"/>
      <point x="260.262" y="6.73429"/>
      <point x="227.241" y="6.86609"/>
      <point x="206.107" y="7.13069" type="curve" smooth="yes"/>
      <point x="184.974" y="7.39529"/>
      <point x="164.501" y="8.05549"/>
      <point x="144.689" y="9.11209" type="curve" smooth="yes"/>
      <point x="124.876" y="10.1687"/>
      <point x="110.743" y="12.5457"/>
      <point x="102.29" y="16.2439" type="curve" smooth="yes"/>
      <point x="93.837" y="19.9422"/>
      <point x="86.3087" y="24.0369"/>
      <point x="79.7042" y="28.5281" type="curve" smooth="yes"/>
      <point x="73.0997" y="33.0193"/>
      <point x="65.3067" y="39.7556"/>
      <point x="56.3253" y="48.7371" type="curve"/>
      <point x="34.6632" y="68.8133"/>
      <point x="22.1153" y="93.116"/>
      <point x="18.6817" y="121.646" type="curve" smooth="yes"/>
      <point x="15.2471" y="150.177"/>
      <point x="13.5303" y="236.295"/>
      <point x="13.5303" y="380" type="curve" smooth="yes"/>
      <point x="13.5303" y="523.706"/>
      <point x="15.2471" y="609.824"/>
      <point x="18.6817" y="638.354" type="curve" smooth="yes"/>
      <point x="22.1153" y="666.885"/>
      <point x="34.6632" y="691.188"/>
      <point x="56.3253" y="711.264" type="curve"/>
    </contour>
  </outline>
</glyph>
<glyph name="Kaddare-Small-B" format="2">
  <advance width="400"/>
  <unicode hex="E01A"/>
  <outline>
    <contour>
      <point x="129" y="724" type="line"/>
      <point x="153" y="736"/>
      <point x="172.667" y="741.998"/>
      <point x="188" y="741.998" type="curve"/>
      <point x="202.667" y="742.665"/>
      <point x="209" y="738.332"/>
      <point x="207" y="729" type="curve"/>
      <point x="203.667" y="715.667"/>
      <point x="189.667" y="702.667"/>
      <point x="165" y="690" type="curve"/>
      <point x="133.667" y="675.333"/>
      <point x="115.834" y="652.166"/>
      <point x="111.501" y="620.499" type="curve" smooth="yes"/>
      <point x="107.168" y="588.832"/>
      <point x="116.501" y="553.332"/>
      <point x="139.501" y="514" type="curve" smooth="yes"/>
      <point x="162.501" y="474.667"/>
      <point x="196" y="438.667"/>
      <point x="240" y="406" type="curve" smooth="yes"/>
      <point x="294.667" y="364.667"/>
      <point x="331.167" y="325.834"/>
      <point x="349.5" y="289.501" type="curve" smooth="yes"/>
      <point x="367.833" y="253.168"/>
      <point x="374" y="208.335"/>
      <point x="368" y="155.002" type="curve"/>
      <point x="359.333" y="101.669"/>
      <point x="361.666" y="67.002"/>
      <point x="375" y="51.002" type="curve" smooth="yes"/>
      <point x="388.333" y="35.002"/>
      <point x="391.166" y="23.6689"/>
      <point x="383.499" y="17.002" type="curve" smooth="yes"/>
      <point x="375.832" y="10.335"/>
      <point x="364" y="13.668"/>
      <point x="348" y="27" type="curve"/>
      <point x="338.667" y="35.667"/>
      <point x="329.167" y="40"/>
      <point x="319.5" y="40" type="curve" smooth="yes"/>
      <point x="309.833" y="40"/>
      <point x="296.666" y="36.333"/>
      <point x="280" y="29" type="curve" smooth="yes"/>
      <point x="225.333" y="5"/>
      <point x="171" y="5"/>
      <point x="117" y="29" type="curve" smooth="yes"/>
      <point x="100.333" y="36.333"/>
      <point x="87.333" y="40"/>
      <point x="78" y="40" type="curve" smooth="yes"/>
      <point x="68.667" y="40"/>
      <point x="58.667" y="35.667"/>
      <point x="48" y="27" type="curve" smooth="yes"/>
      <point x="30.667" y="12.333"/>
      <point x="18.834" y="9"/>
      <point x="12.501" y="17" type="curve" smooth="yes"/>
      <point x="6.16797" y="25"/>
      <point x="11" y="37.333"/>
      <point x="27" y="54" type="curve"/>
      <point x="37.667" y="63.333"/>
      <point x="43.5" y="74.166"/>
      <point x="44.5" y="86.499" type="curve" smooth="yes"/>
      <point x="45.5" y="98.832"/>
      <point x="42.333" y="117.332"/>
      <point x="35" y="142" type="curve"/>
      <point x="24.333" y="183.333"/>
      <point x="23.666" y="220.166"/>
      <point x="33" y="252.499" type="curve" smooth="yes"/>
      <point x="42.333" y="284.832"/>
      <point x="64.333" y="320.332"/>
      <point x="99" y="359" type="curve" smooth="yes"/>
      <point x="158" y="423" type="line"/>
      <point x="116" y="460" type="line"/>
      <point x="104.667" y="470.667"/>
      <point x="94" y="484.334"/>
      <point x="84" y="501" type="curve" smooth="yes"/>
      <point x="74" y="517.667"/>
      <point x="67.667" y="532.334"/>
      <point x="65" y="545" type="curve" smooth="yes"/>
      <point x="57.667" y="577.667"/>
      <point x="60.834" y="612.834"/>
      <point x="74.501" y="650.501" type="curve" smooth="yes"/>
      <point x="88.168" y="688.168"/>
      <point x="106.335" y="712.668"/>
      <point x="129.002" y="724" type="curve"/>
    </contour>
    <contour>
      <point x="274" y="315.998" type="line"/>
      <point x="258.667" y="332.665"/>
      <point x="243.834" y="347"/>
      <point x="229.501" y="359" type="curve" smooth="yes"/>
      <point x="215.168" y="371"/>
      <point x="204.668" y="377"/>
      <point x="198" y="377" type="curve" smooth="yes"/>
      <point x="177.333" y="377"/>
      <point x="151.5" y="355.333"/>
      <point x="120.5" y="312" type="curve" smooth="yes"/>
      <point x="89.5" y="268.667"/>
      <point x="74" y="232.667"/>
      <point x="74" y="204" type="curve" smooth="yes"/>
      <point x="74" y="164"/>
      <point x="86" y="130"/>
      <point x="110" y="102" type="curve" smooth="yes"/>
      <point x="134" y="74"/>
      <point x="163" y="60"/>
      <point x="197" y="60" type="curve" smooth="yes"/>
      <point x="266.333" y="60"/>
      <point x="306.666" y="103.333"/>
      <point x="318" y="190" type="curve" smooth="yes"/>
      <point x="322" y="218"/>
      <point x="321.333" y="239.667"/>
      <point x="316" y="255" type="curve" smooth="yes"/>
      <point x="310.667" y="270.333"/>
      <point x="296.667" y="290.666"/>
      <point x="274" y="316" type="curve"/>
    </contour>
  </outline>
</glyph>
<glyph name="Kaddare-Small-T" format="2">
  <advance width="410"/>
  <unicode hex="E021"/>
  <outline>
    <contour>
      <point x="88" y="690" type="line" smooth="yes"/>
      <point x="129.333" y="727.333"/>
      <point x="174.497" y="742.497"/>
      <point x="223.497" y="735.497" type="curve" smooth="yes"/>
      <point x="272.497" y="728.497"/>
      <point x="312.33" y="700.664"/>
      <point x="342.997" y="651.997" type="curve" smooth="yes"/>
      <point x="358.33" y="627.33"/>
      <point x="367.497" y="597.83"/>
      <point x="370.497" y="563.497" type="curve" smooth="yes"/>
      <point x="373.497" y="529.164"/>
      <point x="373.664" y="451.331"/>
      <point x="370.997" y="329.998" type="curve" smooth="yes"/>
      <point x="369.664" y="149.998"/>
      <point x="373.331" y="53.998"/>
      <point x="381.998" y="41.998" type="curve"/>
      <point x="391.331" y="25.998"/>
      <point x="391.998" y="15.665"/>
      <point x="383.998" y="10.998" type="curve" smooth="yes"/>
      <point x="375.998" y="6.33105"/>
      <point x="364.331" y="9.99805"/>
      <point x="348.998" y="21.998" type="curve"/>
      <point x="339.665" y="30.665"/>
      <point x="330.165" y="34.998"/>
      <point x="320.498" y="34.998" type="curve" smooth="yes"/>
      <point x="310.831" y="34.998"/>
      <point x="297.664" y="31.3311"/>
      <point x="280.997" y="23.998" type="curve" smooth="yes"/>
      <point x="226.33" y="-0.00195312"/>
      <point x="171.997" y="-0.00195312"/>
      <point x="117.997" y="23.998" type="curve" smooth="yes"/>
      <point x="101.33" y="31.3311"/>
      <point x="88.3301" y="34.998"/>
      <point x="78.9971" y="34.998" type="curve" smooth="yes"/>
      <point x="69.6641" y="34.998"/>
      <point x="59.6641" y="30.665"/>
      <point x="48.9971" y="21.998" type="curve"/>
      <point x="37.6641" y="13.3311"/>
      <point x="28.3311" y="8.83105"/>
      <point x="20.9981" y="8.49805" type="curve" smooth="yes"/>
      <point x="13.6651" y="8.16505"/>
      <point x="10.3321" y="12.332"/>
      <point x="11" y="21" type="curve" smooth="yes"/>
      <point x="11.667" y="29.667"/>
      <point x="17.334" y="39"/>
      <point x="28" y="49" type="curve" smooth="yes"/>
      <point x="39.333" y="59.667"/>
      <point x="45.5" y="70.167"/>
      <point x="46.5" y="80.5" type="curve" smooth="yes"/>
      <point x="47.5" y="90.833"/>
      <point x="45" y="105.333"/>
      <point x="39" y="124" type="curve"/>
      <point x="34.333" y="136.667"/>
      <point x="30.833" y="170.834"/>
      <point x="28.5" y="226.501" type="curve" smooth="yes"/>
      <point x="26.167" y="282.168"/>
      <point x="26" y="342"/>
      <point x="28" y="406" type="curve" smooth="yes"/>
      <point x="33" y="642" type="line"/>
    </contour>
    <contour>
      <point x="282.997" y="646.997" type="line"/>
      <point x="271.664" y="658.997"/>
      <point x="257.832" y="668.995"/>
      <point x="241.499" y="676.995" type="curve" smooth="yes"/>
      <point x="225.166" y="684.995"/>
      <point x="211" y="688.995"/>
      <point x="199" y="688.995" type="curve" smooth="yes"/>
      <point x="187" y="688.995"/>
      <point x="172.833" y="684.995"/>
      <point x="156.5" y="676.995" type="curve" smooth="yes"/>
      <point x="140.167" y="668.995"/>
      <point x="127" y="658.995"/>
      <point x="117" y="646.995" type="curve"/>
      <point x="89" y="619.662"/>
      <point x="74.667" y="577.329"/>
      <point x="74" y="519.996" type="curve" smooth="yes"/>
      <point x="73.333" y="462.663"/>
      <point x="86.666" y="404.996"/>
      <point x="114" y="346.996" type="curve" smooth="yes"/>
      <point x="138.667" y="295.663"/>
      <point x="173.334" y="244.33"/>
      <point x="218" y="192.997" type="curve" smooth="yes"/>
      <point x="262.667" y="141.664"/>
      <point x="291.5" y="120.331"/>
      <point x="304.5" y="128.998" type="curve" smooth="yes"/>
      <point x="317.5" y="137.665"/>
      <point x="324" y="218.998"/>
      <point x="324" y="372.998" type="curve" smooth="yes"/>
      <point x="324" y="454.331"/>
      <point x="323.167" y="509.831"/>
      <point x="321.5" y="539.498" type="curve" smooth="yes"/>
      <point x="319.833" y="569.165"/>
      <point x="316.666" y="591.165"/>
      <point x="312" y="605.498" type="curve" smooth="yes"/>
      <point x="307.333" y="619.831"/>
      <point x="297.666" y="633.664"/>
      <point x="283" y="646.997" type="curve"/>
    </contour>
    <contour>
      <point x="224.998" y="114.995" type="line"/>
      <point x="211.665" y="126.995"/>
      <point x="194.998" y="144.662"/>
      <point x="174.998" y="167.995" type="curve" smooth="yes"/>
      <point x="154.998" y="191.328"/>
      <point x="138.331" y="213.661"/>
      <point x="124.998" y="234.994" type="curve"/>
      <point x="70.998" y="312.994" type="line"/>
      <point x="77.998" y="214.994" type="line" smooth="yes"/>
      <point x="81.998" y="159.661"/>
      <point x="94.498" y="119.161"/>
      <point x="115.498" y="93.4941" type="curve" smooth="yes"/>
      <point x="136.498" y="67.8271"/>
      <point x="166.998" y="54.9941"/>
      <point x="206.998" y="54.9941" type="curve" smooth="yes"/>
      <point x="240.331" y="54.9941"/>
      <point x="258.498" y="59.3271"/>
      <point x="261.498" y="67.9941" type="curve" smooth="yes"/>
      <point x="264.498" y="76.6611"/>
      <point x="252.331" y="92.3281"/>
      <point x="224.998" y="114.995" type="curve"/>
    </contour>
  </outline>
</glyph>
<glyph name="Kaddare-Small-J" format="2">
  <advance width="380"/>
  <unicode hex="E022"/>
  <outline>
    <contour>
      <point x="77" y="709" type="line"/>
      <point x="116.333" y="748.333"/>
      <point x="156.333" y="749.668"/>
      <point x="197" y="713.001" type="curve" smooth="yes"/>
      <point x="214.333" y="697.001"/>
      <point x="223.833" y="670.668"/>
      <point x="225.5" y="634.001" type="curve" smooth="yes"/>
      <point x="227.167" y="597.334"/>
      <point x="219.667" y="572.334"/>
      <point x="203" y="559.001" type="curve" smooth="yes"/>
      <point x="192.333" y="550.334"/>
      <point x="187.5" y="541.667"/>
      <point x="188.5" y="533" type="curve" smooth="yes"/>
      <point x="189.5" y="524.333"/>
      <point x="197.333" y="509"/>
      <point x="212" y="487" type="curve"/>
      <point x="236.667" y="445.667"/>
      <point x="246" y="412.5"/>
      <point x="240" y="387.5" type="curve" smooth="yes"/>
      <point x="234" y="362.5"/>
      <point x="209" y="332.333"/>
      <point x="165" y="297" type="curve" smooth="yes"/>
      <point x="112.333" y="255.667"/>
      <point x="82" y="229"/>
      <point x="74" y="217" type="curve"/>
      <point x="62" y="201.667"/>
      <point x="57.667" y="184.834"/>
      <point x="61" y="166.501" type="curve" smooth="yes"/>
      <point x="64.333" y="148.168"/>
      <point x="71.833" y="131"/>
      <point x="83.5" y="115" type="curve" smooth="yes"/>
      <point x="95.167" y="99"/>
      <point x="111.5" y="85.5"/>
      <point x="132.5" y="74.5" type="curve" smooth="yes"/>
      <point x="153.5" y="63.5"/>
      <point x="175" y="58"/>
      <point x="197" y="58" type="curve" smooth="yes"/>
      <point x="217.667" y="58"/>
      <point x="230.5" y="59.833"/>
      <point x="235.5" y="63.5" type="curve" smooth="yes"/>
      <point x="240.5" y="67.167"/>
      <point x="240.667" y="75"/>
      <point x="236" y="87" type="curve"/>
      <point x="203.333" y="160.333"/>
      <point x="205.666" y="214.666"/>
      <point x="243" y="250" type="curve" smooth="yes"/>
      <point x="256.333" y="262"/>
      <point x="267.666" y="269.167"/>
      <point x="277" y="271.5" type="curve" smooth="yes"/>
      <point x="286.333" y="273.833"/>
      <point x="296" y="271.666"/>
      <point x="306" y="264.999" type="curve"/>
      <point x="323.333" y="254.332"/>
      <point x="334.333" y="227.999"/>
      <point x="339" y="185.999" type="curve" smooth="yes"/>
      <point x="343.667" y="143.999"/>
      <point x="338.667" y="114.666"/>
      <point x="324" y="97.999" type="curve" smooth="yes"/>
      <point x="316.667" y="89.332"/>
      <point x="313.834" y="80.665"/>
      <point x="315.501" y="71.998" type="curve" smooth="yes"/>
      <point x="317.168" y="63.331"/>
      <point x="324.001" y="51.998"/>
      <point x="336.001" y="37.998" type="curve" smooth="yes"/>
      <point x="353.334" y="18.665"/>
      <point x="361.001" y="8.66502"/>
      <point x="359.001" y="7.99802" type="curve"/>
      <point x="357.668" y="7.99802"/>
      <point x="349.668" y="10.331"/>
      <point x="335.001" y="14.998" type="curve"/>
      <point x="315.001" y="23.665"/>
      <point x="295.334" y="26.998"/>
      <point x="276.001" y="24.998" type="curve"/>
      <point x="214.668" y="16.998"/>
      <point x="168.835" y="16.165"/>
      <point x="138.502" y="22.498" type="curve" smooth="yes"/>
      <point x="108.169" y="28.831"/>
      <point x="81.336" y="44.998"/>
      <point x="58.003" y="70.998" type="curve"/>
      <point x="45.336" y="86.331"/>
      <point x="34.169" y="102.998"/>
      <point x="24.502" y="120.998" type="curve" smooth="yes"/>
      <point x="14.835" y="138.998"/>
      <point x="10.002" y="153.665"/>
      <point x="10.002" y="164.998" type="curve" smooth="yes"/>
      <point x="10.002" y="188.331"/>
      <point x="22.835" y="216.331"/>
      <point x="48.502" y="248.998" type="curve" smooth="yes"/>
      <point x="74.169" y="281.665"/>
      <point x="102.669" y="306.332"/>
      <point x="134.002" y="322.999" type="curve" smooth="yes"/>
      <point x="188.669" y="352.332"/>
      <point x="202.669" y="397.999"/>
      <point x="176.002" y="459.999" type="curve"/>
      <point x="162.669" y="494.666"/>
      <point x="144.002" y="510.333"/>
      <point x="120.002" y="507" type="curve"/>
      <point x="84.669" y="504.333"/>
      <point x="66.669" y="506"/>
      <point x="66.002" y="512" type="curve"/>
      <point x="65.335" y="515.333"/>
      <point x="71.002" y="521.333"/>
      <point x="83.002" y="530" type="curve"/>
      <point x="96.335" y="540.667"/>
      <point x="102.835" y="548.5"/>
      <point x="102.502" y="553.5" type="curve" smooth="yes"/>
      <point x="102.169" y="558.5"/>
      <point x="94.002" y="567.667"/>
      <point x="78.002" y="581" type="curve"/>
      <point x="33.335" y="623"/>
      <point x="33.002" y="665.667"/>
      <point x="77.002" y="709" type="curve"/>
    </contour>
    <contour>
      <point x="185" y="674.002" type="line"/>
      <point x="177.667" y="686.002"/>
      <point x="166.5" y="691.501"/>
      <point x="151.5" y="690.501" type="curve" smooth="yes"/>
      <point x="136.5" y="689.501"/>
      <point x="123.167" y="682"/>
      <point x="111.5" y="668" type="curve" smooth="yes"/>
      <point x="99.833" y="654"/>
      <point x="99.833" y="635"/>
      <point x="111.5" y="611" type="curve" smooth="yes"/>
      <point x="123.167" y="587"/>
      <point x="137.667" y="575"/>
      <point x="155" y="575" type="curve" smooth="yes"/>
      <point x="167" y="575"/>
      <point x="177" y="588.333"/>
      <point x="185" y="615" type="curve" smooth="yes"/>
      <point x="193" y="641.667"/>
      <point x="193" y="661.334"/>
      <point x="185" y="674" type="curve"/>
    </contour>
    <contour>
      <point x="288" y="147" type="line"/>
      <point x="294.667" y="165.667"/>
      <point x="294.667" y="185"/>
      <point x="288" y="205" type="curve"/>
      <point x="284.667" y="218.333"/>
      <point x="282.334" y="225"/>
      <point x="281" y="225" type="curve" smooth="yes"/>
      <point x="279.667" y="225"/>
      <point x="275.334" y="218.333"/>
      <point x="268" y="205" type="curve"/>
      <point x="260" y="185"/>
      <point x="260" y="165.667"/>
      <point x="268" y="147" type="curve"/>
      <point x="275.333" y="132.333"/>
      <point x="279.666" y="125"/>
      <point x="281" y="125" type="curve" smooth="yes"/>
      <point x="282.333" y="125"/>
      <point x="284.666" y="132.333"/>
      <point x="288" y="147" type="curve"/>
    </contour>
  </outline>
</glyph>
<glyph name="Kaddare-Small-SH" format="2">
  <advance width="524"/>
  <unicode hex="E022"/>
  <outline>
    <contour>
      <point x="48" y="410" type="line"/>
      <point x="48" y="550.667"/>
      <point x="49.332" y="640.831"/>
      <point x="52" y="680.498" type="curve" smooth="yes"/>
      <point x="54.667" y="720.165"/>
      <point x="61.5" y="739.998"/>
      <point x="72.5" y="739.998" type="curve" smooth="yes"/>
      <point x="83.5" y="739.998"/>
      <point x="90.333" y="721.665"/>
      <point x="93" y="684.998" type="curve" smooth="yes"/>
      <point x="95.667" y="648.331"/>
      <point x="97" y="562.998"/>
      <point x="97" y="428.998" type="curve" smooth="yes"/>
      <point x="97" y="372.998"/>
      <point x="97.5" y="326.665"/>
      <point x="98.5" y="289.998" type="curve" smooth="yes"/>
      <point x="99.5" y="253.331"/>
      <point x="101" y="220.164"/>
      <point x="103" y="190.497" type="curve" smooth="yes"/>
      <point x="105" y="160.83"/>
      <point x="107.333" y="137.997"/>
      <point x="110" y="121.997" type="curve" smooth="yes"/>
      <point x="112.667" y="105.997"/>
      <point x="116.667" y="92.6641"/>
      <point x="122" y="81.9971" type="curve" smooth="yes"/>
      <point x="127.333" y="71.3301"/>
      <point x="133.333" y="64.3301"/>
      <point x="140" y="60.9971" type="curve" smooth="yes"/>
      <point x="146.667" y="57.6641"/>
      <point x="154.667" y="55.9971"/>
      <point x="164" y="55.9971" type="curve" smooth="yes"/>
      <point x="179.333" y="55.9971"/>
      <point x="191" y="60.1641"/>
      <point x="199" y="68.4971" type="curve" smooth="yes"/>
      <point x="207" y="76.8301"/>
      <point x="213.667" y="95.3301"/>
      <point x="219" y="123.997" type="curve" smooth="yes"/>
      <point x="224.333" y="152.664"/>
      <point x="227.833" y="189.664"/>
      <point x="229.5" y="234.997" type="curve" smooth="yes"/>
      <point x="231.167" y="280.33"/>
      <point x="232" y="344.997"/>
      <point x="232" y="428.997" type="curve" smooth="yes"/>
      <point x="232" y="562.33"/>
      <point x="233.333" y="647.497"/>
      <point x="236" y="684.497" type="curve" smooth="yes"/>
      <point x="238.667" y="721.497"/>
      <point x="245.334" y="739.997"/>
      <point x="256" y="739.997" type="curve" smooth="yes"/>
      <point x="266.667" y="739.997"/>
      <point x="273.5" y="721.497"/>
      <point x="276.5" y="684.497" type="curve" smooth="yes"/>
      <point x="279.5" y="647.497"/>
      <point x="281" y="561.997"/>
      <point x="281" y="427.997" type="curve" smooth="yes"/>
      <point x="281" y="293.997"/>
      <point x="282.5" y="206.997"/>
      <point x="285.5" y="166.997" type="curve" smooth="yes"/>
      <point x="288.5" y="126.997"/>
      <point x="296.667" y="99.9971"/>
      <point x="310" y="85.9971" type="curve"/>
      <point x="327.333" y="65.9971"/>
      <point x="346.333" y="56.1641"/>
      <point x="367" y="56.4971" type="curve" smooth="yes"/>
      <point x="387.667" y="56.8301"/>
      <point x="403.334" y="66.997"/>
      <point x="414" y="86.997" type="curve"/>
      <point x="425.333" y="109.664"/>
      <point x="431" y="223.664"/>
      <point x="431" y="428.997" type="curve" smooth="yes"/>
      <point x="431" y="562.33"/>
      <point x="432.5" y="647.497"/>
      <point x="435.5" y="684.497" type="curve" smooth="yes"/>
      <point x="438.5" y="721.497"/>
      <point x="445.5" y="739.997"/>
      <point x="456.5" y="739.997" type="curve" smooth="yes"/>
      <point x="467.5" y="739.997"/>
      <point x="474.333" y="719.83"/>
      <point x="477" y="679.497" type="curve" smooth="yes"/>
      <point x="479.667" y="639.164"/>
      <point x="481" y="546.664"/>
      <point x="481" y="401.997" type="curve" smooth="yes"/>
      <point x="481" y="176.664"/>
      <point x="488" y="56.997"/>
      <point x="502" y="42.997" type="curve" smooth="yes"/>
      <point x="517.333" y="27.664"/>
      <point x="519.333" y="17.331"/>
      <point x="508" y="11.998" type="curve" smooth="yes"/>
      <point x="499.333" y="7.99802"/>
      <point x="487.666" y="11.665"/>
      <point x="473" y="22.998" type="curve"/>
      <point x="455.667" y="38.331"/>
      <point x="440.334" y="39.331"/>
      <point x="427" y="25.998" type="curve"/>
      <point x="413.667" y="11.331"/>
      <point x="392.5" y="4.83103"/>
      <point x="363.5" y="6.49803" type="curve" smooth="yes"/>
      <point x="334.5" y="8.16503"/>
      <point x="311.333" y="17.665"/>
      <point x="294" y="34.998" type="curve" smooth="yes"/>
      <point x="280.667" y="47.665"/>
      <point x="270.667" y="53.832"/>
      <point x="264" y="53.499" type="curve" smooth="yes"/>
      <point x="257.333" y="53.166"/>
      <point x="246.666" y="45.666"/>
      <point x="232" y="31" type="curve"/>
      <point x="208.667" y="11.667"/>
      <point x="182" y="5.66699"/>
      <point x="152" y="13" type="curve" smooth="yes"/>
      <point x="120" y="21"/>
      <point x="95.333" y="25.167"/>
      <point x="78" y="25.5" type="curve" smooth="yes"/>
      <point x="60.667" y="25.833"/>
      <point x="42.667" y="22"/>
      <point x="24" y="14" type="curve" smooth="yes"/>
      <point x="8" y="7.33301"/>
      <point x="0" y="5.33301"/>
      <point x="0" y="8" type="curve" smooth="yes"/>
      <point x="0" y="10.667"/>
      <point x="6.33301" y="21"/>
      <point x="19" y="39" type="curve" smooth="yes"/>
      <point x="31.667" y="56.333"/>
      <point x="39.667" y="86.833"/>
      <point x="43" y="130.5" type="curve" smooth="yes"/>
      <point x="46.333" y="174.167"/>
      <point x="48" y="267.334"/>
      <point x="48" y="410" type="curve"/>
    </contour>
  </outline>
</glyph>
<glyph name="Kaddare-Small-X" format="2">
  <advance width="378"/>
  <unicode hex="E023"/>
  <outline>
    <contour>
      <point x="124" y="688" type="line"/>
      <point x="160" y="728"/>
      <point x="183" y="743.668"/>
      <point x="193" y="735" type="curve"/>
      <point x="199.667" y="729.667"/>
      <point x="196.334" y="713.667"/>
      <point x="183" y="687" type="curve" smooth="yes"/>
      <point x="167" y="655"/>
      <point x="159.167" y="614.5"/>
      <point x="159.5" y="565.5" type="curve" smooth="yes"/>
      <point x="159.833" y="516.5"/>
      <point x="168" y="480"/>
      <point x="184" y="456" type="curve"/>
      <point x="201.333" y="432"/>
      <point x="226.333" y="420"/>
      <point x="259" y="420" type="curve" smooth="yes"/>
      <point x="291" y="420"/>
      <point x="307" y="411.667"/>
      <point x="307" y="395" type="curve" smooth="yes"/>
      <point x="307" y="378.333"/>
      <point x="293" y="370"/>
      <point x="265" y="370" type="curve" smooth="yes"/>
      <point x="215.667" y="370"/>
      <point x="168.834" y="348.333"/>
      <point x="124.501" y="305" type="curve" smooth="yes"/>
      <point x="80.168" y="261.667"/>
      <point x="58" y="215.667"/>
      <point x="58" y="167" type="curve" smooth="yes"/>
      <point x="58" y="139"/>
      <point x="72.333" y="113"/>
      <point x="101" y="89" type="curve" smooth="yes"/>
      <point x="129.667" y="65"/>
      <point x="161" y="53"/>
      <point x="195" y="53" type="curve" smooth="yes"/>
      <point x="215.667" y="53"/>
      <point x="228.334" y="54.833"/>
      <point x="233" y="58.5" type="curve" smooth="yes"/>
      <point x="237.667" y="62.167"/>
      <point x="237.667" y="70"/>
      <point x="233" y="82" type="curve"/>
      <point x="205" y="146.667"/>
      <point x="207" y="198.334"/>
      <point x="239" y="237" type="curve" smooth="yes"/>
      <point x="252.333" y="253.667"/>
      <point x="263" y="263.667"/>
      <point x="271" y="267" type="curve" smooth="yes"/>
      <point x="279" y="270.333"/>
      <point x="289.667" y="268"/>
      <point x="303" y="260" type="curve" smooth="yes"/>
      <point x="321.667" y="249.333"/>
      <point x="333.334" y="223.166"/>
      <point x="338" y="181.499" type="curve" smooth="yes"/>
      <point x="342.667" y="139.832"/>
      <point x="337.667" y="110.332"/>
      <point x="323" y="93" type="curve"/>
      <point x="315" y="84.333"/>
      <point x="311.833" y="75.666"/>
      <point x="313.5" y="67" type="curve" smooth="yes"/>
      <point x="315.167" y="58.333"/>
      <point x="322" y="47"/>
      <point x="334" y="33" type="curve" smooth="yes"/>
      <point x="351.333" y="13.667"/>
      <point x="359" y="3.66699"/>
      <point x="357" y="3" type="curve"/>
      <point x="355.667" y="3"/>
      <point x="347.667" y="5.333"/>
      <point x="333" y="10" type="curve"/>
      <point x="311.667" y="19.333"/>
      <point x="294.667" y="23.333"/>
      <point x="282" y="22" type="curve"/>
      <point x="278.667" y="21.333"/>
      <point x="250" y="17.333"/>
      <point x="196" y="10" type="curve" smooth="yes"/>
      <point x="164" y="5.33301"/>
      <point x="141" y="5.50001"/>
      <point x="127" y="10.5" type="curve" smooth="yes"/>
      <point x="113" y="15.5"/>
      <point x="92.667" y="31.333"/>
      <point x="66" y="58" type="curve" smooth="yes"/>
      <point x="21.333" y="102"/>
      <point x="3.66602" y="153"/>
      <point x="13" y="211" type="curve" smooth="yes"/>
      <point x="22.333" y="269"/>
      <point x="55.666" y="317.667"/>
      <point x="113" y="357" type="curve" smooth="yes"/>
      <point x="171" y="395" type="line"/>
      <point x="139" y="435" type="line" smooth="yes"/>
      <point x="118.333" y="461.667"/>
      <point x="108" y="498.667"/>
      <point x="108" y="546" type="curve" smooth="yes"/>
      <point x="108" y="581.333"/>
      <point x="106.167" y="601.833"/>
      <point x="102.5" y="607.5" type="curve" smooth="yes"/>
      <point x="98.833" y="613.167"/>
      <point x="88.666" y="611.667"/>
      <point x="72" y="603" type="curve"/>
      <point x="63.333" y="597.667"/>
      <point x="54.333" y="594.167"/>
      <point x="45" y="592.5" type="curve" smooth="yes"/>
      <point x="35.667" y="590.833"/>
      <point x="30" y="592"/>
      <point x="28" y="596" type="curve"/>
      <point x="20.667" y="602.667"/>
      <point x="27.667" y="611.667"/>
      <point x="49" y="623" type="curve"/>
      <point x="72.333" y="638.333"/>
      <point x="97.333" y="660"/>
      <point x="124" y="688" type="curve"/>
    </contour>
    <contour>
      <point x="286" y="142" type="line"/>
      <point x="292.667" y="160.667"/>
      <point x="292.667" y="180"/>
      <point x="286" y="200" type="curve"/>
      <point x="282.667" y="213.333"/>
      <point x="280.167" y="220"/>
      <point x="278.5" y="220" type="curve" smooth="yes"/>
      <point x="276.833" y="220"/>
      <point x="272.333" y="213.333"/>
      <point x="265" y="200" type="curve"/>
      <point x="257" y="180"/>
      <point x="257" y="160.667"/>
      <point x="265" y="142" type="curve"/>
      <point x="272.333" y="127.333"/>
      <point x="276.833" y="120"/>
      <point x="278.5" y="120" type="curve" smooth="yes"/>
      <point x="280.167" y="120"/>
      <point x="282.667" y="127.333"/>
      <point x="286" y="142" type="curve"/>
    </contour>
  </outline>
</glyph>
<glyph name="Kaddare-Small-KH" format="2">
  <advance width="459"/>
  <unicode hex="E024"/>
  <outline>
    <contour>
      <point x="107" y="717.5" type="line"/>
      <point x="107" y="723.833"/>
      <point x="109.337" y="729.335"/>
      <point x="114.004" y="734.002" type="curve" smooth="yes"/>
      <point x="118.671" y="738.669"/>
      <point x="124.671" y="741.002"/>
      <point x="132.004" y="741.002" type="curve" smooth="yes"/>
      <point x="141.337" y="741.002"/>
      <point x="147.837" y="732.169"/>
      <point x="151.504" y="714.502" type="curve" smooth="yes"/>
      <point x="155.171" y="696.835"/>
      <point x="157.004" y="661.668"/>
      <point x="157.004" y="609" type="curve" smooth="yes"/>
      <point x="157.004" y="549"/>
      <point x="159.004" y="510.167"/>
      <point x="163.004" y="492.5" type="curve" smooth="yes"/>
      <point x="167.004" y="474.833"/>
      <point x="177.004" y="461"/>
      <point x="193.004" y="451" type="curve"/>
      <point x="217.004" y="434.333"/>
      <point x="241.671" y="426"/>
      <point x="267.004" y="426" type="curve" smooth="yes"/>
      <point x="292.337" y="426"/>
      <point x="313.337" y="434.333"/>
      <point x="330.004" y="451" type="curve"/>
      <point x="339.337" y="459.667"/>
      <point x="346.17" y="475.834"/>
      <point x="350.503" y="499.501" type="curve" smooth="yes"/>
      <point x="354.836" y="523.168"/>
      <point x="357.003" y="559.668"/>
      <point x="357.003" y="609" type="curve" smooth="yes"/>
      <point x="357.003" y="660.333"/>
      <point x="358.503" y="695.166"/>
      <point x="361.503" y="713.499" type="curve" smooth="yes"/>
      <point x="364.503" y="731.832"/>
      <point x="370.67" y="741"/>
      <point x="380.003" y="741" type="curve" smooth="yes"/>
      <point x="389.336" y="741"/>
      <point x="396.169" y="730.167"/>
      <point x="400.502" y="708.5" type="curve" smooth="yes"/>
      <point x="404.835" y="686.833"/>
      <point x="408.335" y="646.666"/>
      <point x="411.002" y="588" type="curve" smooth="yes"/>
      <point x="415.002" y="489.333"/>
      <point x="421.335" y="426.666"/>
      <point x="430.002" y="400" type="curve"/>
      <point x="437.335" y="386.667"/>
      <point x="439.668" y="379.334"/>
      <point x="437" y="378" type="curve" smooth="yes"/>
      <point x="434.333" y="376.667"/>
      <point x="424.666" y="380"/>
      <point x="408" y="388" type="curve"/>
      <point x="394.667" y="396"/>
      <point x="381.167" y="399.833"/>
      <point x="367.5" y="399.5" type="curve" smooth="yes"/>
      <point x="353.833" y="399.167"/>
      <point x="335.666" y="395"/>
      <point x="313" y="387" type="curve" smooth="yes"/>
      <point x="275.667" y="374.333"/>
      <point x="240.334" y="374"/>
      <point x="207" y="386" type="curve" smooth="yes"/>
      <point x="157" y="404" type="line"/>
      <point x="157" y="206" type="line" smooth="yes"/>
      <point x="157" y="163.333"/>
      <point x="156.667" y="129.666"/>
      <point x="156" y="105" type="curve" smooth="yes"/>
      <point x="155.333" y="80.333"/>
      <point x="154" y="60.333"/>
      <point x="152" y="45" type="curve" smooth="yes"/>
      <point x="150" y="29.667"/>
      <point x="147.333" y="19.5"/>
      <point x="144" y="14.5" type="curve" smooth="yes"/>
      <point x="140.667" y="9.5"/>
      <point x="136.667" y="7"/>
      <point x="132" y="7" type="curve" smooth="yes"/>
      <point x="120.667" y="7"/>
      <point x="113.667" y="25.833"/>
      <point x="111" y="63.5" type="curve" smooth="yes"/>
      <point x="108.333" y="101.167"/>
      <point x="107" y="187.334"/>
      <point x="107" y="322" type="curve" smooth="yes"/>
      <point x="107" y="639" type="line"/>
      <point x="61" y="615" type="line" smooth="yes"/>
      <point x="26.333" y="597.667"/>
      <point x="9.66602" y="593.334"/>
      <point x="11" y="602" type="curve"/>
      <point x="11.667" y="610"/>
      <point x="26.334" y="625.667"/>
      <point x="55" y="649" type="curve"/>
      <point x="69.667" y="661.667"/>
      <point x="82" y="674.667"/>
      <point x="92" y="688" type="curve" smooth="yes"/>
      <point x="102" y="701.333"/>
      <point x="107" y="711.166"/>
      <point x="107" y="717.499" type="curve"/>
    </contour>
    <contour>
      <point x="240.004" y="666.502" type="line"/>
      <point x="240.004" y="686.835"/>
      <point x="241.837" y="704.333"/>
      <point x="245.504" y="719" type="curve" smooth="yes"/>
      <point x="249.171" y="733.667"/>
      <point x="253.004" y="741"/>
      <point x="257.004" y="741" type="curve" smooth="yes"/>
      <point x="261.671" y="741"/>
      <point x="265.671" y="733.833"/>
      <point x="269.004" y="719.5" type="curve" smooth="yes"/>
      <point x="272.337" y="705.167"/>
      <point x="274.004" y="687.334"/>
      <point x="274.004" y="666" type="curve" smooth="yes"/>
      <point x="274.004" y="644.667"/>
      <point x="272.337" y="626.834"/>
      <point x="269.004" y="612.501" type="curve" smooth="yes"/>
      <point x="265.671" y="598.168"/>
      <point x="261.671" y="591"/>
      <point x="257.004" y="591" type="curve" smooth="yes"/>
      <point x="253.004" y="591"/>
      <point x="249.171" y="598.5"/>
      <point x="245.504" y="613.5" type="curve" smooth="yes"/>
      <point x="241.837" y="628.5"/>
      <point x="240.004" y="646.167"/>
      <point x="240.004" y="666.5" type="curve"/>
    </contour>
  </outline>
</glyph>
<glyph name="Kaddare-Small-D" format="2">
  <advance width="572"/>
  <unicode hex="E025"/>
  <outline>
    <contour>
      <point x="53" y="420" type="line"/>
      <point x="53" y="572.667"/>
      <point x="54.332" y="665"/>
      <point x="57" y="697" type="curve" smooth="yes"/>
      <point x="59.667" y="729"/>
      <point x="68.334" y="745"/>
      <point x="83" y="745" type="curve" smooth="yes"/>
      <point x="103.667" y="745"/>
      <point x="142" y="700.333"/>
      <point x="198" y="611" type="curve" smooth="yes"/>
      <point x="282" y="476" type="line"/>
      <point x="367" y="611" type="line" smooth="yes"/>
      <point x="417.667" y="691"/>
      <point x="450.334" y="734"/>
      <point x="465" y="740" type="curve"/>
      <point x="477" y="746.667"/>
      <point x="485.667" y="738.334"/>
      <point x="491" y="715" type="curve" smooth="yes"/>
      <point x="499" y="683"/>
      <point x="503" y="582.333"/>
      <point x="503" y="413" type="curve" smooth="yes"/>
      <point x="503" y="277.667"/>
      <point x="504.667" y="187.334"/>
      <point x="508" y="142" type="curve" smooth="yes"/>
      <point x="511.333" y="96.667"/>
      <point x="518" y="69.667"/>
      <point x="528" y="61" type="curve"/>
      <point x="544" y="46.333"/>
      <point x="552" y="34.666"/>
      <point x="552" y="26" type="curve" smooth="yes"/>
      <point x="552" y="8.66699"/>
      <point x="541.667" y="6"/>
      <point x="521" y="18" type="curve" smooth="yes"/>
      <point x="509.667" y="24.667"/>
      <point x="498" y="34.667"/>
      <point x="486" y="48" type="curve"/>
      <point x="470" y="64.667"/>
      <point x="460.5" y="89.5"/>
      <point x="457.5" y="122.5" type="curve" smooth="yes"/>
      <point x="454.5" y="155.5"/>
      <point x="453" y="240.333"/>
      <point x="453" y="377" type="curve" smooth="yes"/>
      <point x="453" y="670" type="line"/>
      <point x="394" y="578" type="line" smooth="yes"/>
      <point x="355.333" y="516.667"/>
      <point x="333.666" y="473.167"/>
      <point x="329" y="447.5" type="curve" smooth="yes"/>
      <point x="324.333" y="421.833"/>
      <point x="331.666" y="387.333"/>
      <point x="351" y="344" type="curve" smooth="yes"/>
      <point x="371.667" y="299.333"/>
      <point x="382.334" y="251.166"/>
      <point x="383" y="199.499" type="curve" smooth="yes"/>
      <point x="383.667" y="147.832"/>
      <point x="375" y="104.832"/>
      <point x="357" y="70.499" type="curve" smooth="yes"/>
      <point x="339" y="36.166"/>
      <point x="315.333" y="19"/>
      <point x="286" y="19" type="curve" smooth="yes"/>
      <point x="263.333" y="19"/>
      <point x="243.833" y="31.5"/>
      <point x="227.5" y="56.5" type="curve" smooth="yes"/>
      <point x="211.167" y="81.5"/>
      <point x="200.167" y="111.5"/>
      <point x="194.5" y="146.5" type="curve" smooth="yes"/>
      <point x="188.833" y="181.5"/>
      <point x="188.666" y="220.167"/>
      <point x="194" y="262.5" type="curve" smooth="yes"/>
      <point x="199.333" y="304.833"/>
      <point x="210.666" y="343"/>
      <point x="228" y="377" type="curve"/>
      <point x="232.667" y="388.333"/>
      <point x="236.334" y="396.166"/>
      <point x="239" y="400.499" type="curve" smooth="yes"/>
      <point x="241.667" y="404.832"/>
      <point x="243.167" y="411.332"/>
      <point x="243.5" y="420" type="curve" smooth="yes"/>
      <point x="243.833" y="428.667"/>
      <point x="243.5" y="434.834"/>
      <point x="242.5" y="438.501" type="curve" smooth="yes"/>
      <point x="241.5" y="442.168"/>
      <point x="237.833" y="450.835"/>
      <point x="231.5" y="464.502" type="curve" smooth="yes"/>
      <point x="225.167" y="478.169"/>
      <point x="219" y="489.836"/>
      <point x="213" y="499.503" type="curve" smooth="yes"/>
      <point x="207" y="509.17"/>
      <point x="197" y="526.003"/>
      <point x="183" y="550.003" type="curve" smooth="yes"/>
      <point x="111" y="670.003" type="line"/>
      <point x="102" y="365.003" type="line" smooth="yes"/>
      <point x="98" y="225.003"/>
      <point x="94" y="137.503"/>
      <point x="90" y="102.503" type="curve" smooth="yes"/>
      <point x="86" y="67.5029"/>
      <point x="77" y="45.0029"/>
      <point x="63" y="35.0029" type="curve" smooth="yes"/>
      <point x="27.667" y="9.66992"/>
      <point x="10.334" y="4.33691"/>
      <point x="11" y="19.0039" type="curve"/>
      <point x="11" y="26.3369"/>
      <point x="15.667" y="37.6699"/>
      <point x="25" y="53.0029" type="curve"/>
      <point x="36.333" y="69.6699"/>
      <point x="43.833" y="101.17"/>
      <point x="47.5" y="147.503" type="curve" smooth="yes"/>
      <point x="51.167" y="193.836"/>
      <point x="53" y="284.669"/>
      <point x="53" y="420.002" type="curve"/>
    </contour>
    <contour>
      <point x="329" y="250" type="line"/>
      <point x="321" y="298.667"/>
      <point x="309.667" y="333"/>
      <point x="295" y="353" type="curve" smooth="yes"/>
      <point x="285.667" y="366.333"/>
      <point x="278.667" y="370"/>
      <point x="274" y="364" type="curve"/>
      <point x="270.667" y="359.333"/>
      <point x="264.667" y="342.666"/>
      <point x="256" y="314" type="curve" smooth="yes"/>
      <point x="231.333" y="234"/>
      <point x="230" y="163.667"/>
      <point x="252" y="103" type="curve"/>
      <point x="266.667" y="65.667"/>
      <point x="282.667" y="55.667"/>
      <point x="300" y="73" type="curve" smooth="yes"/>
      <point x="320.667" y="93.667"/>
      <point x="332" y="133"/>
      <point x="334" y="191" type="curve"/>
      <point x="334" y="211"/>
      <point x="332.333" y="230.667"/>
      <point x="329" y="250" type="curve"/>
    </contour>
  </outline>
</glyph>
<glyph name="Kaddare-Small-R" format="2">
  <advance width="422"/>
  <unicode hex="E026"/>
  <outline>
    <contour>
      <point x="114" y="409" type="line"/>
      <point x="155.333" y="628.333"/>
      <point x="183.334" y="738"/>
      <point x="198" y="738" type="curve" smooth="yes"/>
      <point x="207.333" y="738"/>
      <point x="214.333" y="734"/>
      <point x="219" y="726" type="curve"/>
      <point x="226.333" y="710.667"/>
      <point x="250.333" y="601"/>
      <point x="291" y="397" type="curve"/>
      <point x="292.333" y="388.333"/>
      <point x="293.666" y="380"/>
      <point x="294.999" y="372" type="curve"/>
      <point x="333.666" y="177.333"/>
      <point x="362.666" y="70.333"/>
      <point x="381.999" y="51" type="curve"/>
      <point x="401.999" y="29.667"/>
      <point x="406.666" y="16.334"/>
      <point x="395.999" y="11" type="curve" smooth="yes"/>
      <point x="386.666" y="6.33301"/>
      <point x="370.666" y="11"/>
      <point x="347.999" y="25" type="curve"/>
      <point x="331.999" y="36.333"/>
      <point x="319.832" y="42"/>
      <point x="311.499" y="42" type="curve" smooth="yes"/>
      <point x="303.166" y="42"/>
      <point x="292.333" y="37.333"/>
      <point x="279" y="28" type="curve"/>
      <point x="259" y="12.667"/>
      <point x="234.333" y="5.16699"/>
      <point x="205" y="5.49999" type="curve" smooth="yes"/>
      <point x="175.667" y="5.83299"/>
      <point x="150.667" y="13.666"/>
      <point x="130" y="29" type="curve"/>
      <point x="117.333" y="39.667"/>
      <point x="107.166" y="45"/>
      <point x="99.499" y="45" type="curve" smooth="yes"/>
      <point x="91.832" y="45"/>
      <point x="80" y="39.667"/>
      <point x="64" y="29" type="curve"/>
      <point x="28" y="2.33301"/>
      <point x="10.333" y="-3"/>
      <point x="11" y="13" type="curve"/>
      <point x="11.667" y="19.667"/>
      <point x="16" y="29.334"/>
      <point x="24" y="42" type="curve" smooth="yes"/>
      <point x="39.333" y="65.333"/>
      <point x="69.333" y="187.666"/>
      <point x="114" y="409" type="curve"/>
    </contour>
    <contour>
      <point x="237" y="430" type="line"/>
      <point x="218.333" y="530"/>
      <point x="206.335" y="585.998"/>
      <point x="201.002" y="597.998" type="curve"/>
      <point x="199.669" y="598.665"/>
      <point x="193.502" y="573.332"/>
      <point x="182.502" y="522" type="curve" smooth="yes"/>
      <point x="171.502" y="470.667"/>
      <point x="161.002" y="417.834"/>
      <point x="151.002" y="363.501" type="curve" smooth="yes"/>
      <point x="141.002" y="309.168"/>
      <point x="136.335" y="278.335"/>
      <point x="137.002" y="271.002" type="curve"/>
      <point x="137.002" y="267.669"/>
      <point x="148.669" y="265.169"/>
      <point x="172.002" y="263.502" type="curve" smooth="yes"/>
      <point x="195.335" y="261.835"/>
      <point x="216.668" y="261.002"/>
      <point x="236" y="261.002" type="curve" smooth="yes"/>
      <point x="255.333" y="261.002"/>
      <point x="266.666" y="262.002"/>
      <point x="270" y="264.002" type="curve"/>
      <point x="270.667" y="267.335"/>
      <point x="259.667" y="322.668"/>
      <point x="237" y="430" type="curve"/>
    </contour>
    <contour>
      <point x="261.003" y="194.998" type="line"/>
      <point x="254.336" y="202.331"/>
      <point x="245.169" y="208.497"/>
      <point x="233.502" y="213.497" type="curve" smooth="yes"/>
      <point x="221.835" y="218.497"/>
      <point x="212.002" y="220.997"/>
      <point x="204.002" y="220.997" type="curve" smooth="yes"/>
      <point x="182.669" y="220.997"/>
      <point x="163.336" y="211.664"/>
      <point x="146.003" y="192.997" type="curve" smooth="yes"/>
      <point x="128.67" y="174.33"/>
      <point x="120.003" y="153.33"/>
      <point x="120.003" y="129.997" type="curve" smooth="yes"/>
      <point x="120.003" y="109.997"/>
      <point x="129.003" y="92.3301"/>
      <point x="147.003" y="76.9971" type="curve" smooth="yes"/>
      <point x="165.003" y="61.6641"/>
      <point x="186.003" y="53.9971"/>
      <point x="210.003" y="53.9971" type="curve" smooth="yes"/>
      <point x="226.67" y="53.9971"/>
      <point x="243.67" y="63.4971"/>
      <point x="261.003" y="82.4971" type="curve" smooth="yes"/>
      <point x="278.336" y="101.497"/>
      <point x="287.003" y="119.997"/>
      <point x="287.003" y="137.997" type="curve" smooth="yes"/>
      <point x="287.003" y="145.997"/>
      <point x="284.503" y="155.83"/>
      <point x="279.503" y="167.497" type="curve" smooth="yes"/>
      <point x="274.503" y="179.164"/>
      <point x="268.336" y="188.331"/>
      <point x="261.003" y="194.998" type="curve"/>
    </contour>
  </outline>
</glyph>
<glyph name="Kaddare-Small-S" format="2">
  <advance width="451"/>
  <unicode hex="E027"/>
  <outline>
    <contour>
      <point x="206" y="584" type="line" smooth="yes"/>
      <point x="206" y="648"/>
      <point x="207.67" y="690.334"/>
      <point x="211.003" y="711" type="curve" smooth="yes"/>
      <point x="214.336" y="731.667"/>
      <point x="221.003" y="742"/>
      <point x="231.003" y="742" type="curve" smooth="yes"/>
      <point x="241.003" y="742"/>
      <point x="247.836" y="731.833"/>
      <point x="251.503" y="711.5" type="curve" smooth="yes"/>
      <point x="255.17" y="691.167"/>
      <point x="257.003" y="649"/>
      <point x="257.003" y="585" type="curve" smooth="yes"/>
      <point x="257.003" y="506.333"/>
      <point x="258.836" y="459.333"/>
      <point x="262.503" y="444" type="curve" smooth="yes"/>
      <point x="266.17" y="428.667"/>
      <point x="279.003" y="415.667"/>
      <point x="301.003" y="405" type="curve" smooth="yes"/>
      <point x="349.003" y="381.667"/>
      <point x="383.836" y="340.5"/>
      <point x="405.503" y="281.5" type="curve" smooth="yes"/>
      <point x="427.17" y="222.5"/>
      <point x="427.67" y="167.667"/>
      <point x="407.003" y="117" type="curve"/>
      <point x="398.336" y="93.667"/>
      <point x="402.669" y="72.334"/>
      <point x="420.002" y="53" type="curve" smooth="yes"/>
      <point x="436.002" y="34.333"/>
      <point x="441.002" y="21.666"/>
      <point x="435.002" y="15" type="curve" smooth="yes"/>
      <point x="429.002" y="8.33301"/>
      <point x="415.335" y="11"/>
      <point x="394.002" y="23" type="curve" smooth="yes"/>
      <point x="373.335" y="34.333"/>
      <point x="344.668" y="34.333"/>
      <point x="308" y="23" type="curve"/>
      <point x="274.667" y="11"/>
      <point x="236.334" y="8.333"/>
      <point x="193" y="15" type="curve" smooth="yes"/>
      <point x="146.333" y="23"/>
      <point x="112.333" y="27.167"/>
      <point x="91" y="27.5" type="curve" smooth="yes"/>
      <point x="69.667" y="27.833"/>
      <point x="49.667" y="24"/>
      <point x="31" y="16" type="curve" smooth="yes"/>
      <point x="15" y="8.66699"/>
      <point x="6.66699" y="6.33399"/>
      <point x="6" y="9" type="curve" smooth="yes"/>
      <point x="5.333" y="11.667"/>
      <point x="12.666" y="24"/>
      <point x="28" y="46" type="curve"/>
      <point x="39.333" y="63.333"/>
      <point x="45.666" y="77.5"/>
      <point x="47" y="88.5" type="curve" smooth="yes"/>
      <point x="48.333" y="99.5"/>
      <point x="46" y="111"/>
      <point x="40" y="123" type="curve"/>
      <point x="25.333" y="155.667"/>
      <point x="20" y="190.167"/>
      <point x="24" y="226.5" type="curve" smooth="yes"/>
      <point x="28" y="262.833"/>
      <point x="41.667" y="297.666"/>
      <point x="65" y="331" type="curve" smooth="yes"/>
      <point x="88.333" y="364.333"/>
      <point x="116" y="387.666"/>
      <point x="148" y="401" type="curve" smooth="yes"/>
      <point x="206" y="425" type="line"/>
    </contour>
    <contour>
      <point x="184.003" y="229" type="line"/>
      <point x="200.67" y="244.333"/>
      <point x="207.005" y="272.667"/>
      <point x="203.005" y="314" type="curve" smooth="yes"/>
      <point x="200.338" y="342.667"/>
      <point x="196.838" y="358.834"/>
      <point x="192.505" y="362.501" type="curve" smooth="yes"/>
      <point x="188.172" y="366.168"/>
      <point x="176.005" y="363"/>
      <point x="156.005" y="353" type="curve" smooth="yes"/>
      <point x="131.338" y="340.333"/>
      <point x="116.171" y="319.833"/>
      <point x="110.504" y="291.5" type="curve" smooth="yes"/>
      <point x="104.837" y="263.167"/>
      <point x="112.004" y="241"/>
      <point x="132.004" y="225" type="curve"/>
      <point x="142.671" y="215.667"/>
      <point x="151.171" y="211.167"/>
      <point x="157.504" y="211.5" type="curve" smooth="yes"/>
      <point x="163.837" y="211.833"/>
      <point x="172.67" y="217.666"/>
      <point x="184.003" y="229" type="curve"/>
    </contour>
    <contour>
      <point x="326.005" y="328.002" type="line"/>
      <point x="296.672" y="354.669"/>
      <point x="277.837" y="367.336"/>
      <point x="269.504" y="366.003" type="curve" smooth="yes"/>
      <point x="261.171" y="364.67"/>
      <point x="257.004" y="348.003"/>
      <point x="257.004" y="316.003" type="curve" smooth="yes"/>
      <point x="257.004" y="259.336"/>
      <point x="242.171" y="217.003"/>
      <point x="212.504" y="189.003" type="curve" smooth="yes"/>
      <point x="182.837" y="161.003"/>
      <point x="150.337" y="158.67"/>
      <point x="115.004" y="182.003" type="curve" smooth="yes"/>
      <point x="87.0039" y="200.67"/>
      <point x="70.8369" y="208.503"/>
      <point x="66.5039" y="205.503" type="curve" smooth="yes"/>
      <point x="62.1709" y="202.503"/>
      <point x="65.6709" y="186.67"/>
      <point x="77.0039" y="158.003" type="curve"/>
      <point x="86.3369" y="129.336"/>
      <point x="104.17" y="106.336"/>
      <point x="130.503" y="89.003" type="curve" smooth="yes"/>
      <point x="156.836" y="71.6699"/>
      <point x="184.503" y="62.1699"/>
      <point x="213.503" y="60.5029" type="curve" smooth="yes"/>
      <point x="242.503" y="58.8359"/>
      <point x="270.836" y="65.169"/>
      <point x="298.503" y="79.502" type="curve" smooth="yes"/>
      <point x="326.17" y="93.835"/>
      <point x="345.337" y="115.002"/>
      <point x="356.004" y="143.002" type="curve"/>
      <point x="368.671" y="171.669"/>
      <point x="371.838" y="205.502"/>
      <point x="365.505" y="244.502" type="curve" smooth="yes"/>
      <point x="359.172" y="283.502"/>
      <point x="346.005" y="311.335"/>
      <point x="326.005" y="328.002" type="curve"/>
    </contour>
  </outline>
</glyph>
<glyph name="Kaddare-Small-DH" format="2">
  <advance width="437"/>
  <unicode hex="E029"/>
  <outline>
    <contour>
      <point x="127" y="717" type="line"/>
      <point x="151.667" y="733.667"/>
      <point x="179.333" y="741.998"/>
      <point x="210" y="741.998" type="curve" smooth="yes"/>
      <point x="238" y="741.998"/>
      <point x="266.5" y="728.831"/>
      <point x="295.5" y="702.498" type="curve" smooth="yes"/>
      <point x="324.5" y="676.165"/>
      <point x="339" y="650.998"/>
      <point x="339" y="626.998" type="curve" smooth="yes"/>
      <point x="339" y="617.665"/>
      <point x="343.333" y="604.665"/>
      <point x="352" y="587.998" type="curve" smooth="yes"/>
      <point x="360.667" y="571.331"/>
      <point x="370.667" y="555.998"/>
      <point x="382" y="541.998" type="curve"/>
      <point x="413.333" y="505.998"/>
      <point x="423.333" y="484.998"/>
      <point x="412" y="478.998" type="curve" smooth="yes"/>
      <point x="404.667" y="474.998"/>
      <point x="388.667" y="481.665"/>
      <point x="364" y="498.998" type="curve"/>
      <point x="322" y="524.998" type="line"/>
      <point x="322" y="302.998" type="line" smooth="yes"/>
      <point x="322" y="202.998"/>
      <point x="320.167" y="139.165"/>
      <point x="316.5" y="111.498" type="curve" smooth="yes"/>
      <point x="312.833" y="83.8311"/>
      <point x="303.666" y="61.6641"/>
      <point x="289" y="44.9971" type="curve" smooth="yes"/>
      <point x="275.667" y="30.3301"/>
      <point x="254" y="19.4971"/>
      <point x="224" y="12.4971" type="curve" smooth="yes"/>
      <point x="194" y="5.49707"/>
      <point x="166.833" y="3.83007"/>
      <point x="142.5" y="7.49706" type="curve" smooth="yes"/>
      <point x="118.167" y="11.1641"/>
      <point x="106" y="19.331"/>
      <point x="106" y="31.998" type="curve" smooth="yes"/>
      <point x="106" y="48.665"/>
      <point x="132.333" y="58.665"/>
      <point x="185" y="61.998" type="curve" smooth="yes"/>
      <point x="264" y="66.998" type="line"/>
      <point x="269" y="277.998" type="line"/>
      <point x="274" y="489.998" type="line"/>
      <point x="219" y="481.998" type="line" smooth="yes"/>
      <point x="182.333" y="476.665"/>
      <point x="153" y="481.332"/>
      <point x="131" y="496" type="curve"/>
      <point x="116.333" y="507.333"/>
      <point x="105" y="513"/>
      <point x="97" y="513" type="curve" smooth="yes"/>
      <point x="89" y="513"/>
      <point x="76.667" y="507.333"/>
      <point x="60" y="496" type="curve" smooth="yes"/>
      <point x="33.333" y="478.667"/>
      <point x="17.333" y="473.834"/>
      <point x="12" y="481.501" type="curve" smooth="yes"/>
      <point x="6.66699" y="489.168"/>
      <point x="14.334" y="506"/>
      <point x="35" y="532" type="curve" smooth="yes"/>
      <point x="44.333" y="543.333"/>
      <point x="53.5" y="559"/>
      <point x="62.5" y="579" type="curve" smooth="yes"/>
      <point x="71.5" y="599"/>
      <point x="77" y="617"/>
      <point x="79" y="633" type="curve"/>
      <point x="82.333" y="649"/>
      <point x="88.5" y="665"/>
      <point x="97.5" y="681" type="curve" smooth="yes"/>
      <point x="106.5" y="697"/>
      <point x="116.333" y="709"/>
      <point x="127" y="717" type="curve"/>
    </contour>
    <contour>
      <point x="265" y="649.998" type="line"/>
      <point x="249.667" y="673.331"/>
      <point x="230.669" y="686.334"/>
      <point x="208.002" y="689" type="curve" smooth="yes"/>
      <point x="185.335" y="691.667"/>
      <point x="165.502" y="684.667"/>
      <point x="148.502" y="668" type="curve" smooth="yes"/>
      <point x="131.502" y="651.333"/>
      <point x="123.002" y="629"/>
      <point x="123.002" y="601" type="curve" smooth="yes"/>
      <point x="123.002" y="576.333"/>
      <point x="131.669" y="557.166"/>
      <point x="149.002" y="543.499" type="curve" smooth="yes"/>
      <point x="166.335" y="529.832"/>
      <point x="186.668" y="525"/>
      <point x="210" y="529" type="curve" smooth="yes"/>
      <point x="233.333" y="533"/>
      <point x="251.666" y="545.667"/>
      <point x="265" y="567" type="curve" smooth="yes"/>
      <point x="277.667" y="586.333"/>
      <point x="284" y="600.166"/>
      <point x="284" y="608.499" type="curve" smooth="yes"/>
      <point x="284" y="616.832"/>
      <point x="277.667" y="630.665"/>
      <point x="265" y="649.998" type="curve"/>
    </contour>
  </outline>
</glyph>
<glyph name="Kaddare-Small-L" format="2">
  <advance width="448"/>
  <unicode hex="E029"/>
  <outline>
    <contour>
      <point x="138" y="509" type="line" smooth="yes"/>
      <point x="138" y="606.333"/>
      <point x="139.331" y="669"/>
      <point x="141.998" y="697" type="curve" smooth="yes"/>
      <point x="144.665" y="725"/>
      <point x="151.665" y="739"/>
      <point x="162.998" y="739" type="curve" smooth="yes"/>
      <point x="172.331" y="739"/>
      <point x="178.831" y="730.167"/>
      <point x="182.498" y="712.5" type="curve" smooth="yes"/>
      <point x="186.165" y="694.833"/>
      <point x="187.998" y="659.666"/>
      <point x="187.998" y="607" type="curve" smooth="yes"/>
      <point x="187.998" y="535"/>
      <point x="194.165" y="486.167"/>
      <point x="206.498" y="460.5" type="curve" smooth="yes"/>
      <point x="218.831" y="434.833"/>
      <point x="242.664" y="422"/>
      <point x="277.997" y="422" type="curve" smooth="yes"/>
      <point x="309.33" y="422"/>
      <point x="329.997" y="433.333"/>
      <point x="339.997" y="456" type="curve" smooth="yes"/>
      <point x="349.997" y="478.667"/>
      <point x="354.997" y="526.667"/>
      <point x="354.997" y="600" type="curve" smooth="yes"/>
      <point x="354.997" y="654.667"/>
      <point x="356.497" y="691.5"/>
      <point x="359.497" y="710.5" type="curve" smooth="yes"/>
      <point x="362.497" y="729.5"/>
      <point x="368.497" y="739"/>
      <point x="377.497" y="739" type="curve" smooth="yes"/>
      <point x="386.497" y="739"/>
      <point x="393.164" y="728.167"/>
      <point x="397.497" y="706.5" type="curve" smooth="yes"/>
      <point x="401.83" y="684.833"/>
      <point x="405.33" y="644.666"/>
      <point x="407.997" y="586" type="curve" smooth="yes"/>
      <point x="411.997" y="487.333"/>
      <point x="418.664" y="424.666"/>
      <point x="427.997" y="398" type="curve"/>
      <point x="434.664" y="384.667"/>
      <point x="436.997" y="377.334"/>
      <point x="434.997" y="376" type="curve" smooth="yes"/>
      <point x="432.997" y="374.667"/>
      <point x="423.997" y="378"/>
      <point x="407.997" y="386" type="curve" smooth="yes"/>
      <point x="381.33" y="399.333"/>
      <point x="358.33" y="400.333"/>
      <point x="338.997" y="389" type="curve" smooth="yes"/>
      <point x="317.664" y="377"/>
      <point x="293.497" y="371.333"/>
      <point x="266.497" y="372" type="curve" smooth="yes"/>
      <point x="239.497" y="372.667"/>
      <point x="219.664" y="379.334"/>
      <point x="206.997" y="392" type="curve" smooth="yes"/>
      <point x="196.33" y="402.667"/>
      <point x="189.997" y="400"/>
      <point x="187.997" y="384" type="curve"/>
      <point x="187.997" y="359" type="line" smooth="yes"/>
      <point x="187.997" y="323"/>
      <point x="195.997" y="305"/>
      <point x="211.997" y="305" type="curve" smooth="yes"/>
      <point x="219.33" y="305"/>
      <point x="225.33" y="303.5"/>
      <point x="229.997" y="300.5" type="curve" smooth="yes"/>
      <point x="234.664" y="297.5"/>
      <point x="236.997" y="294"/>
      <point x="236.997" y="290" type="curve" smooth="yes"/>
      <point x="236.997" y="282"/>
      <point x="228.664" y="273.667"/>
      <point x="211.997" y="265" type="curve"/>
      <point x="195.997" y="259.667"/>
      <point x="187.997" y="225.334"/>
      <point x="187.997" y="162" type="curve" smooth="yes"/>
      <point x="187.997" y="57.333"/>
      <point x="157.33" y="5"/>
      <point x="95.9971" y="5" type="curve" smooth="yes"/>
      <point x="72.6641" y="5"/>
      <point x="54.3311" y="12.5"/>
      <point x="40.9981" y="27.5" type="curve" smooth="yes"/>
      <point x="27.6651" y="42.5"/>
      <point x="17.3321" y="67"/>
      <point x="10" y="101" type="curve"/>
      <point x="-1.33301" y="163.667"/>
      <point x="24.334" y="213.667"/>
      <point x="87" y="251" type="curve"/>
      <point x="138" y="278" type="line"/>
    </contour>
    <contour>
      <point x="133.998" y="144" type="line"/>
      <point x="136.665" y="186.667"/>
      <point x="134.166" y="211.333"/>
      <point x="126.499" y="218" type="curve" smooth="yes"/>
      <point x="118.832" y="224.667"/>
      <point x="103.665" y="215.667"/>
      <point x="80.9981" y="191" type="curve"/>
      <point x="68.3311" y="176.333"/>
      <point x="60.3311" y="158.833"/>
      <point x="56.9981" y="138.5" type="curve" smooth="yes"/>
      <point x="53.6651" y="118.167"/>
      <point x="55.6651" y="100.667"/>
      <point x="62.9981" y="86" type="curve" smooth="yes"/>
      <point x="70.3311" y="71.333"/>
      <point x="81.3311" y="64"/>
      <point x="95.9981" y="64" type="curve" smooth="yes"/>
      <point x="110.665" y="64"/>
      <point x="119.998" y="68.667"/>
      <point x="123.998" y="78" type="curve" smooth="yes"/>
      <point x="127.998" y="87.333"/>
      <point x="131.331" y="109.333"/>
      <point x="133.998" y="144" type="curve"/>
    </contour>
  </outline>
</glyph>
<glyph name="Kaddare-Small-C" format="2">
  <advance width="408"/>
  <unicode hex="E02A"/>
  <outline>
    <contour>
      <point x="58" y="416" type="line"/>
      <point x="58" y="556.667"/>
      <point x="59.332" y="646.833"/>
      <point x="62" y="686.5" type="curve" smooth="yes"/>
      <point x="64.667" y="726.167"/>
      <point x="71.667" y="746"/>
      <point x="83" y="746" type="curve" smooth="yes"/>
      <point x="92.333" y="746"/>
      <point x="98.666" y="735.667"/>
      <point x="102" y="715" type="curve" smooth="yes"/>
      <point x="105.333" y="694.333"/>
      <point x="107" y="652"/>
      <point x="107" y="588" type="curve" smooth="yes"/>
      <point x="107" y="429" type="line"/>
      <point x="208" y="429" type="line"/>
      <point x="308" y="429" type="line"/>
      <point x="308" y="588" type="line" smooth="yes"/>
      <point x="308" y="652.667"/>
      <point x="309.667" y="695.167"/>
      <point x="313" y="715.5" type="curve" smooth="yes"/>
      <point x="316.333" y="735.833"/>
      <point x="323.333" y="746"/>
      <point x="334" y="746" type="curve" smooth="yes"/>
      <point x="340.667" y="746"/>
      <point x="345.334" y="742.167"/>
      <point x="348" y="734.5" type="curve" smooth="yes"/>
      <point x="350.667" y="726.833"/>
      <point x="353" y="711.5"/>
      <point x="355" y="688.5" type="curve" smooth="yes"/>
      <point x="357" y="665.5"/>
      <point x="357.833" y="632.167"/>
      <point x="357.5" y="588.5" type="curve" smooth="yes"/>
      <point x="357.167" y="544.833"/>
      <point x="356.667" y="486.666"/>
      <point x="356" y="414" type="curve" smooth="yes"/>
      <point x="354.667" y="193.333"/>
      <point x="361" y="70.333"/>
      <point x="375" y="45" type="curve" smooth="yes"/>
      <point x="385.667" y="25"/>
      <point x="389.334" y="14.667"/>
      <point x="386" y="14" type="curve"/>
      <point x="383.333" y="13.333"/>
      <point x="376" y="15.333"/>
      <point x="364" y="20" type="curve" smooth="yes"/>
      <point x="340.667" y="28.667"/>
      <point x="320.667" y="32.334"/>
      <point x="304" y="31" type="curve"/>
      <point x="283.333" y="28.333"/>
      <point x="251.5" y="27"/>
      <point x="208.5" y="27" type="curve" smooth="yes"/>
      <point x="165.5" y="27"/>
      <point x="131" y="28.333"/>
      <point x="105" y="31" type="curve"/>
      <point x="79.667" y="32.333"/>
      <point x="56" y="28.666"/>
      <point x="34" y="20" type="curve" smooth="yes"/>
      <point x="18" y="13.333"/>
      <point x="10" y="11.333"/>
      <point x="10" y="14" type="curve" smooth="yes"/>
      <point x="10" y="16.667"/>
      <point x="16.333" y="27"/>
      <point x="29" y="45" type="curve" smooth="yes"/>
      <point x="41.667" y="62.333"/>
      <point x="49.667" y="92.833"/>
      <point x="53" y="136.5" type="curve" smooth="yes"/>
      <point x="56.333" y="180.167"/>
      <point x="58" y="273.334"/>
      <point x="58" y="416" type="curve"/>
    </contour>
    <contour>
      <point x="308" y="251" type="line"/>
      <point x="308.002" y="379" type="line"/>
      <point x="208.002" y="379" type="line"/>
      <point x="107.002" y="379" type="line"/>
      <point x="107.002" y="247" type="line" smooth="yes"/>
      <point x="107.002" y="173.667"/>
      <point x="113.669" y="124.5"/>
      <point x="127.002" y="99.5" type="curve" smooth="yes"/>
      <point x="140.335" y="74.5"/>
      <point x="166.668" y="62"/>
      <point x="206.001" y="62" type="curve" smooth="yes"/>
      <point x="245.334" y="62"/>
      <point x="272.167" y="75.5"/>
      <point x="286.5" y="102.5" type="curve" smooth="yes"/>
      <point x="300.833" y="129.5"/>
      <point x="308" y="179"/>
      <point x="308" y="251" type="curve"/>
    </contour>
  </outline>
</glyph>
<glyph name="Kaddare-Small-G" format="2">
  <advance width="357"/>
  <unicode hex="E02B"/>
  <outline>
    <contour>
      <point x="87" y="695" type="line"/>
      <point x="97.667" y="706.333"/>
      <point x="110.998" y="716.165"/>
      <point x="126.998" y="724.498" type="curve" smooth="yes"/>
      <point x="142.998" y="732.831"/>
      <point x="156.998" y="736.998"/>
      <point x="168.998" y="736.998" type="curve" smooth="yes"/>
      <point x="180.998" y="736.998"/>
      <point x="195.331" y="732.831"/>
      <point x="211.998" y="724.498" type="curve" smooth="yes"/>
      <point x="228.665" y="716.165"/>
      <point x="241.998" y="706.332"/>
      <point x="251.998" y="695" type="curve"/>
      <point x="269.331" y="678.333"/>
      <point x="280.664" y="661"/>
      <point x="285.997" y="643" type="curve" smooth="yes"/>
      <point x="291.33" y="625"/>
      <point x="293.997" y="594"/>
      <point x="293.997" y="550" type="curve" smooth="yes"/>
      <point x="293.997" y="478.667"/>
      <point x="302.997" y="431"/>
      <point x="320.997" y="407" type="curve" smooth="yes"/>
      <point x="339.664" y="381.667"/>
      <point x="341.997" y="369.667"/>
      <point x="327.997" y="371" type="curve" smooth="yes"/>
      <point x="319.33" y="371.667"/>
      <point x="303.663" y="380"/>
      <point x="280.996" y="396" type="curve" smooth="yes"/>
      <point x="264.996" y="407.333"/>
      <point x="254.996" y="420.833"/>
      <point x="250.996" y="436.5" type="curve" smooth="yes"/>
      <point x="246.996" y="452.167"/>
      <point x="244.996" y="482.667"/>
      <point x="244.996" y="528" type="curve" smooth="yes"/>
      <point x="244.996" y="574.667"/>
      <point x="239.329" y="612.167"/>
      <point x="227.996" y="640.5" type="curve" smooth="yes"/>
      <point x="216.663" y="668.833"/>
      <point x="201.83" y="684.666"/>
      <point x="183.497" y="688" type="curve" smooth="yes"/>
      <point x="165.164" y="691.333"/>
      <point x="144.331" y="682"/>
      <point x="120.998" y="660" type="curve"/>
      <point x="109.665" y="648.667"/>
      <point x="102.498" y="623.334"/>
      <point x="99.498" y="584" type="curve" smooth="yes"/>
      <point x="96.498" y="544.667"/>
      <point x="94.998" y="465.667"/>
      <point x="94.998" y="347" type="curve" smooth="yes"/>
      <point x="94.998" y="271.667"/>
      <point x="94.831" y="218"/>
      <point x="94.498" y="186" type="curve" smooth="yes"/>
      <point x="94.165" y="154"/>
      <point x="92.498" y="125.333"/>
      <point x="89.498" y="100" type="curve" smooth="yes"/>
      <point x="86.498" y="74.667"/>
      <point x="83.331" y="58.334"/>
      <point x="79.998" y="51" type="curve" smooth="yes"/>
      <point x="76.665" y="43.667"/>
      <point x="70.332" y="36"/>
      <point x="61" y="28" type="curve" smooth="yes"/>
      <point x="41" y="10.667"/>
      <point x="25.667" y="5"/>
      <point x="15" y="11" type="curve"/>
      <point x="7" y="15"/>
      <point x="10" y="24.667"/>
      <point x="24" y="40" type="curve"/>
      <point x="37.333" y="53.333"/>
      <point x="44.333" y="159"/>
      <point x="45" y="357" type="curve"/>
      <point x="45" y="505"/>
      <point x="46.833" y="593.333"/>
      <point x="50.5" y="622" type="curve" smooth="yes"/>
      <point x="54.167" y="650.667"/>
      <point x="66.334" y="675"/>
      <point x="87" y="695" type="curve"/>
    </contour>
  </outline>
</glyph>
